<svg width="32" height="32" viewBox="0 0 32 32" fill="none" xmlns="http://www.w3.org/2000/svg">
<path d="M25.9997 13.334V17.334" stroke="#001D47" stroke-opacity="0.6" stroke-width="1.2" stroke-linecap="round" stroke-linejoin="round"/>
<path d="M24 15.3327H28" stroke="#001D47" stroke-opacity="0.6" stroke-width="1.2" stroke-linecap="round" stroke-linejoin="round"/>
<path d="M7.41421 15.2518C8.19526 16.0328 8.19526 17.2992 7.41421 18.0802C6.63316 18.8613 5.36684 18.8613 4.58579 18.0802C3.80474 17.2992 3.80474 16.0329 4.58579 15.2518C5.36683 14.4708 6.63316 14.4708 7.41421 15.2518" stroke="#001D47" stroke-opacity="0.6" stroke-width="1.2" stroke-linecap="round" stroke-linejoin="round"/>
<path d="M20.8817 20.4649L17.675 23.6716C16.3857 24.9609 14.2937 24.9609 13.0043 23.6716L13.0017 23.6689C11.7123 22.3796 11.7123 20.2876 13.0017 18.9983L18.9977 13.0023C20.287 11.7129 20.287 9.62095 18.9977 8.33161V8.33161C17.707 7.03961 15.6137 7.04095 14.3243 8.33295L10.667 11.9996" stroke="#001D47" stroke-opacity="0.6" stroke-width="1.2" stroke-linecap="round" stroke-linejoin="round"/>
</svg>
