<svg xmlns="http://www.w3.org/2000/svg" width="267" height="267" fill="none"><g fill="#000"><path d="M212 227.07v-26.4l-38.53-21.73-38.53-21.6-37.07 20.8c-20.54 11.46-38 21.6-38.94 22.4-1.2 1.2-1.6 7.86-1.33 27.06l.4 25.6 37.73-21.33c20.67-11.6 38.27-21.2 39.07-21.2 1.2 0 65.34 35.33 74.14 40.8l3.06 1.87v-26.27Z"/><path d="M212 154.94V128.4l-37.73-21.07c-20.67-11.6-38-21.33-38.67-21.6-.53-.26-18.4 9.2-39.6 21.2l-38.67 21.74v52.8l2.94-1.6c1.73-.8 18.4-10.13 37.2-20.67 18.8-10.53 35.06-19.46 36.13-19.86 1.74-.67 17.2 7.46 71.34 38.26l7.06 3.87v-26.53Z"/><path d="M212 83.07v-26.4l-38.53-21.74-38.53-21.6-37.07 20.8c-20.54 11.47-38 21.6-38.94 22.4-1.2 1.2-1.6 7.87-1.33 27.07l.4 25.6 37.73-21.33c20.67-11.6 38.27-21.2 39.07-21.2 1.2 0 65.34 35.33 74.14 40.8l3.06 1.86V83.07Z"/></g></svg>