
<svg width="22" height="21" viewBox="0 0 22 21" fill="none" xmlns="http://www.w3.org/2000/svg">
<path d="M21.9999 8.12904V15.5807C21.9994 16.1194 21.821 16.6361 21.5037 17.017C21.1865 17.398 20.7562 17.6123 20.3076 17.6129H19.7435V20.3226C19.7434 20.4951 19.6885 20.6612 19.59 20.7868C19.4915 20.9125 19.3567 20.9883 19.2133 20.9987C19.0698 21.0092 18.9286 20.9537 18.818 20.8433L15.5905 17.6131H10.1539C9.70523 17.6124 9.27503 17.3982 8.9578 17.0171C8.6405 16.6362 8.46209 16.1196 8.46157 15.5808V14.9034H14.1026C14.8504 14.9023 15.5672 14.5451 16.096 13.9101C16.6247 13.2752 16.9222 12.4143 16.9231 11.5163V6.09692H20.3077C20.7563 6.09756 21.1865 6.31179 21.5038 6.69283C21.8211 7.07379 21.9995 7.59041 22 8.12918L21.9999 8.12904ZM14.1025 13.5484H6.46456L3.2485 18.0532C3.14793 18.194 3.00364 18.2791 2.84932 18.2885C2.69508 18.2981 2.54425 18.2312 2.43225 18.1034C2.32013 17.9758 2.25658 17.7985 2.25641 17.6129V13.5484H1.6923C1.24366 13.5478 0.813457 13.3335 0.496229 12.9525C0.178933 12.5715 0.000518973 12.0549 0 11.5161V2.03226C0.000528856 1.49349 0.178926 0.976866 0.496229 0.595912C0.813457 0.214878 1.24366 0.000623226 1.6923 0H14.1025C14.5512 0.000635094 14.9814 0.214869 15.2986 0.595912C15.6159 0.976866 15.7943 1.49349 15.7948 2.03226V11.5161C15.7943 12.0549 15.6159 12.5715 15.2986 12.9525C14.9814 13.3335 14.5512 13.5478 14.1025 13.5484L14.1025 13.5484ZM12.4102 8.12904C12.4102 7.94942 12.3508 7.77711 12.2449 7.65008C12.1392 7.52296 11.9957 7.45162 11.8461 7.45162H3.94866C3.74717 7.45162 3.56092 7.58075 3.4601 7.79033C3.35936 7.99991 3.35936 8.25818 3.4601 8.46775C3.56094 8.67733 3.74719 8.80646 3.94866 8.80646H11.8461C11.9957 8.80646 12.1391 8.73512 12.2449 8.608C12.3508 8.48098 12.4102 8.30867 12.4102 8.12904ZM12.4102 4.74195C12.4102 4.56233 12.3508 4.39001 12.2449 4.26298C12.1392 4.13586 11.9957 4.06452 11.8461 4.06452H3.94866C3.74717 4.06452 3.56092 4.19365 3.4601 4.40323C3.35936 4.61281 3.35936 4.87108 3.4601 5.08065C3.56094 5.29023 3.74719 5.41936 3.94866 5.41936H11.8461C11.9957 5.41936 12.1391 5.34802 12.2449 5.2209C12.3508 5.09388 12.4102 4.92157 12.4102 4.74195Z" fill="black" fill-opacity="0.5"/>
</svg>
