<svg width="32" height="32" viewBox="0 0 32 32" fill="none" xmlns="http://www.w3.org/2000/svg">
<path fill-rule="evenodd" clip-rule="evenodd" d="M9.53033 8.46967C9.23744 8.17678 8.76256 8.17678 8.46967 8.46967C8.17678 8.76256 8.17678 9.23744 8.46967 9.53033L14.9371 15.9977L8.46967 22.4651C8.17678 22.758 8.17678 23.2329 8.46967 23.5258C8.76256 23.8187 9.23744 23.8187 9.53033 23.5258L15.9977 17.0584L22.4651 23.5258C22.758 23.8187 23.2329 23.8187 23.5258 23.5258C23.8187 23.2329 23.8187 22.758 23.5258 22.4651L17.0584 15.9977L23.5258 9.53033C23.8187 9.23744 23.8187 8.76256 23.5258 8.46967C23.2329 8.17678 22.758 8.17678 22.4651 8.46967L15.9977 14.9371L9.53033 8.46967Z" fill="#00060F"/>
</svg>
