<svg xmlns="http://www.w3.org/2000/svg" width="16" height="16" fill="none"><path fill="#fff" d="M1.33 3.83a.83.83 0 0 0-.83.84v6.66a.83.83 0 1 0 1.67 0V4.67a.83.83 0 0 0-.84-.84ZM14.67 3.83a.83.83 0 0 0-.84.84v6.66a.83.83 0 1 0 1.67 0V4.67a.83.83 0 0 0-.83-.84ZM8 .5a.83.83 0 0 0-.83.83v13.34a.83.83 0 0 0 1.66 0V1.33A.83.83 0 0 0 8 .5ZM11.33 2.16a.83.83 0 0 0-.83.84v10a.83.83 0 0 0 1.67 0V3a.83.83 0 0 0-.84-.84ZM4.67 2.16a.83.83 0 0 0-.84.84v10a.83.83 0 0 0 1.67 0V3a.83.83 0 0 0-.83-.84Z"/></svg>