<svg width="32" height="32" viewBox="0 0 32 32" fill="none" xmlns="http://www.w3.org/2000/svg">
<path fill-rule="evenodd" clip-rule="evenodd" d="M21.3555 7.58769C21.5826 7.36058 21.9517 7.36058 22.1788 7.58769L24.4135 9.82236C24.6406 10.0494 24.6406 10.4185 24.4136 10.6456L24.4135 10.6457L22.4532 12.6056L19.3954 9.54783L21.3555 7.58769ZM17.8404 8.98151C17.8277 8.99261 17.8153 9.00421 17.8032 9.0163C17.7911 9.0284 17.7795 9.0408 17.7684 9.05349L6.52826 20.2936L6.52749 20.2944C6.13501 20.6852 5.9165 21.2152 5.9165 21.7667V25.3334C5.9165 25.7476 6.25229 26.0834 6.6665 26.0834H10.2332C10.7847 26.0834 11.3147 25.8648 11.7055 25.4723L11.7062 25.4716L22.9633 14.2167C22.9703 14.2103 22.9771 14.2037 22.9838 14.197C22.9905 14.1903 22.9971 14.1835 23.0035 14.1766L25.4741 11.7064L25.4742 11.7064C26.2871 10.8935 26.2871 9.57459 25.4742 8.76169L23.2395 6.52703C22.4266 5.71414 21.1077 5.71414 20.2948 6.52703L17.8404 8.98151ZM21.3924 13.6662L10.6442 24.4123L10.6428 24.4138C10.535 24.5221 10.388 24.5834 10.2332 24.5834H7.4165V21.7667C7.4165 21.6119 7.47772 21.4649 7.58608 21.3571L7.5875 21.3557L18.3347 10.6085L21.3924 13.6662Z" fill="#001D47"/>
</svg>
