<svg width="22" height="18" viewBox="0 0 22 18" fill="none" xmlns="http://www.w3.org/2000/svg">
<path d="M0.877486 0.517582C1.24624 0.182769 1.69271 0.00134505 2.15162 0H19.8497C20.3086 0.00133928 20.755 0.182761 21.1238 0.517582L12.7694 9.41868C12.278 9.93977 11.6502 10.2265 11.0006 10.2265C10.3511 10.2265 9.72325 9.93977 9.23191 9.41868L0.877486 0.517582ZM21.8038 16.4604C21.9335 16.1163 22.0004 15.7418 22 15.3626V2.63736C22.0004 2.25824 21.9335 1.88366 21.8038 1.53956L14.8067 9.00013L21.8038 16.4604ZM0.196229 1.53956C0.066532 1.88366 -0.00041737 2.25824 1.96393e-06 2.63736V15.3626C-0.000418037 15.7418 0.066532 16.1163 0.196229 16.4604L7.19331 8.99987L0.196229 1.53956ZM13.9887 9.87363L13.4726 10.4209C12.7853 11.1485 11.9075 11.5488 10.9996 11.5488C10.0916 11.5488 9.21387 11.1485 8.52657 10.4209L8.01047 9.87363L0.876411 17.4824C1.24517 17.8172 1.69164 17.9987 2.15054 18H19.8486C20.3075 17.9987 20.754 17.8172 21.1227 17.4824L13.9887 9.87363Z" fill="black" fill-opacity="0.5"/>
</svg>
