<svg xmlns="http://www.w3.org/2000/svg" width="16" height="16" fill="none"><path fill="currentColor" d="M2.7 11.86a.65.65 0 0 1 0-.92l2.9-2.95c.11-.11.29-.19.44-.19.35 0 .6.26.6.62 0 .18-.06.32-.18.43l-1.2 1.2-.86.78 1.2-.05h7.3c.35 0 .6.26.6.62 0 .37-.25.62-.6.62H5.6l-1.2-.04.86.77 1.2 1.2c.12.12.18.26.18.44 0 .35-.25.61-.6.61a.65.65 0 0 1-.44-.2l-2.9-2.94Zm10.6-7.72c.27.26.26.67 0 .92l-2.9 2.95c-.11.11-.29.19-.44.19-.35 0-.59-.26-.59-.62a.6.6 0 0 1 .17-.43l1.2-1.2.86-.77-1.2.04H3.1c-.34 0-.6-.26-.6-.62a.6.6 0 0 1 .6-.62h7.3l1.2.04-.86-.77-1.2-1.2a.6.6 0 0 1-.17-.43c0-.36.24-.62.6-.62.14 0 .32.08.44.2l2.9 2.94Z"/></svg>