<svg width="32" height="32" viewBox="0 0 32 32" fill="none" xmlns="http://www.w3.org/2000/svg">
<path fill-rule="evenodd" clip-rule="evenodd" d="M9.33067 4.745C6.79833 4.745 4.74512 6.7982 4.74512 9.33055V22.6694C4.74512 25.2018 6.79833 27.255 9.33067 27.255H22.6696C25.2019 27.255 27.2551 25.2018 27.2551 22.6694V16C27.2551 15.5858 27.5909 15.25 28.0051 15.25C28.4193 15.25 28.7551 15.5858 28.7551 16V22.6694C28.7551 26.0302 26.0303 28.755 22.6696 28.755H9.33067C5.9699 28.755 3.24512 26.0302 3.24512 22.6694V9.33055C3.24512 5.96978 5.9699 3.245 9.33067 3.245H14.6662C15.0804 3.245 15.4162 3.58078 15.4162 3.995C15.4162 4.40921 15.0804 4.745 14.6662 4.745H9.33067Z" fill="#00060F"/>
<path fill-rule="evenodd" clip-rule="evenodd" d="M16.584 11.3314C16.584 8.70691 18.7112 6.57971 21.3357 6.57971H28.0051C28.4193 6.57971 28.7551 6.9155 28.7551 7.32971C28.7551 7.74393 28.4193 8.07971 28.0051 8.07971H21.3357C19.5396 8.07971 18.084 9.53534 18.084 11.3314V14.6661C18.084 15.0803 17.7482 15.4161 17.334 15.4161C16.9198 15.4161 16.584 15.0803 16.584 14.6661V11.3314Z" fill="#00060F"/>
<path fill-rule="evenodd" clip-rule="evenodd" d="M24.1401 3.46467C24.433 3.17177 24.9078 3.17177 25.2007 3.46467L28.5355 6.79939C28.8284 7.09228 28.8284 7.56715 28.5355 7.86005L25.2007 11.1948C24.9078 11.4877 24.433 11.4877 24.1401 11.1948C23.8472 10.9019 23.8472 10.427 24.1401 10.1341L26.9445 7.32972L24.1401 4.52533C23.8472 4.23243 23.8472 3.75756 24.1401 3.46467Z" fill="#00060F"/>
</svg>
