<svg xmlns="http://www.w3.org/2000/svg" width="16" height="21" viewBox="0 0 16 21" fill="none">
    <path d="M2.62393 8.52552H2.6677V5.9735C2.6677 4.52755 3.2675 3.21304 4.23387 2.2604C5.20022 1.30775 6.53383 0.716431 8.00036 0.716431C9.46709 0.716431 10.8005 1.30773 11.7668 2.2604C12.7332 3.21306 13.333 4.52776 13.333 5.9735V8.52552H13.3768C14.0985 8.52552 14.7547 8.81655 15.2301 9.28455C15.7054 9.75314 16 10.4 16 11.1116V18.2721C16 18.9836 15.7048 19.6311 15.2301 20.0991C14.7547 20.5677 14.0986 20.8581 13.3768 20.8581H2.62321C1.90145 20.8581 1.24531 20.5671 0.769942 20.0991C0.294609 19.6305 0 18.9837 0 18.2721V11.1116C0 10.4 0.295217 9.75318 0.769942 9.28455C1.24527 8.81655 1.90142 8.52552 2.62321 8.52552H2.62393ZM5.09449 8.52552V5.9735C5.09449 5.18549 5.42161 4.46901 5.94764 3.95039C6.47428 3.43121 7.20108 3.10933 8.00036 3.10933C8.79965 3.10933 9.52649 3.43121 10.0531 3.95039C10.5791 4.46896 10.9062 5.18544 10.9062 5.9735V8.52552H12.3755V5.9735C12.3755 4.78776 11.8832 3.70991 11.0895 2.92821C10.2964 2.14637 9.20255 1.66111 8.00045 1.66111C6.79766 1.66111 5.70432 2.14637 4.91137 2.92821C4.11829 3.71005 3.62543 4.78844 3.62543 5.9735V8.52552H5.09467H5.09449ZM9.94876 8.52552V5.9735C9.94876 5.4457 9.72921 4.96599 9.37645 4.61761C9.02306 4.26923 8.53645 4.05279 8.00106 4.05279C7.46567 4.05279 6.97906 4.26923 6.62567 4.61761C6.27229 4.96599 6.05336 5.4457 6.05336 5.9735V8.52552H9.94945H9.94876ZM13.3777 9.46954H2.6241C2.16689 9.46954 1.75032 9.65454 1.44824 9.95234C1.14616 10.2501 0.9585 10.6608 0.9585 11.1121V18.2727C0.9585 18.724 1.14616 19.1347 1.44824 19.4325C1.75032 19.7303 2.16687 19.9153 2.6241 19.9153H13.3777C13.8349 19.9153 14.2515 19.7303 14.5535 19.4325C14.8556 19.1347 15.0433 18.724 15.0433 18.2727V11.1121C15.0433 10.6608 14.8556 10.2501 14.5535 9.95234C14.2515 9.65454 13.8349 9.46954 13.3777 9.46954Z" fill="black"/>
</svg>
