<svg width="32" height="32" viewBox="0 0 32 32" fill="none" xmlns="http://www.w3.org/2000/svg">
<path fill-rule="evenodd" clip-rule="evenodd" d="M9.33038 3.245C7.44221 3.245 5.9126 4.77461 5.9126 6.66277V25.3372C5.9126 27.2254 7.44221 28.755 9.33038 28.755H15.9998C16.414 28.755 16.7498 28.4192 16.7498 28.005C16.7498 27.5908 16.414 27.255 15.9998 27.255H9.33038C8.27064 27.255 7.4126 26.397 7.4126 25.3372V6.66277C7.4126 5.60304 8.27064 4.745 9.33038 4.745H17.9175V9.33055C17.9175 10.4811 18.8508 11.4144 20.0014 11.4144H24.587V14.6661C24.587 15.0803 24.9228 15.4161 25.337 15.4161C25.7513 15.4161 26.087 15.0803 26.087 14.6661V10.435C26.087 9.52891 25.7264 8.65926 25.0857 8.01856L21.3135 4.24632C20.6728 3.60562 19.8031 3.245 18.897 3.245H18.6675H9.33038ZM19.4175 4.81716V9.33055C19.4175 9.65264 19.6793 9.91444 20.0014 9.91444H24.5148C24.4264 9.60164 24.2591 9.31323 24.0251 9.07922L20.2528 5.30698C20.0188 5.07295 19.7303 4.90555 19.4175 4.81716ZM22.0023 19.2516C22.4165 19.2516 22.7523 19.5874 22.7523 20.0016V21.2524H25.254V20.0016C25.254 19.5874 25.5898 19.2516 26.004 19.2516C26.4182 19.2516 26.754 19.5874 26.754 20.0016V21.2524H28.0048C28.419 21.2524 28.7548 21.5882 28.7548 22.0024C28.7548 22.4166 28.419 22.7524 28.0048 22.7524H26.754V25.2541H28.0048C28.419 25.2541 28.7548 25.5899 28.7548 26.0041C28.7548 26.4183 28.419 26.7541 28.0048 26.7541H26.754V28.0049C26.754 28.4191 26.4182 28.7549 26.004 28.7549C25.5898 28.7549 25.254 28.4191 25.254 28.0049V26.7541H22.7523V28.0049C22.7523 28.4191 22.4165 28.7549 22.0023 28.7549C21.5881 28.7549 21.2523 28.4191 21.2523 28.0049V26.7541H20.0015C19.5873 26.7541 19.2515 26.4183 19.2515 26.0041C19.2515 25.5899 19.5873 25.2541 20.0015 25.2541H21.2523V22.7524H20.0015C19.5873 22.7524 19.2515 22.4166 19.2515 22.0024C19.2515 21.5882 19.5873 21.2524 20.0015 21.2524H21.2523V20.0016C21.2523 19.5874 21.5881 19.2516 22.0023 19.2516ZM22.7523 22.7524V25.2541H25.254V22.7524H22.7523Z" fill="#001D47"/>
</svg>
