<svg width="32" height="32" viewBox="0 0 32 32" fill="none" xmlns="http://www.w3.org/2000/svg">
<path fill-rule="evenodd" clip-rule="evenodd" d="M5.33317 7.41663C4.27405 7.41663 3.4165 8.27417 3.4165 9.33329V22.6666C3.4165 23.7257 4.27405 24.5833 5.33317 24.5833H26.6665C27.7256 24.5833 28.5832 23.7257 28.5832 22.6666V9.33329C28.5832 8.27417 27.7256 7.41663 26.6665 7.41663H5.33317ZM1.9165 9.33329C1.9165 7.44575 3.44562 5.91663 5.33317 5.91663H26.6665C28.554 5.91663 30.0832 7.44575 30.0832 9.33329V22.6666C30.0832 24.5542 28.554 26.0833 26.6665 26.0833H5.33317C3.44562 26.0833 1.9165 24.5542 1.9165 22.6666V9.33329Z" fill="#00060F"/>
<path fill-rule="evenodd" clip-rule="evenodd" d="M17.8265 14.1733C16.8177 13.1644 15.182 13.1644 14.1731 14.1733L13.6428 13.6429L14.1731 14.1733C13.1643 15.1821 13.1643 16.8178 14.1731 17.8266L13.6428 18.357L14.1731 17.8266C15.182 18.8355 16.8177 18.8355 17.8265 17.8266C18.8354 16.8178 18.8354 15.1821 17.8265 14.1733ZM18.8868 13.1122C17.2921 11.518 14.707 11.5181 13.1125 13.1126C11.5178 14.7072 11.5178 17.2927 13.1125 18.8873C14.7071 20.4819 17.2925 20.4819 18.8872 18.8873C20.4818 17.2927 20.4818 14.7072 18.8872 13.1126C18.887 13.1125 18.8869 13.1123 18.8868 13.1122Z" fill="#00060F"/>
<path fill-rule="evenodd" clip-rule="evenodd" d="M23.9944 14.75C23.3054 14.7537 22.75 15.3132 22.75 16.0013C22.75 16.6902 23.3089 17.2524 24.0018 17.25C24.0012 17.25 24.0006 17.25 24 17.25V16.5L24.0036 17.25C24.003 17.25 24.0024 17.25 24.0018 17.25C24.6912 17.249 25.25 16.6896 25.25 16C25.25 15.3087 24.6892 14.7503 23.9993 14.75M23.9969 14.75C23.9963 14.75 23.9956 14.75 23.995 14.75C23.9948 14.75 23.9946 14.75 23.9944 14.75M23.9987 15.75C23.9985 15.75 23.9984 15.75 23.9982 15.75C23.998 15.75 23.9978 15.75 23.9975 15.75" fill="#00060F"/>
<path fill-rule="evenodd" clip-rule="evenodd" d="M7.99443 14.75C7.30543 14.7537 6.75 15.3132 6.75 16.0013C6.75 16.6902 7.30891 17.2524 8.00181 17.25C8.00121 17.25 8.0006 17.25 8 17.25V16.5L8.00362 17.25C8.00302 17.25 8.00242 17.25 8.00181 17.25C8.69119 17.249 9.25 16.6896 9.25 16C9.25 15.3087 8.68924 14.7503 7.99928 14.75M7.99685 14.75C7.99625 14.75 7.99565 14.75 7.99504 14.75C7.99484 14.75 7.99463 14.75 7.99443 14.75M7.99867 15.75C7.99852 15.75 7.99837 15.75 7.99823 15.75C7.998 15.75 7.99777 15.75 7.99754 15.75" fill="#00060F"/>
</svg>
