<svg width="32" height="32" viewBox="0 0 32 32" fill="none" xmlns="http://www.w3.org/2000/svg">
<path fill-rule="evenodd" clip-rule="evenodd" d="M14.9995 3C14.9995 2.44772 15.4472 2 15.9995 2C16.5518 2 16.9995 2.44772 16.9995 3V9C16.9995 9.55228 16.5518 10 15.9995 10C15.4472 10 14.9995 9.55228 14.9995 9V3ZM3.99951 15.3348C3.99951 10.6231 6.71508 6.54557 10.6665 4.58203V6.28807C7.57388 8.11509 5.49951 11.4827 5.49951 15.3348C5.49951 21.1338 10.2005 25.8348 15.9995 25.8348C21.7985 25.8348 26.4995 21.1338 26.4995 15.3348C26.4995 11.483 24.4254 8.11556 21.3332 6.28846V4.58235C25.2842 6.54602 27.9995 10.6233 27.9995 15.3348C27.9995 21.9622 22.6269 27.3348 15.9995 27.3348C9.3721 27.3348 3.99951 21.9622 3.99951 15.3348Z" fill="#001D47"/>
</svg>
