<svg xmlns="http://www.w3.org/2000/svg" width="16" height="16" fill="none"><path fill="#fff" d="M13.3 9.94a2.29 2.29 0 0 0-1.67-.69c-.66 0-1.22.23-1.69.69a2.33 2.33 0 0 0-.69 1.69c0 .65.23 1.21.69 1.67.47.47 1.03.7 1.69.7.65 0 1.2-.23 1.66-.7h.01c.47-.46.7-1.02.7-1.67a2.3 2.3 0 0 0-.7-1.69Zm-.8.8c.25.24.38.54.38.89 0 .34-.13.63-.38.87a1.21 1.21 0 0 1-1.77 0 1.2 1.2 0 0 1-.36-.87c0-.35.12-.65.36-.9.25-.24.55-.36.9-.36.34 0 .63.13.87.37ZM6.05 2.69A2.29 2.29 0 0 0 4.37 2c-.65 0-1.21.23-1.68.69A2.33 2.33 0 0 0 2 4.37c0 .66.23 1.22.69 1.68.47.47 1.03.7 1.68.7.66 0 1.22-.23 1.67-.7h.01c.47-.46.7-1.02.7-1.68a2.3 2.3 0 0 0-.7-1.68Zm-.42 1.68c0 .35-.13.64-.38.88-.24.25-.53.38-.88.38-.34 0-.64-.13-.88-.38a1.2 1.2 0 0 1-.37-.88c0-.34.12-.64.36-.88v-.01c.25-.24.55-.36.9-.36.34 0 .63.12.87.37.25.24.37.54.38.88Zm8.2-1.4c.12-.12.17-.25.17-.4a.54.54 0 0 0-.16-.4.54.54 0 0 0-.4-.17.54.54 0 0 0-.4.16L2.16 13.04a.54.54 0 0 0-.16.4c0 .15.05.29.16.4.11.1.25.16.4.16.16 0 .3-.05.4-.16L13.84 2.96Z"/></svg>