<svg width="23" height="22" viewBox="0 0 23 22" fill="none" xmlns="http://www.w3.org/2000/svg">
<rect x="0.75" width="22" height="22" rx="11" fill="#6B6B94" fill-opacity="0.1"/>
<path fill-rule="evenodd" clip-rule="evenodd" d="M6.73926 11.4388C6.73926 11.1166 7.00043 10.8555 7.32259 10.8555H10.3851C10.7073 10.8555 10.9684 11.1166 10.9684 11.4388C10.9684 11.761 10.7073 12.0221 10.3851 12.0221H7.90592V15.3763C7.90592 15.6985 7.64476 15.9596 7.32259 15.9596C7.00043 15.9596 6.73926 15.6985 6.73926 15.3763V11.4388Z" fill="#63676F"/>
<path fill-rule="evenodd" clip-rule="evenodd" d="M5.86426 15.3763C5.86426 15.0541 6.12543 14.793 6.44759 14.793H17.3851C17.7073 14.793 17.9684 15.0541 17.9684 15.3763C17.9684 15.6985 17.7073 15.9596 17.3851 15.9596H6.44759C6.12543 15.9596 5.86426 15.6985 5.86426 15.3763Z" fill="#63676F"/>
<path fill-rule="evenodd" clip-rule="evenodd" d="M9.80176 8.8138C9.80176 8.49164 10.0629 8.23047 10.3851 8.23047H13.4476C13.7698 8.23047 14.0309 8.49164 14.0309 8.8138C14.0309 9.13597 13.7698 9.39714 13.4476 9.39714H10.9684V15.3763C10.9684 15.6985 10.7073 15.9596 10.3851 15.9596C10.0629 15.9596 9.80176 15.6985 9.80176 15.3763V8.8138Z" fill="#63676F"/>
<path fill-rule="evenodd" clip-rule="evenodd" d="M12.8643 6.1888C12.8643 5.86664 13.1254 5.60547 13.4476 5.60547H16.5101C16.8323 5.60547 17.0934 5.86664 17.0934 6.1888V15.3763C17.0934 15.6985 16.8323 15.9596 16.5101 15.9596H13.4476C13.1254 15.9596 12.8643 15.6985 12.8643 15.3763V6.1888ZM14.0309 6.77214V14.793H15.9268V6.77214H14.0309Z" fill="#63676F"/>
</svg>
