<svg width="32" height="32" viewBox="0 0 32 32" fill="none" xmlns="http://www.w3.org/2000/svg">
<path fill-rule="evenodd" clip-rule="evenodd" d="M8.00198 10.8067C7.58776 10.8067 7.25198 11.1425 7.25198 11.5567C7.25198 11.9709 7.58776 12.3067 8.00198 12.3067H24.0001C24.3062 12.3067 24.5815 12.1208 24.6958 11.8369C24.8102 11.553 24.7406 11.2282 24.52 11.0161L18.7429 5.46097C18.4444 5.17387 17.9696 5.18317 17.6825 5.48174C17.3954 5.78032 17.4047 6.2551 17.7033 6.5422L22.1381 10.8067H8.00198ZM7.99702 19.6958C7.69096 19.6958 7.41562 19.8818 7.30134 20.1658C7.18706 20.4497 7.25677 20.7746 7.47747 20.9866L13.2592 26.5417C13.5579 26.8287 14.0327 26.8192 14.3197 26.5205C14.6066 26.2218 14.5972 25.7471 14.2985 25.4601L9.86002 21.1956L24 21.1942C24.4142 21.1942 24.75 20.8584 24.75 20.4442C24.7499 20.0299 24.4141 19.6942 23.9999 19.6942L7.99702 19.6958Z" fill="#001D47"/>
</svg>
