<svg width="32" height="32" viewBox="0 0 32 32" fill="none" xmlns="http://www.w3.org/2000/svg">
<path fill-rule="evenodd" clip-rule="evenodd" d="M11.7976 8.75C7.92296 8.75059 4.75 11.9239 4.75 15.7987C4.75 17.734 5.54129 19.4953 6.821 20.775C7.11389 21.0679 7.11389 21.5428 6.821 21.8357C6.5281 22.1286 6.05323 22.1286 5.76034 21.8357C4.21338 20.2887 3.25 18.1513 3.25 15.7987C3.25 11.0951 7.09512 7.25 11.7987 7.25H11.8009L21.3355 7.278C21.7497 7.27922 22.0845 7.61599 22.0833 8.0302C22.0821 8.44441 21.7453 8.77921 21.3311 8.778L11.7987 8.75C11.7983 8.75 11.7979 8.75 11.7976 8.75Z" fill="#00060F"/>
<path fill-rule="evenodd" clip-rule="evenodd" d="M18.1376 4.831C18.4305 4.5381 18.9054 4.5381 19.1983 4.831L21.865 7.49766C22.1579 7.79056 22.1579 8.26543 21.865 8.55833L19.1983 11.225C18.9054 11.5179 18.4305 11.5179 18.1376 11.225C17.8447 10.9321 17.8447 10.4572 18.1376 10.1643L20.274 8.02799L18.1376 5.89166C17.8447 5.59877 17.8447 5.12389 18.1376 4.831Z" fill="#00060F"/>
<path fill-rule="evenodd" clip-rule="evenodd" d="M25.1803 10.165C25.4732 9.87209 25.9481 9.87209 26.241 10.165C27.7879 11.7119 28.7513 13.8493 28.7513 16.202C28.7513 20.9055 24.9062 24.7506 20.2026 24.7506L20.2004 24.7506L10.6658 24.7226C10.2516 24.7214 9.91676 24.3847 9.91797 23.9704C9.91919 23.5562 10.256 23.2214 10.6702 23.2226L20.2026 23.2506C20.203 23.2506 20.2034 23.2506 20.2038 23.2506C24.0784 23.25 27.2513 20.0767 27.2513 16.202C27.2513 14.2666 26.46 12.5053 25.1803 11.2256C24.8874 10.9327 24.8874 10.4579 25.1803 10.165Z" fill="#00060F"/>
<path fill-rule="evenodd" clip-rule="evenodd" d="M13.865 20.7744C14.1579 21.0673 14.1579 21.5421 13.865 21.835L11.7286 23.9714L13.865 26.1077C14.1579 26.4006 14.1579 26.8755 13.865 27.1684C13.5721 27.4612 13.0972 27.4612 12.8043 27.1684L10.1376 24.5017C9.84475 24.2088 9.84475 23.7339 10.1376 23.441L12.8043 20.7744C13.0972 20.4815 13.5721 20.4815 13.865 20.7744Z" fill="#00060F"/>
</svg>
