<svg xmlns="http://www.w3.org/2000/svg" width="16" height="16" fill="none"><path fill="#fff" d="M2.74 5.9c0 .45.38.83.84.83.46 0 .84-.38.84-.83a.85.85 0 0 0-.84-.84.85.85 0 0 0-.84.84Zm9.68-.84c.46 0 .84.38.84.84 0 .45-.38.83-.84.83a.85.85 0 0 1-.84-.83c0-.46.37-.84.84-.84ZM0 2.37v7.05c0 .76.62 1.37 1.39 1.37H14.6c.77 0 1.39-.61 1.39-1.37V2.37C16 1.61 15.38 1 14.61 1H1.4C.62 1 0 1.61 0 2.37Zm1.19 1.48c.1.04.22.04.34.04A1.4 1.4 0 0 0 2.9 2.16H13.2c-.02.09-.02.16-.02.25 0 .76.62 1.39 1.4 1.39.1 0 .17 0 .24-.02v4.23c-.07-.02-.16-.02-.23-.02a1.4 1.4 0 0 0-1.4 1.64H2.93l.02-.18c0-.75-.62-1.39-1.4-1.39-.13 0-.24.02-.35.04V3.85ZM.6 11.73h14.8c.33 0 .58.25.58.58 0 .32-.27.58-.6.58H.58A.57.57 0 0 1 0 12.3c0-.33.27-.58.6-.58Zm0 2.11h14.8c.33 0 .58.26.58.58 0 .33-.25.58-.58.58H.6a.57.57 0 0 1-.58-.58c0-.32.25-.58.58-.58ZM4.97 5.9A3 3 0 0 0 8 8.9a3 3 0 0 0 3.03-3A3 3 0 0 0 8 2.9a3 3 0 0 0-3.03 3Zm1.28 0c0-.96.78-1.74 1.75-1.74s1.75.78 1.75 1.74c0 .95-.78 1.73-1.75 1.73S6.25 6.85 6.25 5.9Z"/></svg>