<svg width="16" height="16" viewBox="0 0 16 16" fill="none" xmlns="http://www.w3.org/2000/svg">
<path d="M6.72952 14.6626H4.17759L4.17759 2.58072L5.86537 4.26056C6.12783 4.52178 6.55338 4.52178 6.81557 4.26056C6.9467 4.13005 7.01231 3.95889 7.01231 3.78765C7.01231 3.6165 6.9466 3.44556 6.81557 3.31474L3.98095 0.492967C3.97677 0.488807 3.97172 0.486097 3.96783 0.481937C3.94032 0.456104 3.91135 0.431435 3.87976 0.410345C3.86897 0.403186 3.85672 0.398445 3.84545 0.391576C3.8192 0.376096 3.79286 0.360712 3.76447 0.348521C3.75048 0.34262 3.7355 0.3402 3.72151 0.33517C3.69429 0.325979 3.66746 0.316111 3.63908 0.310209C3.59582 0.301599 3.5513 0.296859 3.5062 0.296859C3.46109 0.296859 3.41657 0.301599 3.37332 0.310209C3.34435 0.316111 3.31752 0.32627 3.29031 0.33546C3.27631 0.340201 3.26163 0.34262 3.24792 0.348521C3.21808 0.360711 3.19057 0.377353 3.16316 0.393413C3.15305 0.399314 3.14226 0.403184 3.13244 0.410053C3.0957 0.434434 3.06168 0.462395 3.03096 0.492968L0.196844 3.31375C-0.0656147 3.57497 -0.0656147 3.99825 0.196844 4.25947C0.459004 4.5207 0.884582 4.5207 1.14704 4.25947L2.83452 2.57993L2.83423 15.3313C2.83423 15.7004 3.13499 16 3.50612 16H6.72993C7.10106 16 7.40181 15.7004 7.40181 15.3313C7.40191 14.9622 7.10086 14.6626 6.72973 14.6626L6.72952 14.6626ZM8.59821 0.668668C8.59821 1.03775 8.89896 1.33739 9.27009 1.33739H11.822L11.822 13.4193L10.1342 11.7394C9.87178 11.4782 9.44623 11.4782 9.18404 11.7394C8.92158 12.0007 8.92188 12.4239 9.18404 12.6852L12.0187 15.5069C12.0225 15.5111 12.0276 15.5135 12.0315 15.5174C12.059 15.5435 12.088 15.5685 12.1198 15.5896C12.1303 15.5964 12.1419 15.6009 12.1527 15.6074C12.1795 15.6234 12.2062 15.6392 12.2351 15.6511C12.2488 15.657 12.2635 15.6594 12.2772 15.6641C12.3047 15.6733 12.3319 15.6835 12.3605 15.6894C12.4042 15.698 12.4483 15.7027 12.4934 15.7027C12.5385 15.7027 12.5827 15.698 12.6263 15.6894C12.6553 15.6835 12.6828 15.6733 12.7102 15.6641C12.7239 15.6594 12.7383 15.6567 12.7517 15.6511C12.7821 15.6386 12.8099 15.622 12.838 15.6056C12.8475 15.5997 12.858 15.5958 12.8673 15.5896C12.904 15.5652 12.938 15.5375 12.9691 15.5066L15.8033 12.6859C15.9344 12.5553 16 12.3842 16 12.2129C16 12.0418 15.9343 11.8709 15.8033 11.74C15.5411 11.4788 15.1155 11.4788 14.8531 11.74L13.1657 13.4196L13.1657 0.668725C13.1657 0.299639 12.8649 0 12.4938 0H9.26995C8.89882 0 8.59807 0.299639 8.59807 0.668725L8.59821 0.668668Z" fill="#E6E6E6" fill-opacity="0.7"/>
</svg>
