<svg width="32" height="32" viewBox="0 0 32 32" fill="none" xmlns="http://www.w3.org/2000/svg">
<path fill-rule="evenodd" clip-rule="evenodd" d="M15.5863 4.92233C15.8165 4.69218 16.1877 4.69316 16.4157 4.92165L16.4163 4.92233L18.7563 7.26233C19.1472 7.65318 19.6778 7.874 20.232 7.874H23.5413C23.8658 7.874 24.1287 8.13688 24.1287 8.46133V11.7707C24.1287 12.3249 24.3495 12.8555 24.7403 13.2463L27.0803 15.5863C27.3105 15.8165 27.3095 16.1877 27.081 16.4157L27.0803 16.4163L24.7403 18.7563C24.3495 19.1472 24.1287 19.6778 24.1287 20.232V23.5413C24.1287 23.8658 23.8658 24.1287 23.5413 24.1287H20.232C19.6778 24.1287 19.1472 24.3495 18.7563 24.7403L16.4163 27.0803C16.1862 27.3105 15.8149 27.3095 15.587 27.081L15.5863 27.0803L13.2491 24.7431L13.2476 24.7416C12.8538 24.3444 12.322 24.126 11.7693 24.126H8.46133C8.13688 24.126 7.874 23.8631 7.874 23.5387V20.2293C7.874 19.6751 7.65318 19.1445 7.26233 18.7537L4.92233 16.4137C4.69218 16.1835 4.69316 15.8123 4.92165 15.5843L4.92233 15.5837L7.28633 13.2197C7.66288 12.8431 7.874 12.3337 7.874 11.8013V8.46133C7.874 8.13688 8.13688 7.874 8.46133 7.874H11.7707C12.3249 7.874 12.8555 7.65318 13.2463 7.26233L15.5863 4.92233ZM17.4777 3.86235L17.4774 3.86208C16.6626 3.04551 15.3408 3.04657 14.5257 3.86167L12.1857 6.20167C12.0752 6.31216 11.9258 6.374 11.7707 6.374H8.46133C7.30845 6.374 6.374 7.30845 6.374 8.46133V11.8013C6.374 11.9356 6.32112 12.0636 6.22567 12.159L3.86235 14.5223L3.8621 14.5226C3.04551 15.3373 3.04657 16.6592 3.86167 17.4743L6.20167 19.8143C6.31216 19.9248 6.374 20.0742 6.374 20.2293V23.5387C6.374 24.6915 7.30845 25.626 8.46133 25.626H11.7693C11.9253 25.626 12.0729 25.687 12.1829 25.7982L12.1857 25.801L14.525 28.1403C15.3397 28.9572 16.6618 28.9562 17.477 28.141L19.817 25.801C19.9275 25.6905 20.0769 25.6287 20.232 25.6287H23.5413C24.6942 25.6287 25.6287 24.6942 25.6287 23.5413V20.232C25.6287 20.0769 25.6905 19.9275 25.801 19.817L28.1403 17.4777C28.9572 16.6629 28.9562 15.3409 28.141 14.5257L25.801 12.1857C25.6905 12.0752 25.6287 11.9258 25.6287 11.7707V8.46133C25.6287 7.30845 24.6942 6.374 23.5413 6.374H20.232C20.0769 6.374 19.9275 6.31216 19.817 6.20167L17.4777 3.86235ZM16.5762 16.6266C17.7594 15.4433 18.1387 13.7753 17.7699 12.2404C18.1787 12.4417 18.5619 12.711 18.9038 13.0522C20.5973 14.7461 20.6133 17.4308 18.9968 19.0473C17.3801 20.6639 14.6965 20.649 13.0015 18.9539C12.6604 18.6128 12.3914 18.2298 12.1903 17.8212C13.7241 18.1903 15.3925 17.8102 16.5762 16.6266ZM17.3155 10.4796C16.8955 10.3707 16.4964 10.5299 16.2532 10.8003C16.0052 11.0763 15.8834 11.5141 16.083 11.9378C16.6615 13.1765 16.458 14.6234 15.5155 15.5659C14.5713 16.5101 13.1231 16.7128 11.888 16.1337C11.4641 15.9337 11.026 16.0555 10.75 16.3032C10.4794 16.5459 10.3189 16.9459 10.4296 17.3673C10.681 18.329 11.1753 19.249 11.9408 20.0146C14.1951 22.2689 17.8288 22.3366 20.0575 20.1079C22.2863 17.8791 22.217 14.2441 19.9642 11.9913L19.9636 11.9907C19.1989 11.2276 18.2807 10.7316 17.3166 10.4799L17.3155 10.4796Z" fill="#00060F"/>
</svg>
