<svg width="32" height="32" viewBox="0 0 32 32" fill="none" xmlns="http://www.w3.org/2000/svg">
<path fill-rule="evenodd" clip-rule="evenodd" d="M13.2966 4.25C12.8823 4.25 12.5466 4.58579 12.5466 5C12.5466 5.41421 12.8823 5.75 13.2966 5.75H18.6031C19.0173 5.75 19.3531 5.41421 19.3531 5C19.3531 4.58579 19.0173 4.25 18.6031 4.25H13.2966ZM5.25 8.66797C5.25 8.25376 5.58579 7.91797 6 7.91797H7.98828H23.9078H25.8994C26.3137 7.91797 26.6494 8.25376 26.6494 8.66797C26.6494 9.08218 26.3137 9.41797 25.8994 9.41797H24.6578V24.2489C24.6578 26.2469 22.8917 27.7484 20.8977 27.7484H10.948C8.93537 27.7484 7.23828 26.2309 7.23828 24.2489V9.41797H6C5.58579 9.41797 5.25 9.08218 5.25 8.66797ZM8.73828 24.2489V9.41797H23.1578V24.2489C23.1578 25.2888 22.1991 26.2484 20.8977 26.2484H10.948C9.66261 26.2484 8.73828 25.3048 8.73828 24.2489ZM18.6047 12.8066C19.0189 12.8066 19.3547 13.1424 19.3547 13.5566V22.1109C19.3547 22.5251 19.0189 22.8609 18.6047 22.8609C18.1905 22.8609 17.8547 22.5251 17.8547 22.1109V13.5566C17.8547 13.1424 18.1905 12.8066 18.6047 12.8066ZM14.0461 13.5566C14.0461 13.1424 13.7103 12.8066 13.2961 12.8066C12.8819 12.8066 12.5461 13.1424 12.5461 13.5566V22.1109C12.5461 22.5251 12.8819 22.8609 13.2961 22.8609C13.7103 22.8609 14.0461 22.5251 14.0461 22.1109V13.5566Z" fill="#00060F"/>
</svg>
