<svg width="16" height="16" viewBox="0 0 16 16" fill="none" xmlns="http://www.w3.org/2000/svg">
<path fill-rule="evenodd" clip-rule="evenodd" d="M8.00016 2.66536C6.15921 2.66536 4.66683 4.15775 4.66683 5.9987C4.66683 7.83965 6.15921 9.33203 8.00016 9.33203C9.84111 9.33203 11.3335 7.83965 11.3335 5.9987C11.3335 4.15775 9.84111 2.66536 8.00016 2.66536ZM3.3335 5.9987C3.3335 3.42137 5.42283 1.33203 8.00016 1.33203C10.5775 1.33203 12.6668 3.42137 12.6668 5.9987C12.6668 8.57603 10.5775 10.6654 8.00016 10.6654C5.42283 10.6654 3.3335 8.57603 3.3335 5.9987Z" fill="#7F7F7F"/>
<path fill-rule="evenodd" clip-rule="evenodd" d="M8.00005 10.6654C6.88821 10.6654 5.79594 10.9579 4.83297 11.5137C3.87 12.0695 3.07025 12.8689 2.51405 13.8316C2.32986 14.1504 1.92211 14.2596 1.6033 14.0754C1.28449 13.8912 1.17536 13.4834 1.35954 13.1646C2.03279 11.9993 3.00086 11.0316 4.16648 10.3589C5.3321 9.68617 6.65423 9.33202 8.00006 9.33203C9.34589 9.33205 10.668 9.68622 11.8336 10.359C12.9992 11.0318 13.9673 11.9994 14.6405 13.1647C14.8247 13.4836 14.7155 13.8913 14.3967 14.0755C14.0779 14.2597 13.6702 14.1505 13.486 13.8317C12.9298 12.869 12.1301 12.0696 11.1671 11.5138C10.2042 10.958 9.11189 10.6654 8.00005 10.6654Z" fill="#7F7F7F"/>
</svg>
