<svg xmlns="http://www.w3.org/2000/svg" fill="none" viewBox="0 0 24 24">
  <g clip-path="url(#a)">
    <path fill="#F0F0F0" d="M12 24a12 12 0 1 0 0-24 12 12 0 0 0 0 24Z"/>
    <path fill="#0052B4" d="M23.25 16.17a11.97 11.97 0 0 0 0-8.34H.75a11.97 11.97 0 0 0 0 8.34L12 17.22l11.25-1.05Z"/>
    <path fill="#D80027" d="M12 24a12 12 0 0 0 11.25-7.83H.75A12 12 0 0 0 12 24Z"/>
    <path fill="url(#b)" d="M0 0h24v24H0z" opacity=".5"/>
  </g>
  <defs>
    <linearGradient id="b" x1="0" x2="25.88" y1="5.24" y2="12.01" gradientUnits="userSpaceOnUse">
      <stop stop-color="#D9D9D9" stop-opacity="0"/>
      <stop offset=".29" stop-color="#D9D9D9"/>
      <stop offset=".54" stop-color="#D9D9D9" stop-opacity="0"/>
      <stop offset=".78" stop-color="#D9D9D9"/>
      <stop offset="1" stop-color="#D9D9D9" stop-opacity="0"/>
    </linearGradient>
    <clipPath id="a">
      <rect width="24" height="24" fill="#fff" rx="12"/>
    </clipPath>
  </defs>
</svg>
