<svg width="48" height="48" viewBox="0 0 48 48" fill="none" xmlns="http://www.w3.org/2000/svg">
<path d="M15.757 26.7757C16.9065 26.7757 18.028 26.3925 18.9346 25.6916L11.6449 18.4019C9.88785 20.6729 10.3084 23.9439 12.5794 25.7009C13.4953 26.3925 14.6075 26.7757 15.757 26.7757Z" fill="#486858"/>
<path d="M37.4393 21.5701C37.4393 20.4206 37.0561 19.2991 36.3551 18.3926L29.0654 25.6823C31.3365 27.4393 34.5981 27.0187 36.3551 24.7477C37.0561 23.8412 37.4393 22.7197 37.4393 21.5701Z" fill="#486858"/>
<path d="M41.1122 13.6355L37.8879 16.8598C40.486 19.9719 40.0748 24.6075 36.9626 27.2056C34.2336 29.486 30.271 29.486 27.5421 27.2056L24 30.7476L20.4673 27.2149C17.3551 29.8131 12.7196 29.4019 10.1215 26.2897C7.84112 23.5607 7.84112 19.5981 10.1215 16.8691L8.46729 15.2149L6.8972 13.6355C5 16.757 4 20.3458 4 24C4 35.0467 12.9533 44 24 44C35.0467 44 44 35.0467 44 24C44.0093 20.3458 43 16.757 41.1122 13.6355Z" fill="#486858"/>
<path d="M38.4673 10.1961C30.8505 2.20549 18.1963 1.90643 10.2056 9.52325C9.97198 9.74755 9.74768 9.97185 9.53273 10.1961C9.0374 10.7195 8.57011 11.2616 8.13086 11.8317L24 27.7102L39.8692 11.8317C39.4393 11.2616 38.9626 10.7195 38.4673 10.1961ZM24 6.61671C28.6729 6.61671 33.0281 8.42045 36.2991 11.7102L24 24.0092L11.701 11.7102C14.972 8.42045 19.3271 6.61671 24 6.61671Z" fill="#486858"/>
</svg>
