<svg width="48" height="48" viewBox="0 0 48 48" fill="none" xmlns="http://www.w3.org/2000/svg">
    <g filter="url(#filter0_ii_1786_22541)">
        <path d="M15.7569 27.1332C16.9064 27.1332 18.0279 26.7439 18.9344 26.032L11.6447 18.6274C10.8013 19.7367 10.426 21.1408 10.6013 22.5309C10.7765 23.9212 11.488 25.1838 12.5793 26.0415C13.4952 26.7439 14.6074 27.1332 15.7569 27.1332Z" fill="url(#paint0_linear_1786_22541)"/>
    </g>
    <g filter="url(#filter1_ii_1786_22541)">
        <path d="M37.4392 21.8453C37.4392 20.6777 37.0561 19.5385 36.3551 18.6177L29.0654 26.0222C29.8339 26.626 30.7538 26.9988 31.7205 27.0982C32.6871 27.1977 33.6618 27.0198 34.534 26.5848C35.4061 26.1497 36.1406 25.475 36.6542 24.6373C37.1678 23.7995 37.4397 22.8322 37.4392 21.8453Z" fill="url(#paint1_linear_1786_22541)"/>
    </g>
    <g filter="url(#filter2_i_1786_22541)">
        <path d="M41.1122 13.7859L37.8879 17.0609C40.4858 20.2221 40.0747 24.9307 36.9626 27.5697C35.6418 28.6921 33.9745 29.307 32.2524 29.307C30.5303 29.307 28.8629 28.6921 27.5421 27.5697L24 31.1675L20.4673 27.5792C17.3552 30.2182 12.7196 29.8006 10.1215 26.6394C9.01655 25.2977 8.41111 23.6042 8.41111 21.8549C8.41111 20.1057 9.01655 18.4121 10.1215 17.0705L8.46728 15.3902L6.8972 13.7859C5 16.9566 4 20.6019 4 24.3136C4 35.5343 12.9533 44.6288 24 44.6288C35.0468 44.6288 43.9999 35.5343 43.9999 24.3136C44.0093 20.6019 42.9999 16.9566 41.1122 13.7859Z" fill="url(#paint2_linear_1786_22541)"/>
        <path d="M41.1122 13.7859L37.8879 17.0609C40.4858 20.2221 40.0747 24.9307 36.9626 27.5697C35.6418 28.6921 33.9745 29.307 32.2524 29.307C30.5303 29.307 28.8629 28.6921 27.5421 27.5697L24 31.1675L20.4673 27.5792C17.3552 30.2182 12.7196 29.8006 10.1215 26.6394C9.01655 25.2977 8.41111 23.6042 8.41111 21.8549C8.41111 20.1057 9.01655 18.4121 10.1215 17.0705L8.46728 15.3902L6.8972 13.7859C5 16.9566 4 20.6019 4 24.3136C4 35.5343 12.9533 44.6288 24 44.6288C35.0468 44.6288 43.9999 35.5343 43.9999 24.3136C44.0093 20.6019 42.9999 16.9566 41.1122 13.7859Z" fill="url(#paint3_radial_1786_22541)"/>
    </g>
    <g filter="url(#filter3_ii_1786_22541)">
        <path d="M38.4673 10.2925C30.8505 2.176 18.1963 1.87222 10.2056 9.60897C9.97196 9.83686 9.74771 10.0647 9.53272 10.2925C9.03804 10.8218 8.57012 11.3762 8.13086 11.9538L24 28.0823L39.8692 11.9538C39.4393 11.3747 38.9627 10.8241 38.4673 10.2925ZM24 6.65668C28.6729 6.65668 33.028 8.48883 36.2991 11.8303L24 24.3231L11.7009 11.8303C14.972 8.48883 19.3271 6.65668 24 6.65668Z" fill="url(#paint4_linear_1786_22541)"/>
    </g>
    <defs>
        <filter id="filter0_ii_1786_22541" x="10.5591" y="14.6274" width="8.37524" height="16.5057" filterUnits="userSpaceOnUse" color-interpolation-filters="sRGB">
            <feFlood flood-opacity="0" result="BackgroundImageFix"/>
            <feBlend mode="normal" in="SourceGraphic" in2="BackgroundImageFix" result="shape"/>
            <feColorMatrix in="SourceAlpha" type="matrix" values="0 0 0 0 0 0 0 0 0 0 0 0 0 0 0 0 0 0 127 0" result="hardAlpha"/>
            <feOffset dy="4"/>
            <feGaussianBlur stdDeviation="2"/>
            <feComposite in2="hardAlpha" operator="arithmetic" k2="-1" k3="1"/>
            <feColorMatrix type="matrix" values="0 0 0 0 0.796078 0 0 0 0 0.968627 0 0 0 0 0.992157 0 0 0 0.3 0"/>
            <feBlend mode="normal" in2="shape" result="effect1_innerShadow_1786_22541"/>
            <feColorMatrix in="SourceAlpha" type="matrix" values="0 0 0 0 0 0 0 0 0 0 0 0 0 0 0 0 0 0 127 0" result="hardAlpha"/>
            <feOffset dy="-6"/>
            <feGaussianBlur stdDeviation="2"/>
            <feComposite in2="hardAlpha" operator="arithmetic" k2="-1" k3="1"/>
            <feColorMatrix type="matrix" values="0 0 0 0 0.521569 0 0 0 0 0.615686 0 0 0 0 0.87451 0 0 0 0.3 0"/>
            <feBlend mode="normal" in2="effect1_innerShadow_1786_22541" result="effect2_innerShadow_1786_22541"/>
        </filter>
        <filter id="filter1_ii_1786_22541" x="29.0654" y="14.6177" width="8.37378" height="16.5074" filterUnits="userSpaceOnUse" color-interpolation-filters="sRGB">
            <feFlood flood-opacity="0" result="BackgroundImageFix"/>
            <feBlend mode="normal" in="SourceGraphic" in2="BackgroundImageFix" result="shape"/>
            <feColorMatrix in="SourceAlpha" type="matrix" values="0 0 0 0 0 0 0 0 0 0 0 0 0 0 0 0 0 0 127 0" result="hardAlpha"/>
            <feOffset dy="4"/>
            <feGaussianBlur stdDeviation="2"/>
            <feComposite in2="hardAlpha" operator="arithmetic" k2="-1" k3="1"/>
            <feColorMatrix type="matrix" values="0 0 0 0 0.796078 0 0 0 0 0.968627 0 0 0 0 0.992157 0 0 0 0.3 0"/>
            <feBlend mode="normal" in2="shape" result="effect1_innerShadow_1786_22541"/>
            <feColorMatrix in="SourceAlpha" type="matrix" values="0 0 0 0 0 0 0 0 0 0 0 0 0 0 0 0 0 0 127 0" result="hardAlpha"/>
            <feOffset dy="-6"/>
            <feGaussianBlur stdDeviation="2"/>
            <feComposite in2="hardAlpha" operator="arithmetic" k2="-1" k3="1"/>
            <feColorMatrix type="matrix" values="0 0 0 0 0.521569 0 0 0 0 0.615686 0 0 0 0 0.87451 0 0 0 0.3 0"/>
            <feBlend mode="normal" in2="effect1_innerShadow_1786_22541" result="effect2_innerShadow_1786_22541"/>
        </filter>
        <filter id="filter2_i_1786_22541" x="4" y="9.78589" width="40" height="34.8429" filterUnits="userSpaceOnUse" color-interpolation-filters="sRGB">
            <feFlood flood-opacity="0" result="BackgroundImageFix"/>
            <feBlend mode="normal" in="SourceGraphic" in2="BackgroundImageFix" result="shape"/>
            <feColorMatrix in="SourceAlpha" type="matrix" values="0 0 0 0 0 0 0 0 0 0 0 0 0 0 0 0 0 0 127 0" result="hardAlpha"/>
            <feOffset dy="-6"/>
            <feGaussianBlur stdDeviation="2"/>
            <feComposite in2="hardAlpha" operator="arithmetic" k2="-1" k3="1"/>
            <feColorMatrix type="matrix" values="0 0 0 0 0.521569 0 0 0 0 0.615686 0 0 0 0 0.87451 0 0 0 0.3 0"/>
            <feBlend mode="normal" in2="shape" result="effect1_innerShadow_1786_22541"/>
        </filter>
        <filter id="filter3_ii_1786_22541" x="8.13086" y="0" width="31.7383" height="32.0823" filterUnits="userSpaceOnUse" color-interpolation-filters="sRGB">
            <feFlood flood-opacity="0" result="BackgroundImageFix"/>
            <feBlend mode="normal" in="SourceGraphic" in2="BackgroundImageFix" result="shape"/>
            <feColorMatrix in="SourceAlpha" type="matrix" values="0 0 0 0 0 0 0 0 0 0 0 0 0 0 0 0 0 0 127 0" result="hardAlpha"/>
            <feOffset dy="4"/>
            <feGaussianBlur stdDeviation="2"/>
            <feComposite in2="hardAlpha" operator="arithmetic" k2="-1" k3="1"/>
            <feColorMatrix type="matrix" values="0 0 0 0 0.796078 0 0 0 0 0.968627 0 0 0 0 0.992157 0 0 0 0.3 0"/>
            <feBlend mode="normal" in2="shape" result="effect1_innerShadow_1786_22541"/>
            <feColorMatrix in="SourceAlpha" type="matrix" values="0 0 0 0 0 0 0 0 0 0 0 0 0 0 0 0 0 0 127 0" result="hardAlpha"/>
            <feOffset dy="-6"/>
            <feGaussianBlur stdDeviation="2"/>
            <feComposite in2="hardAlpha" operator="arithmetic" k2="-1" k3="1"/>
            <feColorMatrix type="matrix" values="0 0 0 0 0.521569 0 0 0 0 0.615686 0 0 0 0 0.87451 0 0 0 0.3 0"/>
            <feBlend mode="normal" in2="effect1_innerShadow_1786_22541" result="effect2_innerShadow_1786_22541"/>
        </filter>
        <linearGradient id="paint0_linear_1786_22541" x1="10.5186" y1="18.6206" x2="19.9023" y2="28.4887" gradientUnits="userSpaceOnUse">
            <stop stop-color="#61C0F5"/>
            <stop offset="1" stop-color="#5B87F0"/>
        </linearGradient>
        <linearGradient id="paint1_linear_1786_22541" x1="37.4799" y1="18.6205" x2="29.022" y2="27.1675" gradientUnits="userSpaceOnUse">
            <stop stop-color="#61C0F5"/>
            <stop offset="1" stop-color="#5678EF"/>
        </linearGradient>
        <linearGradient id="paint2_linear_1786_22541" x1="23.9993" y1="27.2111" x2="23.9994" y2="53.1591" gradientUnits="userSpaceOnUse">
            <stop stop-color="#4AB0F9"/>
            <stop offset="1" stop-color="#00408C"/>
        </linearGradient>
        <radialGradient id="paint3_radial_1786_22541" cx="0" cy="0" r="1" gradientUnits="userSpaceOnUse" gradientTransform="translate(23.9993 31.3081) rotate(90) scale(13.789 17.8829)">
            <stop offset="0.555" stop-color="#508BFD"/>
            <stop offset="1" stop-color="#3DA7FF" stop-opacity="0"/>
        </radialGradient>
        <linearGradient id="paint4_linear_1786_22541" x1="23.9994" y1="6.50559" x2="24" y2="28.0823" gradientUnits="userSpaceOnUse">
            <stop stop-color="#52BCF7"/>
            <stop offset="0.97" stop-color="#6789F5"/>
        </linearGradient>
    </defs>
</svg>
