<svg viewBox="0 0 85 120" fill="none" xmlns="http://www.w3.org/2000/svg">
    <path opacity="0.62" d="M24.3485 94.7253L39.4449 76.1638C41.0212 74.2258 43.9886 74.2258 45.5648 76.1638L60.6613 94.7253C61.8356 96.1698 61.8356 98.2339 60.6613 99.6784L45.5648 118.24C43.9886 120.178 41.0212 120.178 39.4449 118.24L24.3485 99.6784C23.1742 98.2339 23.1742 96.1698 24.3485 94.7253Z" fill="#2DB1FF"/>
    <path d="M47.8065 49.3347L62.903 30.7732C64.4792 28.8352 67.4466 28.8352 69.0228 30.7732L84.1193 49.3347C85.2936 50.7791 85.2936 52.8433 84.1193 54.2877L69.0228 72.8493C67.4466 74.7872 64.4792 74.7872 62.903 72.8493L47.8065 54.2877C46.6322 52.8433 46.6322 50.7791 47.8065 49.3347Z" fill="#2DB1FF"/>
    <path d="M0.895369 49.3347L15.9918 30.7732C17.5681 28.8352 20.5354 28.8352 22.1117 30.7732L37.2081 49.3347C38.3824 50.7791 38.3824 52.8433 37.2081 54.2877L22.1117 72.8493C20.5354 74.7872 17.5681 74.7872 15.9918 72.8493L0.895369 54.2877C-0.278925 52.8433 -0.278925 50.7791 0.895369 49.3347Z" fill="#2DB1FF"/>
    <path d="M24.3485 20.3221L39.4449 1.75827C41.0212 -0.179678 43.9886 -0.179678 45.5648 1.75827L60.6613 20.3198C61.8356 21.7643 61.8356 23.8284 60.6613 25.2728L45.5648 43.8344C43.9886 45.7723 41.0212 45.7723 39.4449 43.8344L24.3485 25.2751C23.1742 23.8307 23.1742 21.7643 24.3485 20.3221Z" fill="#2DB1FF"/>
</svg>
