<svg xmlns="http://www.w3.org/2000/svg" fill="none" viewBox="0 0 24 24">
  <g clip-path="url(#a)">
    <path fill="#FFDA44" d="M.75 16.17a12 12 0 0 0 22.5 0L12 15.13.75 16.17Z"/>
    <path fill="#000" d="M12 0A12 12 0 0 0 .75 7.83L12 8.87l11.25-1.04A12 12 0 0 0 12 0Z"/>
    <path fill="#D80027" d="M.75 7.83a11.97 11.97 0 0 0 0 8.34h22.5a11.98 11.98 0 0 0 0-8.34H.75Z"/>
    <path fill="url(#b)" d="M0 0h24v24H0z" opacity=".5"/>
  </g>
  <defs>
    <linearGradient id="b" x1="0" x2="25.88" y1="5.24" y2="12.01" gradientUnits="userSpaceOnUse">
      <stop stop-color="#D9D9D9" stop-opacity="0"/>
      <stop offset=".29" stop-color="#D9D9D9"/>
      <stop offset=".54" stop-color="#D9D9D9" stop-opacity="0"/>
      <stop offset=".78" stop-color="#D9D9D9"/>
      <stop offset="1" stop-color="#D9D9D9" stop-opacity="0"/>
    </linearGradient>
    <clipPath id="a">
      <rect width="24" height="24" fill="#fff" rx="12"/>
    </clipPath>
  </defs>
</svg>
