<svg width="32" height="32" viewBox="0 0 32 32" fill="none" xmlns="http://www.w3.org/2000/svg">
<g clip-path="url(#clip0_1890_28600)">
<path d="M15.5553 8.13124C15.5553 8.23381 15.4527 8.23381 15.4527 8.23381H15.3501C15.2476 8.23381 15.2476 8.13124 15.145 8.02868C15.145 8.02868 15.0425 7.92611 15.0425 7.82355C15.0425 7.72099 15.0425 7.72099 15.145 7.72099L15.3501 7.82355C15.4527 7.92611 15.5553 8.02868 15.5553 8.13124ZM13.7091 7.1056C13.7091 6.59278 13.504 6.28509 13.1963 6.28509C13.1963 6.28509 13.1963 6.38765 13.0937 6.38765V6.59278H13.4014C13.4014 6.79791 13.504 6.90047 13.504 7.1056H13.7091ZM17.2989 6.59278C17.504 6.59278 17.6066 6.79791 17.7091 7.1056H17.9142C17.8117 7.00304 17.8117 6.90047 17.8117 6.79791C17.8117 6.69534 17.8117 6.59278 17.7091 6.49022C17.6066 6.38765 17.504 6.28509 17.4014 6.28509C17.4014 6.28509 17.2989 6.38765 17.1963 6.38765C17.1963 6.49022 17.2989 6.49022 17.2989 6.59278ZM14.2219 8.23381C14.1194 8.23381 14.1194 8.23381 14.1194 8.13124C14.1194 8.02868 14.1194 7.92611 14.2219 7.82355C14.4271 7.82355 14.5296 7.72099 14.5296 7.72099C14.6322 7.72099 14.6322 7.82355 14.6322 7.82355C14.6322 7.92611 14.5296 8.02868 14.3245 8.23381H14.2219ZM13.0937 8.13124C12.6835 7.92611 12.5809 7.61842 12.5809 7.1056C12.5809 6.79791 12.5809 6.59278 12.786 6.38765C12.8886 6.18252 13.0937 6.07996 13.2989 6.07996C13.504 6.07996 13.6066 6.18252 13.8117 6.38765C13.9142 6.69534 14.0168 7.00304 14.0168 7.31073V7.51586H14.1194V7.41329C14.2219 7.41329 14.2219 7.20817 14.2219 6.79791C14.2219 6.49022 14.2219 6.18252 14.0168 5.87483C13.8117 5.56714 13.6066 5.36201 13.1963 5.36201C12.8886 5.36201 12.5809 5.56714 12.4783 5.87483C12.2732 6.28509 12.2322 6.59278 12.2322 7.1056C12.2322 7.51586 12.3758 7.92611 12.786 8.33637C12.8886 8.23381 12.9912 8.23381 13.0937 8.13124ZM25.9142 22.5928C26.0168 22.5928 26.0168 22.5518 26.0168 22.4594C26.0168 22.2338 25.9142 21.9671 25.6066 21.6697C25.2989 21.362 24.786 21.1671 24.1707 21.0851C24.0681 21.0748 23.9655 21.0748 23.9655 21.0748C23.863 21.0543 23.863 21.0543 23.7604 21.0543C23.6578 21.0441 23.4527 21.0236 23.3501 21.003C23.6578 20.0492 23.7604 19.2082 23.7604 18.4697C23.7604 17.4441 23.5553 16.7261 23.145 16.1107C22.7348 15.4953 22.3245 15.1877 21.8117 15.0851C21.7091 15.1877 21.7091 15.1877 21.7091 15.2902C22.2219 15.4953 22.7348 15.9056 23.0425 16.521C23.3501 17.2389 23.4527 17.8543 23.4527 18.5723C23.4527 19.1466 23.3501 19.9979 22.9399 21.0851C22.5296 21.2492 22.1194 21.6287 21.8117 22.2236C21.8117 22.3159 21.8117 22.3671 21.9142 22.3671C21.9142 22.3671 22.0168 22.2748 22.1194 22.1005C22.3245 21.9261 22.4271 21.7518 22.6322 21.5774C22.9399 21.403 23.145 21.3107 23.4527 21.3107C23.9655 21.3107 24.4783 21.3825 24.786 21.5261C25.1963 21.6594 25.4014 21.803 25.504 21.9671C25.6066 22.121 25.7091 22.2646 25.8117 22.3979C25.8117 22.5312 25.9142 22.5928 25.9142 22.5928ZM16.4783 7.72099C16.3758 7.61842 16.3758 7.41329 16.3758 7.20817C16.3758 6.79791 16.3758 6.59278 16.5809 6.28509C16.786 6.07996 16.9912 5.9774 17.1963 5.9774C17.504 5.9774 17.7091 6.18252 17.9142 6.38765C18.0168 6.69534 18.1194 6.90047 18.1194 7.20817C18.1194 7.72099 17.9142 8.02868 17.504 8.13124C17.504 8.13124 17.6066 8.23381 17.7091 8.23381C17.9142 8.23381 18.0168 8.33637 18.2219 8.43893C18.3245 7.82355 18.4271 7.41329 18.4271 6.90047C18.4271 6.28509 18.3245 5.87483 18.1194 5.56714C17.8117 5.25945 17.504 5.15688 17.0937 5.15688C16.786 5.15688 16.4783 5.25945 16.1707 5.46458C15.9655 5.77227 15.863 5.9774 15.863 6.28509C15.863 6.79791 15.9655 7.20817 16.1707 7.61842C16.2732 7.61842 16.3758 7.72099 16.4783 7.72099ZM17.7091 9.36201C16.3758 10.2851 15.3501 10.6953 14.5296 10.6953C13.8117 10.6953 13.0937 10.3877 12.4783 9.87483C12.5809 10.08 12.6835 10.2851 12.786 10.3877L13.4014 11.003C13.8117 11.4133 14.3245 11.6184 14.8373 11.6184C15.5553 11.6184 16.3758 11.2082 17.4014 10.4902L18.3245 9.87483C18.5296 9.6697 18.7348 9.46458 18.7348 9.15688C18.7348 9.05432 18.7348 8.95175 18.6322 8.95175C18.5296 8.74663 18.0168 8.43893 16.9912 8.13124C16.0681 7.72099 15.3501 7.51586 14.9399 7.51586C14.6322 7.51586 14.1194 7.72099 13.4014 8.13124C12.786 8.5415 12.3758 8.95175 12.3758 9.36201C12.3758 9.36201 12.4783 9.46458 12.5809 9.6697C13.1963 10.1825 13.8117 10.4902 14.4271 10.4902C15.2476 10.4902 16.2732 10.08 17.6066 9.05432V9.25945C17.7091 9.25945 17.7091 9.36201 17.7091 9.36201ZM20.0681 30.08C20.4783 30.8512 21.1963 31.2389 22.0168 31.2389C22.2219 31.2389 22.4271 31.2082 22.6322 31.1466C22.8373 31.1056 23.0425 31.0338 23.145 30.9518C23.2476 30.88 23.3501 30.8082 23.4527 30.7261C23.6578 30.6543 23.6578 30.603 23.7604 30.5518L25.504 29.0441C25.9142 28.7169 26.3245 28.4307 26.8373 28.1825C27.2476 27.9364 27.6578 27.7723 27.863 27.68C28.1707 27.5979 28.3758 27.4748 28.5809 27.3107C28.6835 27.1569 28.786 26.962 28.786 26.7159C28.786 26.4184 28.5809 26.1928 28.3758 26.0287C28.1707 25.8646 27.9655 25.7518 27.7604 25.68C27.5553 25.6082 27.3501 25.4441 27.0425 25.1671C26.8373 24.9005 26.6322 24.5312 26.5296 24.0492L26.4271 23.4543C26.3245 23.1774 26.3245 22.9723 26.2219 22.8594C26.2219 22.8287 26.2219 22.8184 26.1194 22.8184C26.0168 22.8184 25.8117 22.9107 25.7091 23.0851C25.504 23.2594 25.2989 23.4543 25.0937 23.6594C24.9912 23.8646 24.6835 24.0492 24.4783 24.2236C24.1707 24.3979 23.863 24.4902 23.6578 24.4902C22.8373 24.4902 22.4271 24.2646 22.1194 23.8236C21.9142 23.4953 21.8117 23.1159 21.7091 22.6851C21.504 22.5107 21.4014 22.4184 21.1963 22.4184C20.6835 22.4184 20.4783 22.9518 20.4783 24.0287V27.2184C20.4783 27.3107 20.3758 27.5159 20.3758 27.8338C20.2732 28.1518 20.2732 28.5128 20.2732 28.921L20.0681 30.0594V30.0769M5.1963 29.5343C6.15014 29.6738 7.24758 29.9723 8.48861 30.4277C9.72963 30.8789 10.4886 31.1148 10.7655 31.1148C11.4835 31.1148 12.0783 30.7969 12.5707 30.1825C12.6732 29.9835 12.6732 29.7497 12.6732 29.481C12.6732 28.5118 12.0886 27.2861 10.9194 25.7989L10.2219 24.8656C10.0783 24.6707 9.90399 24.3733 9.67835 23.9733C9.46296 23.5733 9.26809 23.2656 9.11425 23.0502C8.98091 22.8143 8.76553 22.5784 8.48861 22.3425C8.22194 22.1066 7.91425 21.9528 7.57578 21.8707C7.14502 21.9528 6.84758 22.0964 6.70399 22.2912C6.5604 22.4861 6.47835 22.7015 6.45784 22.9271C6.42707 23.1425 6.36553 23.2861 6.26296 23.3579C6.1604 23.4194 5.98604 23.4707 5.75014 23.522C5.69886 23.522 5.60655 23.522 5.47322 23.5323H5.1963C4.65271 23.5323 4.28348 23.5938 4.08861 23.6964C3.83219 23.9938 3.69886 24.3323 3.69886 24.6912C3.69886 24.8553 3.73989 25.1323 3.82194 25.522C3.90399 25.9015 3.94502 26.2092 3.94502 26.4246C3.94502 26.8451 3.82194 27.2656 3.56553 27.6861C3.30912 28.1271 3.17578 28.4553 3.17578 28.6892C3.27835 29.0871 3.95527 29.3671 5.1963 29.5312M8.61168 20.2082C8.61168 19.5005 8.7963 18.721 9.17579 17.7979C9.54502 16.8748 9.91425 16.2594 10.2732 15.8492C10.2527 15.7466 10.2014 15.7466 10.1194 15.7466L10.0168 15.6441C9.71937 15.9518 9.3604 16.6697 8.92963 17.6953C8.49886 18.6184 8.27322 19.4697 8.27322 20.0953C8.27322 20.5569 8.38604 20.9569 8.59117 21.3056C8.81681 21.6441 9.3604 22.1364 10.2219 22.762L11.3091 23.4697C12.4681 24.4748 13.0835 25.1723 13.0835 25.5825C13.0835 25.7979 12.9809 26.0133 12.6732 26.2492C12.4681 26.4953 12.1912 26.6184 11.9553 26.6184C11.9348 26.6184 11.9245 26.6389 11.9245 26.6902C11.9245 26.7005 12.0271 26.9056 12.2425 27.3056C12.6732 27.8902 13.5963 28.1774 14.8271 28.1774C17.0835 28.1774 18.8271 27.2543 20.1604 25.4082C20.1604 24.8953 20.1604 24.5774 20.0578 24.4441V24.0646C20.0578 23.3979 20.1604 22.8953 20.3655 22.5671C20.5707 22.2389 20.7758 22.0851 21.0835 22.0851C21.2886 22.0851 21.4937 22.1569 21.6989 22.3107C21.8014 21.521 21.8014 20.8338 21.8014 20.2184C21.8014 19.2851 21.8014 18.5159 21.5963 17.7979C21.4937 17.1825 21.2886 16.6697 21.0835 16.2594L20.4681 15.3364C20.263 15.0287 20.1604 14.721 19.9553 14.4133C19.8527 14.003 19.7501 13.6953 19.7501 13.1825C19.4424 12.6697 19.2373 12.1569 18.9296 11.6441C18.7245 11.1312 18.5194 10.6184 18.3142 10.2082L17.3912 10.9261C16.3655 11.6441 15.545 11.9518 14.8271 11.9518C14.2117 11.9518 13.6989 11.8492 13.3912 11.4389L12.7758 10.9261C12.7758 11.2338 12.6732 11.6441 12.4681 12.0543L11.8219 13.2851C11.5348 14.003 11.3809 14.4133 11.3501 14.721C11.3091 14.9261 11.2783 15.1312 11.2578 15.1312L10.4886 16.6697C9.65784 18.2082 9.23732 19.6338 9.23732 20.8133C9.23732 21.0492 9.25784 21.2953 9.29886 21.5415C8.83732 21.2236 8.61168 20.7825 8.61168 20.2082ZM15.9553 29.9107C14.6219 29.9107 13.5963 30.0912 12.8783 30.4492V30.4184C12.3655 31.0338 11.7912 31.3518 10.9912 31.3518C10.4886 31.3518 9.69886 31.1569 8.63219 30.7671C7.55527 30.3979 6.60143 30.1148 5.77066 29.9282C5.68861 29.9046 5.50399 29.8697 5.20655 29.8225C4.91937 29.7764 4.65271 29.7292 4.41681 29.682C4.20143 29.6359 3.95527 29.5661 3.68861 29.4718C3.43219 29.3907 3.22707 29.2851 3.07322 29.1569C2.93168 29.0277 2.86194 28.882 2.86194 28.7189C2.86194 28.5548 2.89681 28.3794 2.96655 28.1928C3.03219 28.08 3.10399 27.9671 3.17578 27.8646C3.24758 27.7518 3.30912 27.6492 3.35014 27.5466C3.41168 27.4543 3.45271 27.362 3.49373 27.2594C3.53476 27.1671 3.57578 27.0748 3.5963 26.962C3.61681 26.8594 3.63732 26.7569 3.63732 26.6543C3.63732 26.5518 3.5963 26.2441 3.51425 25.7005C3.43219 25.1671 3.39117 24.8287 3.39117 24.6851C3.39117 24.2338 3.49373 23.8748 3.71937 23.6184C3.94502 23.362 4.1604 23.2287 4.38604 23.2287H5.56553C5.65784 23.2287 5.80143 23.1774 6.01681 23.0543C6.08861 22.8902 6.15014 22.7569 6.19117 22.6338C6.24245 22.5107 6.26296 22.4184 6.28348 22.3774C6.30399 22.3159 6.3245 22.2543 6.34502 22.203C6.38604 22.1312 6.43732 22.0492 6.50912 21.9671C6.42707 21.8646 6.38604 21.7312 6.38604 21.5671C6.38604 21.4543 6.38604 21.3518 6.40655 21.2902C6.40655 20.921 6.58091 20.3979 6.95014 19.7107L7.30912 19.0646C7.60655 18.5107 7.83219 18.1005 7.9963 17.6902C8.17066 17.28 8.35527 16.6646 8.5604 15.8441C8.7245 15.1261 9.11425 14.4082 9.72963 13.6902L10.4989 12.7671C11.0322 12.1518 11.3809 11.6389 11.5758 11.2287C11.7707 10.8184 11.8732 10.3056 11.8732 9.89534C11.8732 9.69022 11.8219 9.07483 11.7091 8.04919C11.6066 7.02355 11.5553 5.99791 11.5553 5.07483C11.5553 4.35688 11.6168 3.84406 11.7501 3.33124C11.8835 2.81842 12.1194 2.3056 12.4681 1.89535C12.7758 1.48509 13.186 1.07483 13.8014 0.869704C14.4168 0.664576 15.1348 0.562012 15.9553 0.562012C16.263 0.562012 16.5707 0.562012 16.8783 0.664576C17.186 0.664576 17.5963 0.76714 18.1091 0.972268C18.5194 1.1774 18.9296 1.38252 19.2373 1.69022C19.6476 1.99791 19.9553 2.51073 20.263 3.02355C20.4681 3.63893 20.6732 4.25432 20.7758 5.07483C20.8783 5.58765 20.8783 6.10047 20.9809 6.81842C20.9809 7.43381 21.0835 7.84406 21.0835 8.15176C21.186 8.45945 21.186 8.8697 21.2886 9.38252C21.3912 9.79278 21.4937 10.203 21.6989 10.5107C21.904 10.921 22.1091 11.3312 22.4168 11.7415C22.7245 12.2543 23.1348 12.7671 23.545 13.3825C24.4681 14.4082 25.186 15.5364 25.5963 16.6646C26.1091 17.6902 26.4168 19.0236 26.4168 20.4492C26.4168 21.1569 26.3142 21.8441 26.1091 22.5107C26.3142 22.5107 26.4168 22.5928 26.5194 22.7364C26.6219 22.88 26.7245 23.1877 26.8271 23.6697L26.9296 24.4287C27.0322 24.6543 27.1348 24.8697 27.4424 25.0543C27.6476 25.2389 27.8527 25.3928 28.1604 25.5159C28.3655 25.6184 28.6732 25.762 28.8783 25.9466C29.0835 26.1518 29.186 26.3671 29.186 26.5928C29.186 26.9415 29.0835 27.1979 28.8783 27.3825C28.6732 27.5877 28.4681 27.7312 28.1604 27.8235C27.9553 27.9261 27.545 28.1312 26.9296 28.4205C26.4168 28.7241 25.904 29.0923 25.3912 29.5282L24.3655 30.401C23.9553 30.801 23.545 31.0882 23.2373 31.2625C22.9296 31.4471 22.5194 31.5394 22.1091 31.5394L21.3912 31.4574C20.5707 31.242 20.0578 30.8318 19.7501 30.2061C18.1091 30.0071 16.7758 29.9087 15.9553 29.9087" fill="#E6E6E6"/>
</g>
<defs>
<clipPath id="clip0_1890_28600">
<rect width="27.2821" height="32" fill="white" transform="translate(2.35901)"/>
</clipPath>
</defs>
</svg>
