<svg width="32" height="33" viewBox="0 0 32 33" fill="none" xmlns="http://www.w3.org/2000/svg">
<path d="M26.6733 10.5443C26.5109 10.6703 23.6431 12.2863 23.6431 15.8795C23.6431 20.0355 27.2923 21.5059 27.4015 21.5423C27.3847 21.6319 26.8218 23.5559 25.4775 25.5163C24.2788 27.2415 23.027 28.9639 21.1225 28.9639C19.2181 28.9639 18.728 27.8576 16.5296 27.8576C14.3871 27.8576 13.6253 29.0003 11.8834 29.0003C10.1414 29.0003 8.92593 27.4039 7.52843 25.4435C5.90969 23.1414 4.60181 19.565 4.60181 16.1707C4.60181 10.7264 8.14176 7.83894 11.6257 7.83894C13.4769 7.83894 15.02 9.0544 16.1823 9.0544C17.2885 9.0544 19.0137 7.76612 21.1197 7.76612C21.9179 7.76612 24.7857 7.83894 26.6733 10.5443ZM20.1199 5.46123C20.9909 4.42781 21.607 2.9939 21.607 1.55999C21.607 1.36115 21.5902 1.15951 21.5538 0.99707C20.1367 1.05028 18.4508 1.94087 17.4342 3.11993C16.636 4.02732 15.891 5.46123 15.891 6.91474C15.891 7.13318 15.9274 7.35163 15.9442 7.42165C16.0339 7.43845 16.1795 7.45805 16.3251 7.45805C17.5966 7.45805 19.1957 6.60667 20.1199 5.46123Z" fill="#E6E6E6"/>
</svg>
