<svg width="24" height="24" viewBox="0 0 24 24" fill="none" xmlns="http://www.w3.org/2000/svg">
    <path d="M19.7289 7.83662C19.3743 7.00927 18.6652 6.30012 17.8378 5.94554C16.1831 5 14.5285 5 14.5285 5C14.1739 5.59096 14.0557 5.94554 14.0557 5.94554C14.0557 5.94554 12.992 5.70915 11.9282 5.70915H11.81C10.7463 5.70915 9.68256 5.94554 9.68256 5.94554C9.68256 5.94554 9.44617 5.59096 9.0916 5C9.0916 5 7.31871 5 5.54582 6.06373C4.71847 6.41831 4.2457 7.00927 3.89113 7.83662C3.18197 9.37312 2.00005 12.4461 2.00005 16.4647C2.00005 16.5829 2.00005 16.7011 2.11824 16.7011C2.47282 17.1738 3.77293 19.0649 6.84594 19.1831C6.96413 19.1831 7.20052 19.0649 7.20052 18.9467L8.50063 17.4102C8.61883 17.292 8.85521 17.1738 8.97341 17.292C9.44618 17.4102 10.3917 17.6466 11.5736 17.7648H11.9282C13.2283 17.7648 14.1739 17.5284 14.5285 17.292C14.7648 17.1738 14.883 17.292 15.0012 17.4102L16.3013 18.9467C16.4195 19.0649 16.5377 19.1831 16.6559 19.1831C19.7289 19.0649 21.029 17.1738 21.3836 16.7011C21.3836 16.5829 21.5018 16.5829 21.5018 16.4647C21.62 12.4461 20.4381 9.37312 19.7289 7.83662ZM8.73702 14.5736C7.79148 14.5736 6.96413 13.7462 6.96413 12.5643C6.96413 11.5006 7.79148 10.555 8.73702 10.555C9.68256 10.555 10.5099 11.3824 10.5099 12.5643C10.5099 13.6281 9.68256 14.5736 8.73702 14.5736ZM14.883 14.5736C13.9375 14.5736 13.1101 13.7462 13.1101 12.5643C13.1101 11.5006 13.9375 10.555 14.883 10.555C15.8286 10.555 16.6559 11.3824 16.6559 12.5643C16.6559 13.6281 15.9468 14.5736 14.883 14.5736Z" stroke="#1C1C25" stroke-miterlimit="10" stroke-linecap="round" stroke-linejoin="round"/>
</svg>
