<svg width="25" height="24" viewBox="0 0 25 24" fill="none" xmlns="http://www.w3.org/2000/svg">
<path d="M19.4225 5.24659C18.1558 4.66549 16.7844 4.24373 15.3557 4.00004C15.3432 3.99965 15.3308 4.00196 15.3192 4.00682C15.3077 4.01168 15.2974 4.01896 15.2891 4.02816C15.1176 4.33746 14.9176 4.74047 14.7843 5.04977C13.269 4.82483 11.728 4.82483 10.2127 5.04977C10.0794 4.7311 9.87941 4.33746 9.69845 4.02816C9.68892 4.00942 9.66035 4.00004 9.63178 4.00004C8.20317 4.24373 6.84123 4.66549 5.565 5.24659C5.55548 5.24659 5.54595 5.25596 5.53643 5.26534C2.94588 9.07996 2.23158 12.7915 2.58397 16.4655C2.58397 16.4843 2.59349 16.503 2.61254 16.5124C4.32687 17.7496 5.97454 18.4994 7.60315 18.9961C7.63173 19.0055 7.6603 18.9961 7.66982 18.9774C8.05078 18.4619 8.39365 17.9183 8.6889 17.3465C8.70795 17.3091 8.6889 17.2716 8.6508 17.2622C8.10793 17.056 7.59363 16.8123 7.08885 16.5311C7.05076 16.5124 7.05076 16.4562 7.07933 16.428C7.18409 16.3531 7.28886 16.2687 7.39362 16.1937C7.41267 16.175 7.44124 16.175 7.46029 16.1844C10.7366 17.6558 14.27 17.6558 17.5082 16.1844C17.5272 16.175 17.5558 16.175 17.5749 16.1937C17.6796 16.2781 17.7844 16.3531 17.8891 16.4374C17.9272 16.4655 17.9272 16.5218 17.8796 16.5405C17.3844 16.8311 16.8606 17.0654 16.3177 17.2716C16.2796 17.2809 16.2701 17.3278 16.2796 17.3559C16.5844 17.9276 16.9272 18.4713 17.2987 18.9867C17.3272 18.9961 17.3558 19.0055 17.3844 18.9961C19.0225 18.4994 20.6702 17.7496 22.3845 16.5124C22.4036 16.503 22.4131 16.4843 22.4131 16.4655C22.8321 12.2198 21.7178 8.53636 19.4606 5.26534C19.4511 5.25596 19.4416 5.24659 19.4225 5.24659ZM9.18415 14.2255C8.20317 14.2255 7.3841 13.3351 7.3841 12.2385C7.3841 11.1419 8.18412 10.2515 9.18415 10.2515C10.1937 10.2515 10.9937 11.1513 10.9842 12.2385C10.9842 13.3351 10.1842 14.2255 9.18415 14.2255ZM15.8224 14.2255C14.8414 14.2255 14.0224 13.3351 14.0224 12.2385C14.0224 11.1419 14.8224 10.2515 15.8224 10.2515C16.832 10.2515 17.632 11.1513 17.6225 12.2385C17.6225 13.3351 16.832 14.2255 15.8224 14.2255Z" fill="black" fill-opacity="0.5" />
</svg>
