<svg width="25" height="24" viewBox="0 0 25 24" fill="none" xmlns="http://www.w3.org/2000/svg">
<path d="M10.9286 14.375V23.725C10.9286 23.8769 11.0565 24 11.2143 24H15.2143C15.3721 24 15.5 23.8769 15.5 23.725V14.375C15.5 14.2231 15.6279 14.1 15.7857 14.1H18.6429C18.8007 14.1 18.9286 13.9769 18.9286 13.825V10.525C18.9286 10.3731 18.8007 10.25 18.6429 10.25H15.7857C15.6279 10.25 15.5 10.1271 15.5 9.97518V7.5C15.5 6.4 16.9286 5.85 17.5 5.85H19.2143C19.3721 5.85 19.5 5.72688 19.5 5.575V2.275C19.5 2.12312 19.3721 2 19.2143 2H15.5C12.7571 2 10.9286 4.75 10.9286 6.4V9.975C10.9286 10.1269 10.8007 10.25 10.6429 10.25H7.78571C7.62792 10.25 7.5 10.3731 7.5 10.525V13.825C7.5 13.9769 7.62792 14.1 7.78571 14.1H10.6429C10.8007 14.1 10.9286 14.2231 10.9286 14.375Z" fill="black" fill-opacity="0.5"/>
</svg>
