<svg width="25" height="24" viewBox="0 0 25 24" fill="none" xmlns="http://www.w3.org/2000/svg">
<path fill-rule="evenodd" clip-rule="evenodd" d="M3.44364 10.8184C9.08078 8.4193 12.8398 6.83767 14.7206 6.0735C20.0907 3.89166 21.2065 3.51265 21.9338 3.50013C22.0938 3.49738 22.4514 3.53611 22.6831 3.71974C22.8788 3.8748 22.9326 4.08426 22.9583 4.23128C22.9841 4.37829 23.0162 4.71319 22.9907 4.97487C22.6997 7.96165 21.4405 15.2098 20.7999 18.555C20.5288 19.9705 19.9951 20.4451 19.4784 20.4916C18.3554 20.5925 17.5027 19.7667 16.4151 19.0702C14.7132 17.9805 13.7517 17.3021 12.0997 16.2387C10.1906 15.0097 11.4282 14.3343 12.5162 13.2304C12.801 12.9415 17.7487 8.54547 17.8444 8.14668C17.8564 8.09681 17.8675 7.91089 17.7544 7.81273C17.6414 7.71456 17.4745 7.74813 17.3541 7.77483C17.1834 7.81267 14.4646 9.56807 9.19761 13.041C8.42588 13.5587 7.72687 13.8109 7.10059 13.7977C6.41016 13.7831 5.08204 13.4163 4.09473 13.1028C2.88374 12.7183 1.92128 12.515 2.00509 11.862C2.04874 11.5218 2.52826 11.174 3.44364 10.8184Z" fill="black" fill-opacity="0.5" />
</svg>
