<svg xmlns="http://www.w3.org/2000/svg" width="16" height="16" viewBox="0 0 16 16" fill="none">
    <g clip-path="url(#clip0_1366_67836)">
        <path d="M1.44641 4.86404V11.136C1.44641 11.5392 1.65761 11.904 2.00961 12.1088L7.44321 15.2448C7.78881 15.4432 8.21761 15.4432 8.56321 15.2448L13.9968 12.1088C14.3424 11.9104 14.56 11.5392 14.56 11.136V4.86404C14.56 4.46084 14.3488 4.09605 13.9968 3.89124L8.56321 0.755245C8.21761 0.556845 7.78881 0.556845 7.44321 0.755245L2.00961 3.89124C1.66401 4.08964 1.45281 4.46084 1.45281 4.86404H1.44641Z" fill="#213147"/>
        <path d="M9.184 9.21628L8.4096 11.3411C8.3904 11.3987 8.3904 11.4627 8.4096 11.5267L9.7408 15.1811L11.2832 14.2915L9.4336 9.21628C9.3888 9.10108 9.2288 9.10108 9.184 9.21628Z" fill="#12AAFF"/>
        <path d="M10.7392 5.64499C10.6944 5.52979 10.5344 5.52979 10.4896 5.64499L9.71521 7.76979C9.69601 7.82739 9.69601 7.89139 9.71521 7.95539L11.8976 13.9394L13.44 13.0498L10.7392 5.65139V5.64499Z" fill="#12AAFF"/>
        <path d="M8.00001 0.992C8.03841 0.992 8.07681 1.0048 8.10881 1.024L13.984 4.416C14.0544 4.4544 14.0928 4.5312 14.0928 4.608V11.392C14.0928 11.4688 14.048 11.5456 13.984 11.584L8.10881 14.976C8.07681 14.9952 8.03841 15.008 8.00001 15.008C7.96161 15.008 7.92321 14.9952 7.89121 14.976L2.01601 11.584C1.94561 11.5456 1.90721 11.4688 1.90721 11.392V4.6016C1.90721 4.5248 1.95201 4.448 2.01601 4.4096L7.89121 1.0176C7.92321 0.9984 7.96161 0.9856 8.00001 0.9856V0.992ZM8.00001 0C7.78881 0 7.58401 0.0512 7.39201 0.16L1.51681 3.552C1.13921 3.7696 0.908813 4.1664 0.908813 4.6016V11.3856C0.908813 11.8208 1.13921 12.2176 1.51681 12.4352L7.39201 15.8272C7.57761 15.936 7.78881 15.9872 8.00001 15.9872C8.21121 15.9872 8.41601 15.936 8.60801 15.8272L14.4832 12.4352C14.8608 12.2176 15.0912 11.8208 15.0912 11.3856V4.6016C15.0912 4.1664 14.8608 3.7696 14.4832 3.552L8.60161 0.16C8.41601 0.0512 8.20481 0 7.99361 0H8.00001Z" fill="#9DCCED"/>
        <path d="M4.10883 13.9457L4.65283 12.4609L5.74083 13.3633L4.72323 14.2977L4.10883 13.9457Z" fill="#213147"/>
        <path d="M7.50081 4.12163H6.00961C5.90081 4.12163 5.79841 4.19203 5.76001 4.29443L2.56641 13.0496L4.10881 13.9392L7.62881 4.29443C7.66081 4.20483 7.59681 4.11523 7.50721 4.11523L7.50081 4.12163Z" fill="white"/>
        <path d="M10.112 4.12163H8.62081C8.51201 4.12163 8.40961 4.19203 8.37121 4.29443L4.72321 14.2912L6.26561 15.1808L10.2336 4.29443C10.2656 4.20483 10.2016 4.11523 10.112 4.11523V4.12163Z" fill="white"/>
    </g>
    <defs>
        <clipPath id="clip0_1366_67836">
            <rect width="16" height="16" fill="white"/>
        </clipPath>
    </defs>
</svg>
