<svg xmlns="http://www.w3.org/2000/svg" width="32" height="32" fill="none"><path fill="#000" d="M4.52 24H2.5L8.36 8h1.99l5.86 16h-2.03L9.42 10.53h-.13L4.52 24Zm.75-6.25h8.16v1.72H5.27v-1.72ZM23.11 26V6h1.28v20h-1.28Zm4.3-14c-.1-.8-.47-1.4-1.13-1.84a4.35 4.35 0 0 0-2.45-.66c-.7 0-1.32.11-1.85.34-.53.23-.94.55-1.23.95a2.27 2.27 0 0 0-.14 2.47c.21.3.48.55.8.76.32.2.66.36 1.01.49.35.12.68.22.97.3l1.62.44c.42.1.88.26 1.39.45.51.2 1 .46 1.47.8a3.66 3.66 0 0 1 1.63 3.16c0 .86-.23 1.64-.68 2.34-.44.7-1.1 1.25-1.96 1.66-.86.42-1.9.62-3.12.62a7.29 7.29 0 0 1-2.97-.55 4.42 4.42 0 0 1-2.76-3.85H20c.05.6.25 1.1.6 1.5.36.39.82.68 1.36.87.55.19 1.14.28 1.78.28.73 0 1.4-.12 1.98-.36a3.41 3.41 0 0 0 1.4-1.01c.34-.44.51-.95.51-1.54 0-.53-.15-.96-.44-1.3-.3-.33-.69-.6-1.17-.8-.48-.21-1-.4-1.57-.55l-1.96-.56a7.3 7.3 0 0 1-2.96-1.54 3.39 3.39 0 0 1-1.09-2.62c0-.9.24-1.68.73-2.34a4.81 4.81 0 0 1 1.96-1.57 6.6 6.6 0 0 1 2.76-.56c1.03 0 1.94.19 2.74.56.8.36 1.44.86 1.9 1.5.48.63.73 1.35.75 2.16h-1.87Z"/></svg>