<svg xmlns="http://www.w3.org/2000/svg" width="32" height="32" fill="none"><path fill="#000" d="M10.04 13.81H8.6a2.91 2.91 0 0 0-1.21-1.85c-.3-.21-.63-.37-1-.48a4.04 4.04 0 0 0-3.1.38c-.58.36-1.04.88-1.38 1.58-.34.7-.51 1.55-.51 2.56s.17 1.86.5 2.56c.35.7.81 1.22 1.4 1.58.58.36 1.23.54 1.95.54.4 0 .78-.06 1.14-.16.37-.1.7-.27 1-.48A3.03 3.03 0 0 0 8.6 18.2h1.44a4.66 4.66 0 0 1-1.66 2.8c-.42.33-.9.58-1.43.75a5.45 5.45 0 0 1-4.4-.47 5.04 5.04 0 0 1-1.87-2.08A7 7 0 0 1 0 16a7 7 0 0 1 .68-3.2 5.04 5.04 0 0 1 1.87-2.07 5.45 5.45 0 0 1 4.4-.47 4.65 4.65 0 0 1 2.5 1.95c.29.46.49 1 .6 1.6ZM21.81 10.16v11.68h-1.4l-6.48-9.17h-.11v9.17h-1.45V10.16h1.4l6.51 9.2h.12v-9.2h1.41ZM25.1 10.16l3.04 6.5-1.12.46-3.53-6.96h1.6Zm2.25 6.5 3.05-6.5H32l-3.53 6.96-1.12-.46Zm1.12-.96v6.14h-1.45V15.7h1.45Zm2.6.32v1.03h-6.65v-1.03h6.65Zm0 2.26v1.03h-6.65v-1.03h6.65Z"/></svg>