<svg width="32" height="32" viewBox="0 0 32 32" fill="none" xmlns="http://www.w3.org/2000/svg">
<path d="M20.9796 13.4013L20.2317 15.0217H7.74805L8.34251 13.4013H20.9796ZM19.2441 17.342L18.4963 18.9624H7.74805L8.34251 17.342H19.2441ZM23.3095 8.14706L22.5424 9.8058C22.1333 9.42228 21.6955 9.09308 21.2289 8.81823C20.7623 8.53698 20.2701 8.32284 19.7523 8.17583C19.2346 8.02242 18.6912 7.94571 18.1223 7.94571C16.9462 7.94571 15.8947 8.27171 14.9679 8.9237C14.041 9.56929 13.3091 10.5057 12.7722 11.733C12.2417 12.9603 11.9764 14.4432 11.9764 16.1819C11.9764 17.9205 12.2417 19.4035 12.7722 20.6307C13.3091 21.858 14.041 22.7976 14.9679 23.4496C15.8947 24.0952 16.9462 24.418 18.1223 24.418C18.6976 24.418 19.2441 24.3445 19.7619 24.1975C20.2797 24.0505 20.7623 23.8427 21.2097 23.5743C21.6635 23.3058 22.0822 22.999 22.4657 22.6538L23.2615 24.3221C22.5968 24.9613 21.8169 25.4471 20.9221 25.7795C20.0336 26.1055 19.1003 26.2685 18.1223 26.2685C16.5499 26.2685 15.1564 25.8562 13.9419 25.0317C12.7338 24.2007 11.7846 23.0309 11.0943 21.5224C10.4103 20.0075 10.0684 18.2273 10.0684 16.1819C10.0684 14.1364 10.4103 12.3594 11.0943 10.8509C11.7846 9.33598 12.7338 8.16624 13.9419 7.34166C15.1564 6.5107 16.5499 6.09521 18.1223 6.09521C19.1387 6.09521 20.0847 6.27419 20.9604 6.63215C21.8425 6.98371 22.6255 7.48868 23.3095 8.14706Z" fill="black"/>
</svg>
