<svg xmlns="http://www.w3.org/2000/svg" fill="none" viewBox="0 0 48 48">
  <path fill="#D18F38" d="m43.17 10.85-2.52-.15a.75.75 0 0 1-.7-.68l-.22-2.33a.17.17 0 0 0-.06-.1.17.17 0 0 0-.22 0 .17.17 0 0 0-.05.1l-.23 2.33a.74.74 0 0 1-.7.68l-2.52.16a.17.17 0 0 0-.1.06.16.16 0 0 0-.04.1c0 .04.01.08.04.11.02.03.06.05.1.06l2.52.15a.76.76 0 0 1 .7.68l.22 2.33c0 .04.03.07.06.1a.17.17 0 0 0 .21 0 .17.17 0 0 0 .06-.1l.22-2.33a.76.76 0 0 1 .7-.68l2.53-.16a.17.17 0 0 0 .14-.17.17.17 0 0 0-.14-.16Z"/>
  <path fill="#D18F38" fill-rule="evenodd" d="m37.88 19.57.41.3c.37.24.66.6.83 1 .08.23.11.47.1.72a4.48 4.48 0 0 1-.5 1.6c-.09.18-.2.34-.31.5l-.06.07.07.47a4.68 4.68 0 0 1-.45 2.72 5.12 5.12 0 0 1-1.35 1.74l-.07.06-.09.03c-.73.26-1.49.47-2.25.62-.78.16-1.58.23-2.38.2h-.12c-1.58-.5-3.2-.84-4.85-1l-.32-.02c-.32-.03-.65-.05-.99-.11a7 7 0 0 1-1.3-.34 7.22 7.22 0 0 0-2.3-.4h-.02a3.04 3.04 0 0 0-.39 2.42c.2 1.02.56 2 1.05 2.92a27.5 27.5 0 0 1 1.53 2.99c.24.54.41 1.11.52 1.7.12.63.07 1.29-.13 1.9l-.26.73-.63-.46a1.8 1.8 0 0 0-.3-.17 7.32 7.32 0 0 1-.96 2.77c-.43-3.41-2.81-4.4-5.14-5.35a12.95 12.95 0 0 1-2.92-1.48c-2.73-2.06-2.95-4.46-1.27-8.66.52-1.3.9-2.64 1.12-4.01a14.03 14.03 0 0 1 .2-1.05l.05-.22.01.42a9.77 9.77 0 0 0 .32 2.3c.07.18.17.34.3.48l.13.13a4.65 4.65 0 0 1 .33.32c.34.26.71.46 1.1.6.85.3 1.72.48 2.6.56.86.1 1.72.13 2.6.13h.13c.9.01 1.8.16 2.66.46.76.25 1.56.4 2.37.42 1.7.16 3.37.5 5 1.01.69.02 1.38-.04 2.06-.18.48-.1.96-.23 1.43-.37 1.06-.45 1.76-1.66.33-1.5a7.08 7.08 0 0 0-1.8.39c-.24.09-.5.18-.78.25a3.5 3.5 0 0 1-1.77-.04 5.1 5.1 0 0 0-1.57-.37c.25-.15.53-.23.82-.25.21-.02.4-.01.58 0h.26c.49.06.99.04 1.47-.06.25-.07.5-.2.77-.35a4.64 4.64 0 0 1 2.42-.7h.36c.42-.59.77-1.23.63-1.75a1.35 1.35 0 0 0-.64-.47c-.07-.03-.2-.06-.37-.1-.63-.17-1.78-.47-2.23-.88-.33-.34-.13-1.03 1.24-1.31a6.79 6.79 0 0 1 1.92-.06c.22.04.45.02.65-.06l-.07-.07-.4-.28-.4-.3-1.58-1.2c-.26-.2-.54-.4-.79-.57l-.12-.07-.25-.1a6.84 6.84 0 0 1-1.88-1.22c-1.54-1.3-3.26-4.42-3.71-5.44-.36-.78-1-1.4-1.79-1.75a2.55 2.55 0 0 1 2.07.87c.13.1.37.47.67.9.6.87 1.42 2.05 1.92 2.1.26-.02.53-.06.8-.13-.26-.24-.49-.5-.69-.77-.27-.36-.48-.73-.68-1.08l-.2-.36a6.77 6.77 0 0 0-.84-1.24 1.69 1.69 0 0 0-.51-.39c-.22-.11-.44-.2-.72-.31-.27-.1-.51-.2-.8-.34l-.73-.37-1.47-.72c-.97-.46-1.97-.87-3-1.21a15.45 15.45 0 0 0-3.86-.74c-.2 0-.4.04-.59.13l-.3.15-.44.22-.73.33c-.95.48-1.86 1.04-2.71 1.67a7.35 7.35 0 0 0-1.8 1.66 5.9 5.9 0 0 1 2.2.32 10.09 10.09 0 0 0-5.3 1.51c-.4.22-.75.5-1.07.8-.13.13-.23.28-.3.45l-.24.63a21.58 21.58 0 0 0-1.15 8.27c.08 1.5.47 2.97 1.15 4.32a46.57 46.57 0 0 0 4.07-6.1c.34-.62.65-1.27.96-1.92.28-.6.57-1.21.89-1.8.32-.64.7-1.25 1.14-1.82.22-.3.48-.56.77-.79.29-.23.64-.38 1.01-.4-1.18 1.05-2.1 3.9-3 7.07-.75 2.58-3.24 8.47-4.82 8.61-.61.04-.83-.26-1.26-.86l-.34-.47a9.44 9.44 0 0 1-1.36-2.77c-.28-.98-.45-1.98-.5-2.99a20.93 20.93 0 0 1 .57-5.9c.21-.96.5-1.9.85-2.83l.3-.7.22-.39c.1-.12.19-.24.3-.34.38-.37.81-.68 1.28-.92.79-.4 1.62-.69 2.49-.84.24-.55.58-1.04.99-1.47.4-.42.83-.8 1.3-1.14a15.5 15.5 0 0 1 3.57-2.14l.33-.17.4-.2c.32-.15.67-.22 1.01-.22a16.55 16.55 0 0 1 4.2.79c1.07.35 2.1.78 3.12 1.26l1.49.73.74.36c.16.1.37.17.6.26l.12.05c.27.1.52.22.8.35.14.08.28.16.42.26a7.8 7.8 0 0 1 1.42 1.77l.03.06c.55.95 1.05 1.82 1.83 2.34l.63.41v.07l-.18.31-.57.15c-.11.03-.2.1-.26.2a.4.4 0 0 0-.05.17v.34c0 .18-.02.36-.08.53-.02.1-.06.17-.08.24l-.05.13a.3.3 0 0 0-.02.12c0 .04 0 .08.02.11a5.39 5.39 0 0 0 1.82 1.25l.22.09c.1.05.21.1.31.17.28.18.51.35.75.53l.1.07 1.57 1.2.39.3ZM24.2 16.24h-.4c-.91-.05-1.35-.67-1.2-1.3.14-.64.05-.85-.13-.85-.27.1-.51.28-.67.52h-.07l-.02-.01-.02-.03v-.03c.18-1.32.96-1.37 1.3-1.37a16.57 16.57 0 0 1 3.16.56c.02.02.04.05.04.08v.08a.15.15 0 0 1-.06.07 1.13 1.13 0 0 0-.36 1.08c.07.62-.67 1.1-1.57 1.2Z" clip-rule="evenodd"/>
</svg>
