<svg xmlns="http://www.w3.org/2000/svg" fill="none" viewBox="0 0 48 48">
  <path fill="#3B99FC" d="M9.83 14.95a20.19 20.19 0 0 1 28.34 0l.94.93c.4.39.4 1.01 0 1.4l-3.22 3.2c-.2.18-.5.18-.7 0l-1.3-1.3a14.08 14.08 0 0 0-19.78 0l-1.38 1.38c-.2.19-.51.19-.7 0l-3.24-3.18a.97.97 0 0 1 0-1.4l1.04-1.03Zm35 6.6 2.87 2.84c.4.39.4 1.01 0 1.4l-12.94 12.8a1 1 0 0 1-1.4 0l-9.18-9.08a.25.25 0 0 0-.36 0l-9.17 9.08a1 1 0 0 1-1.42 0L.3 25.8a.97.97 0 0 1 0-1.4l2.87-2.84a1 1 0 0 1 1.41 0l9.18 9.08c.1.1.26.1.35 0l9.18-9.08a1 1 0 0 1 1.41 0l9.17 9.08c.1.1.26.1.36 0l9.18-9.08c.4-.39 1.02-.39 1.42 0Z"/>
</svg>
