<svg xmlns="http://www.w3.org/2000/svg" width="17" height="17" fill="none"><g fill="#fff"><path  d="M3.36 3.36v10.27h10.28V3.36H3.36ZM1.95 3.2c0-.69.55-1.24 1.24-1.24H13.8c.69 0 1.24.55 1.24 1.24V13.8c0 .69-.55 1.24-1.24 1.24H3.2c-.69 0-1.24-.55-1.24-1.24V3.2Z" clip-rule="evenodd"/><path d="M11.69.88c.39 0 .7.32.7.71v2.13a.7.7 0 0 1-1.41 0V1.59c0-.39.32-.7.7-.7ZM5.31.88c.4 0 .71.32.71.71v2.13a.7.7 0 1 1-1.42 0V1.59c0-.39.32-.7.71-.7ZM1.95 5.84c0-.39.31-.7.7-.7h11.7a.7.7 0 0 1 0 1.41H2.64a.7.7 0 0 1-.7-.7Z" clip-rule="evenodd"/></g></svg>