<svg width="24" height="24" viewBox="0 0 24 24" fill="none" xmlns="http://www.w3.org/2000/svg">
    <path d="M10.4 12.1C10.4 12.6 10.2 13.2 9.8 13.6C8.9 14.5 7.6 14.5 6.7 13.6C6.3 13.2 6 12.6 6 12.1C6 11.5 6.2 10.9 6.6 10.5C7.5 9.69999 8.8 9.69999 9.7 10.5C10.2 10.9 10.4 11.5 10.4 12.1Z" stroke="#1C1C25" stroke-miterlimit="10" stroke-linecap="round" stroke-linejoin="round"/>
    <path d="M17.8 6.69999C17.8 7.19999 17.6 7.79999 17.2 8.19999C16.4 9.09999 15 9.09999 14.1 8.19999C13.7 7.79999 13.5 7.19999 13.5 6.69999C13.5 6.09999 13.7 5.49999 14.1 5.09999C14.9 4.19999 16.3 4.19999 17.2 5.09999C17.6 5.59999 17.8 6.19999 17.8 6.69999Z" stroke="#1C1C25" stroke-miterlimit="10" stroke-linecap="round" stroke-linejoin="round"/>
    <path d="M16.9 17.4C16.9 17.9 16.7 18.4 16.3 18.9C15.4 19.7 14 19.7 13.2 18.9C12.8 18.5 12.6 18 12.6 17.4C12.6 16.8 12.8 16.2 13.2 15.8C14 14.9 15.4 14.9 16.3 15.8C16.8 16.2 17 16.8 16.9 17.4Z" stroke="#1C1C25" stroke-miterlimit="10" stroke-linecap="round" stroke-linejoin="round"/>
    <path d="M19.8999 6.69998H17.7999" stroke="#1C1C25" stroke-miterlimit="10" stroke-linecap="round" stroke-linejoin="round"/>
    <path d="M13.4 6.69998H4.09998" stroke="#1C1C25" stroke-miterlimit="10" stroke-linecap="round" stroke-linejoin="round"/>
    <path d="M19.9 12.1H10.4" stroke="#1C1C25" stroke-miterlimit="10" stroke-linecap="round" stroke-linejoin="round"/>
    <path d="M5.99998 12.1H4.09998" stroke="#1C1C25" stroke-miterlimit="10" stroke-linecap="round" stroke-linejoin="round"/>
    <path d="M19.9 17.4H16.9" stroke="#1C1C25" stroke-miterlimit="10" stroke-linecap="round" stroke-linejoin="round"/>
    <path d="M12.6 17.4H4.09998" stroke="#1C1C25" stroke-miterlimit="10" stroke-linecap="round" stroke-linejoin="round"/>
</svg>
