<svg xmlns="http://www.w3.org/2000/svg" width="16" height="16" fill="none"><path fill="#fff" fill-opacity=".7" d="M13.63 7.8H7.95a1.65 1.65 0 0 0-3.2 0H2.36a.37.37 0 1 0 0 .74h2.37c.17.74.83 1.28 1.6 1.28.79 0 1.44-.54 1.61-1.28h5.68a.37.37 0 1 0 0-.73ZM2.37 4.01h5.68a1.65 1.65 0 0 0 3.2 0h2.38a.37.37 0 1 0 0-.73h-2.38a1.65 1.65 0 0 0-3.2 0H2.37c-.2 0-.37.16-.37.36 0 .2.17.37.37.37ZM13.63 12.34h-2.38a1.65 1.65 0 0 0-3.2 0H2.37a.37.37 0 0 0 0 .74h5.68a1.65 1.65 0 0 0 3.2 0h2.38a.37.37 0 0 0 0-.74Z"/></svg>