<svg width="32" height="32" viewBox="0 0 32 32" fill="none" xmlns="http://www.w3.org/2000/svg">
<path fill-rule="evenodd" clip-rule="evenodd" d="M4.75 6.66667C4.75 5.60812 5.60812 4.75 6.66667 4.75H20C21.0585 4.75 21.9167 5.60812 21.9167 6.66667V8.58337H12.3335C10.2624 8.58337 8.5835 10.2623 8.5835 12.3334V21.9167H6.66667C5.60812 21.9167 4.75 21.0585 4.75 20V6.66667ZM8.5835 23.4167H6.66667C4.77969 23.4167 3.25 21.887 3.25 20V6.66667C3.25 4.77969 4.77969 3.25 6.66667 3.25H20C21.887 3.25 23.4167 4.77969 23.4167 6.66667V8.58337H25.0002C27.0712 8.58337 28.7502 10.2623 28.7502 12.3334V25C28.7502 27.0711 27.0712 28.75 25.0002 28.75H12.3335C10.2624 28.75 8.5835 27.0711 8.5835 25V23.4167ZM10.0835 12.3334C10.0835 11.0907 11.0909 10.0834 12.3335 10.0834H25.0002C26.2428 10.0834 27.2502 11.0907 27.2502 12.3334V25C27.2502 26.2427 26.2428 27.25 25.0002 27.25H12.3335C11.0909 27.25 10.0835 26.2427 10.0835 25V12.3334Z" fill="#001D47"/>
</svg>
