<svg width="46" height="49" viewBox="0 0 46 49" fill="none" xmlns="http://www.w3.org/2000/svg">
<path d="M32.3415 46.9214L43.3055 40.3942C44.5566 39.6501 45.5 37.9655 45.5 36.4751V23.4484C45.5 22.5348 45.1329 21.7927 44.4928 21.4114C43.8527 21.0301 43.0462 21.0734 42.2792 21.5293L39.1565 23.3856V18.5368C39.1565 17.0471 38.213 15.3625 36.962 14.6176L33.5462 12.5837L36.1282 11.048C38.3234 9.74252 38.3234 9.74252 38.3234 9.11763C38.3234 8.49274 38.3234 8.49203 36.1289 7.18595L25.1643 0.658779C23.9133 -0.0867805 22.0271 -0.0867805 20.7763 0.658779L9.81163 7.18595C7.61717 8.49274 7.61717 8.49274 7.61717 9.11416C7.61717 9.7354 7.61717 9.7354 9.81032 11.0424L12.3944 12.5836L8.97855 14.6175C7.72752 15.3623 6.78408 17.0463 6.78408 18.5367V23.3279L3.72149 21.5028C2.95459 21.0459 2.14729 21.0022 1.50785 21.3828C0.867104 21.7641 0.5 22.5062 0.5 23.4198V36.4529C0.5 37.9426 1.44344 39.628 2.69447 40.3721L13.6351 46.8857C14.402 47.342 15.21 47.3856 15.8495 47.0043C16.4902 46.6237 16.8573 45.8809 16.858 44.9681L16.8607 41.1937L20.7764 43.5251C22.0275 44.2699 23.9136 44.2699 25.1644 43.5251L29.1007 41.1818L29.098 45.1991V45.226C29.098 47.575 29.0994 47.5771 29.5868 47.894L29.6566 47.9356C30.1687 48.2142 30.1687 48.2142 32.3418 46.9214L32.3415 46.9214ZM10.8384 9.20865C10.7849 9.17694 10.7323 9.14591 10.6802 9.11397C10.7321 9.08294 10.7849 9.05191 10.8384 9.01927L21.8031 2.4921C22.4144 2.12783 23.5264 2.12783 24.137 2.4921L35.1017 9.01927C35.1565 9.05237 35.2104 9.085 35.2639 9.11672C35.2104 9.14843 35.1565 9.18107 35.1017 9.21347L31.4913 11.3605L25.1648 7.59321C23.9138 6.84836 22.0276 6.84836 20.7768 7.59321L14.4497 11.3605L10.8384 9.20865ZM10.0053 16.4519L14.4468 13.807L20.763 17.5723C22.0141 18.3178 23.9002 18.3185 25.151 17.5743L31.4901 13.8056L35.9343 16.4519C35.9835 16.4815 36.0328 16.5217 36.0814 16.5585L22.9583 24.36L9.86373 16.5556C9.91098 16.5197 9.95734 16.4802 10.0055 16.4519L10.0053 16.4519ZM14.8034 44.9669C14.8034 45.0283 14.7985 45.0777 14.7925 45.1172C14.7568 45.1032 14.7132 45.0818 14.6617 45.0515L3.72101 38.5378C3.10965 38.1736 2.55357 37.1803 2.55357 36.4528V23.4197C2.55357 23.3597 2.55758 23.3103 2.56382 23.2714C2.59948 23.2864 2.6425 23.3068 2.69265 23.3372L6.78357 25.7758V32.5831C6.78357 34.0728 7.72701 35.7581 8.97804 36.5022L14.807 39.9723L14.8034 44.9669ZM21.8032 41.6917L16.8618 38.7497L16.8667 31.9507C16.8667 30.4616 15.9245 28.7771 14.6751 28.0315L8.83875 24.5522V18.5369C8.83875 18.4923 8.847 18.4445 8.85101 18.3985L21.9313 26.1942L21.9211 41.7467C21.8821 41.7283 21.8397 41.7126 21.8034 41.6915L21.8032 41.6917ZM24.1381 41.6917C24.0881 41.7213 24.0306 41.7445 23.9751 41.7694L23.9847 26.1957L37.0907 18.403C37.0947 18.4466 37.103 18.4933 37.103 18.5358V24.6064L31.3031 28.0547C30.0521 28.7988 29.108 30.4828 29.1067 31.9725L29.1026 38.735L24.1381 41.6917ZM31.1555 39.959L36.961 36.5022C38.2127 35.7581 39.1562 34.0735 39.1562 32.583V25.8323L43.3046 23.3653C43.3559 23.335 43.3998 23.3139 43.4355 23.2996C43.4417 23.3385 43.4457 23.3879 43.4457 23.4492V36.4759C43.4457 37.2031 42.8898 38.1973 42.2783 38.5609L31.3142 45.0881C31.2594 45.1205 31.2054 45.1531 31.1519 45.1849L31.1555 39.959Z" fill="white"/>
</svg>
