<svg width="32" height="32" viewBox="0 0 32 32" fill="none" xmlns="http://www.w3.org/2000/svg">
<path fill-rule="evenodd" clip-rule="evenodd" d="M4.77442 15.2499C5.08714 10.4646 8.3712 6.51036 12.807 5.20674C11.0085 8.27968 10.0493 11.7515 9.9293 15.2499H4.77442ZM4.77441 16.7499H9.92927C10.0491 20.2483 11.0082 23.7201 12.8066 26.7931C8.37092 25.4893 5.08706 21.5351 4.77441 16.7499ZM11.4303 16.7499C11.5517 20.0499 12.4749 23.3222 14.1999 26.2023L14.2 26.2024C14.6068 26.8818 15.271 27.231 15.9423 27.2499L16 27.25L16.0573 27.2499C16.7287 27.231 17.3929 26.8819 17.7997 26.2024L17.7998 26.2023C19.5248 23.3222 20.448 20.0499 20.5694 16.7499H11.4303ZM22.0703 16.7499C21.9505 20.2484 20.9914 23.7202 19.193 26.7932C23.6289 25.4896 26.9129 21.5353 27.2256 16.7499H22.0703ZM27.2256 15.2499H22.0703C21.9503 11.7514 20.9911 8.27957 19.1926 5.20662C23.6286 6.51012 26.9128 10.4645 27.2256 15.2499ZM20.5694 15.2499H11.4303C11.5518 11.9502 12.475 8.6782 14.1999 5.79838L14.2 5.79827C14.6184 5.0994 15.309 4.74988 15.9998 4.75C16.6902 4.75012 17.3807 5.09948 17.7998 5.79838C19.5247 8.6782 20.4479 11.9502 20.5694 15.2499ZM3.25 15.9975C3.25135 8.94184 8.94385 3.25011 15.9998 3.25H16C23.0568 3.25 28.7499 8.94309 28.75 15.9999C28.75 16 28.75 16 28.75 16C28.75 23.03 23.1002 28.7066 16.0807 28.7498C16.0268 28.751 15.9728 28.751 15.9189 28.7497C8.89954 28.7063 3.25 23.0298 3.25 16C3.25 15.9992 3.25 15.9983 3.25 15.9975Z" fill="#00060F"/>
</svg>
