<svg xmlns="http://www.w3.org/2000/svg" width="12" height="14" viewBox="0 0 12 14" fill="none">
  <path d="M10.5 0.000157166H1.5C0.95 0.000157166 0.5 0.450157 0.5 1.00016V2.52515C0.5 3.36515 0.615 3.32016 3.82 7.89507C4.06 8.24006 4 8.05007 4 12.4951C4 13.7701 5.48499 14.46 6.46 13.6451C7.28 12.9651 8 12.5251 8 11.4251C8 8.19499 7.94 8.23499 8.18 7.89003C11.38 3.32011 11.5 3.36011 11.5 2.52011V0.995117C11.5 0.445117 11.05 -0.00488281 10.5 -0.00488281V0.000157166ZM10.5 2.52512C10.5 2.96013 10.565 2.75011 7.36 7.32512C6.88 8.01512 7 8.38013 7 11.4301C7 11.9901 6.70499 12.1451 5.82 12.8801C5.49501 13.1501 5 12.9201 5 12.4951C5 8.19013 5.115 8.00517 4.64 7.32005C1.47504 2.80501 1.5 2.96501 1.5 2.52501V1.00001H10.5V2.52512Z" fill="black"/>
</svg>
