<svg width="46" height="51" viewBox="0 0 46 51" fill="none" xmlns="http://www.w3.org/2000/svg">
<path d="M34.6894 33.7143C33.4308 33.4557 32.2385 32.9425 31.1857 32.2062C30.1328 31.47 29.2416 30.5263 28.5667 29.4329C28.2045 28.837 27.9104 28.2022 27.69 27.5406H30.3056C30.3933 27.7233 30.4883 27.9059 30.5906 28.0813C31.074 28.9834 31.7466 29.7704 32.5626 30.3884C33.3785 31.0062 34.3183 31.4405 35.3177 31.6613C35.4026 31.6724 35.4885 31.6724 35.5734 31.6613C35.8589 31.6604 36.1355 31.561 36.3564 31.38C36.5774 31.199 36.7292 30.9474 36.7862 30.6677C36.8576 30.3451 36.7943 30.0074 36.6109 29.7325C36.432 29.4573 36.1506 29.2653 35.8291 29.1991C34.7898 28.9796 33.8656 28.3902 33.2281 27.5406H43.7199C44.1423 27.5082 44.5196 27.264 44.7219 26.8917C44.9243 26.5196 44.9243 26.0702 44.7219 25.6981C44.5196 25.3258 44.1423 25.0816 43.7199 25.0492H37.1442C36.9617 24.551 36.8725 24.0234 36.8812 23.4929C36.8812 13.2058 33.177 9.76462 29.5165 7.75511C27.4799 6.64136 25.1963 6.05597 22.8751 6.05273C21.7766 6.05319 20.6821 6.18805 19.6165 6.45456C11.0902 8.64643 9.84794 18.3491 9.78949 18.7583C9.75646 19.0831 9.8519 19.4079 10.0553 19.6633C10.2588 19.9186 10.5541 20.0842 10.8781 20.1246H11.0242C11.3281 20.1233 11.6212 20.0113 11.8485 19.8096C12.0757 19.6079 12.2217 19.3301 12.259 19.0286C12.259 18.9409 13.3768 10.6044 20.2374 8.84352C21.0992 8.62327 21.9854 8.51292 22.875 8.51474C24.7776 8.51581 26.6495 8.99575 28.3182 9.91022C31.3357 11.5687 34.4118 14.4693 34.3896 23.4558C34.3815 23.9815 34.4354 24.5062 34.5503 25.0193H32.0516C31.8724 24.3543 31.7767 23.6695 31.7667 22.9809V18.2098C31.9498 16.0964 30.9987 14.0443 29.2679 12.8176C27.9572 11.8581 26.413 11.2677 24.7965 11.108C24.2656 11.0433 23.7313 11.009 23.1965 11.0057H22.5754C20.9007 11.1212 19.3081 11.7747 18.035 12.8688C16.7619 13.9627 15.8763 15.4389 15.5103 17.0772C14.9696 19.4517 14.4289 20.8764 13.859 21.4609C13.5367 21.7681 13.1062 21.9361 12.6608 21.9285H9.84789C9.4255 21.9609 9.04818 22.2051 8.84587 22.5774C8.64342 22.9495 8.64342 23.3989 8.84587 23.771C9.04816 24.1433 9.4255 24.3875 9.84789 24.4199H12.6681C13.7596 24.4228 14.8089 23.998 15.5906 23.2363C16.5477 22.2865 17.2491 20.6207 17.9213 17.6543C18.1653 16.5414 18.7622 15.5367 19.6232 14.7903C20.4841 14.0438 21.5631 13.5954 22.6996 13.5117H23.1818C23.6166 13.5137 24.0511 13.5431 24.4823 13.5994C25.6577 13.704 26.7831 14.1229 27.7409 14.8122C28.2779 15.176 28.7062 15.6788 28.9803 16.2666C29.2543 16.8546 29.3638 17.5059 29.2971 18.1511V23.0243C29.2966 23.718 29.3603 24.41 29.4871 25.092H27.2075V24.3102V19.7001C27.2075 18.2435 26.4305 16.8977 25.1691 16.1693C23.9077 15.4411 22.3536 15.4411 21.0924 16.1693C19.831 16.8977 19.054 18.2435 19.054 19.7001V22.1988C18.9031 23.2718 18.387 24.2601 17.5927 24.9971C17.5769 25.0178 17.557 25.0353 17.5343 25.0482H2.27886C1.85646 25.0806 1.47915 25.3248 1.27683 25.6971C1.07439 26.0693 1.07439 26.5186 1.27683 26.8908C1.47912 27.2631 1.85646 27.5072 2.27886 27.5396H9.84812C9.56957 27.7485 9.39147 28.0646 9.35722 28.4112C9.32297 28.7576 9.43561 29.1025 9.66789 29.3619C9.90017 29.6213 10.2306 29.7712 10.5787 29.7753H11.6747C14.0909 29.7882 16.4438 29.0022 18.3672 27.5396H20.9609C20.8892 27.6271 20.8278 27.7229 20.7782 27.8245C19.1051 31.5653 11.6016 31.6311 11.5283 31.6311C11.1059 31.6635 10.7286 31.9077 10.5263 32.28C10.3239 32.6521 10.3239 33.1015 10.5263 33.4736C10.7286 33.846 11.1059 34.0901 11.5283 34.1225C11.8133 34.1225 18.155 34.1225 21.5307 30.9443C22.7654 33.7865 25.8193 38.9812 32.1249 40.7931C32.2372 40.8213 32.3525 40.8361 32.4683 40.837C32.7386 40.838 33.0018 40.7508 33.2181 40.5886C33.4344 40.4264 33.5918 40.1981 33.6665 39.9383C33.7617 39.6232 33.7248 39.283 33.5642 38.9958C33.4073 38.7091 33.1455 38.4944 32.8336 38.3966C25.3446 36.2048 23.1602 28.1095 23.1383 28.0292C23.0851 27.8482 22.9927 27.6812 22.868 27.5397H25.0599C25.3492 28.6653 25.8048 29.7413 26.4116 30.7325C27.2586 32.1052 28.3753 33.292 29.6937 34.2213C31.0123 35.1505 32.5054 35.8029 34.0829 36.1392C34.1776 36.15 34.2732 36.15 34.3679 36.1392C34.6487 36.1413 34.9219 36.0477 35.1425 35.8737C35.363 35.6997 35.5175 35.4557 35.5807 35.182C35.6463 34.8698 35.5906 34.5444 35.4251 34.2717C35.2597 33.9989 34.9965 33.7993 34.6893 33.7135L34.6894 33.7143ZM20.6177 25.049C21.1141 24.2504 21.4284 23.3524 21.5383 22.4187V22.3018V19.7008C21.5893 19.1703 21.9021 18.7006 22.3718 18.4491C22.8416 18.1975 23.406 18.1975 23.8757 18.4491C24.3455 18.7006 24.6583 19.1703 24.7093 19.7008V24.2673V25.049L20.6177 25.049Z" fill="white"/>
<path d="M30.503 42.5213C26.4633 41.3858 23.0347 38.7026 20.9609 35.0545C20.774 34.6772 20.4077 34.421 19.9891 34.375H19.843C19.467 34.3759 19.1121 34.5481 18.8786 34.8426C17.8849 36.0554 14.9624 36.5595 13.3843 36.5961C13.0555 36.6037 12.743 36.7408 12.5145 36.9774C12.2861 37.2141 12.1602 37.5311 12.1642 37.8601C12.1756 38.1888 12.3147 38.5003 12.5521 38.7281C12.7896 38.956 13.1064 39.0823 13.4354 39.0802C13.8373 39.0802 17.2347 38.9633 19.5435 37.5094C21.9859 41.1375 25.6491 43.769 29.8673 44.9251C29.9696 44.954 30.0752 44.9688 30.1814 44.9689C30.4556 44.9682 30.7218 44.8767 30.9384 44.709C31.1552 44.5411 31.3103 44.3062 31.3797 44.041C31.4637 43.7203 31.4191 43.3795 31.2555 43.0912C31.0894 42.8096 30.8191 42.6049 30.5029 42.5213L30.503 42.5213Z" fill="white"/>
<path d="M23.284 43.6706C22.1984 42.5992 21.2842 41.367 20.5734 40.0175C20.4671 39.8197 20.3088 39.6546 20.1158 39.54C19.9227 39.4255 19.7019 39.3657 19.4774 39.3672C19.2591 39.3674 19.045 39.4254 18.8564 39.5353C17.6571 40.0297 16.4179 40.4207 15.1521 40.7043C14.7457 40.7933 14.411 41.0798 14.2601 41.4675C14.1095 41.8553 14.1629 42.2926 14.4025 42.6328C14.6419 42.9728 15.0358 43.1704 15.4517 43.1592C15.5502 43.1578 15.6482 43.1455 15.7439 43.1226C16.0946 43.0349 17.7239 42.6258 18.9587 42.1874C19.7027 43.4676 20.6391 44.6257 21.735 45.6214C21.9943 45.8223 22.3224 45.9124 22.6479 45.8724C22.9733 45.8322 23.2697 45.665 23.4724 45.4072C23.675 45.1495 23.7676 44.8219 23.7297 44.4962C23.6963 44.1729 23.536 43.8759 23.284 43.6705L23.284 43.6706Z" fill="white"/>
<path d="M41.8432 2.59182H36.6412C36.2188 2.62424 35.8415 2.86839 35.6391 3.24069C35.4367 3.61285 35.4367 4.06218 35.6391 4.43435C35.8414 4.80667 36.2188 5.0508 36.6412 5.08322H41.8432C42.1513 5.08322 42.4467 5.2056 42.6647 5.42342C42.8825 5.64139 43.0049 5.93685 43.0049 6.24492V11.4688C42.9783 11.8157 43.0976 12.158 43.334 12.4133C43.5705 12.6685 43.9027 12.8136 44.2506 12.8136C44.5985 12.8136 44.9307 12.6685 45.1672 12.4133C45.4036 12.158 45.5229 11.8157 45.4963 11.4688V6.24492C45.4963 5.27609 45.1113 4.34681 44.4264 3.6617C43.7413 2.97675 42.812 2.59182 41.8432 2.59182Z" fill="white"/>
<path d="M1.75327 12.7181C2.08342 12.7161 2.39925 12.5837 2.632 12.3496C2.86474 12.1155 2.99533 11.7989 2.99533 11.4688V6.2449C2.99533 5.93682 3.11771 5.64138 3.33553 5.4234C3.5535 5.20559 3.84896 5.08321 4.15703 5.08321H9.35907C9.78147 5.05078 10.1588 4.80663 10.3611 4.43433C10.5635 4.06217 10.5635 3.61284 10.3611 3.24067C10.1588 2.86835 9.78147 2.62422 9.35907 2.5918H4.15703C3.1882 2.5918 2.25892 2.97674 1.57381 3.6617C0.888857 4.34681 0.503906 5.27609 0.503906 6.24492V11.4688C0.505885 11.7995 0.638006 12.1161 0.871958 12.3501C1.10591 12.584 1.42252 12.7161 1.75327 12.7181Z" fill="white"/>
<path d="M44.244 39.2246C43.9139 39.2266 43.5981 39.359 43.3653 39.5931C43.1326 39.8273 43.002 40.1439 43.002 40.474V45.6979C43.002 46.0059 42.8796 46.3014 42.6618 46.5193C42.4438 46.7372 42.1483 46.8595 41.8403 46.8595H36.6382C36.2158 46.892 35.8385 47.1361 35.6362 47.5084C35.4338 47.8806 35.4338 48.3299 35.6362 48.7021C35.8385 49.0744 36.2158 49.3185 36.6382 49.351H41.8403C42.8091 49.351 43.7384 48.966 44.4235 48.281C45.1084 47.5959 45.4934 46.6667 45.4934 45.6978V40.474C45.4914 40.1432 45.3593 39.8266 45.1253 39.5927C44.8914 39.3587 44.5748 39.2266 44.244 39.2246Z" fill="white"/>
<path d="M9.3588 46.8631H4.15675C3.84868 46.8631 3.55324 46.7408 3.33526 46.5229C3.11744 46.305 2.99506 46.0095 2.99506 45.7015V40.4776C3.0217 40.1307 2.90236 39.7883 2.66598 39.5331C2.42944 39.2779 2.0973 39.1328 1.74936 39.1328C1.40143 39.1328 1.06928 39.2779 0.832753 39.5331C0.596366 39.7884 0.47703 40.1307 0.503668 40.4776V45.7015C0.503668 46.6703 0.888615 47.5996 1.57357 48.2847C2.25869 48.9696 3.18796 49.3546 4.15679 49.3546H9.35883C9.78123 49.3222 10.1585 49.078 10.3609 48.7057C10.5633 48.3335 10.5633 47.8842 10.3609 47.512C10.1586 47.1397 9.78123 46.8956 9.35883 46.8632L9.3588 46.8631Z" fill="white"/>
</svg>
