<svg width="16" height="16" viewBox="0 0 16 16" fill="none" xmlns="http://www.w3.org/2000/svg">
<path d="M7.59042 4.71033C7.59042 4.9209 7.36912 5.08469 7.08768 5.08469H1.82549C1.5419 5.08469 1.32253 4.92084 1.32253 4.71033L1.32246 1.37092C1.32246 1.16035 1.54183 0.99655 1.82542 0.99655L7.08761 0.996498C7.36905 0.996498 7.59035 1.16035 7.59035 1.37087L7.59042 4.71033ZM13.7251 5.13704C13.0592 5.02694 12.8178 4.76955 12.8178 4.53257V3.66956C12.8178 3.66956 13.2604 3.74393 13.3665 3.76461C13.5823 3.80732 13.7194 4.05643 13.7251 4.27403C13.7323 4.49157 13.7251 5.13704 13.7251 5.13704ZM15.0656 10.3804C15.0656 10.3721 14.8812 9.32044 14.8812 9.32044L14.8811 4.46385C14.8811 3.94355 14.6542 3.52084 14.186 3.16581L11.1972 0.927578C10.9906 0.927578 10.42 1.35574 10.42 1.35574C10.42 1.51126 11.9034 2.61942 11.9034 2.61942L11.8594 4.50392C11.8594 5.17303 12.5818 5.71526 13.4746 5.71526L13.8751 5.71942L13.7325 9.32056L13.932 10.5554L14.8301 14.1992C14.8633 14.7911 14.1441 15.1434 13.5771 15.1434C13.0523 15.1434 12.4432 14.8171 12.4432 14.3959L12.4543 8.01028C12.4543 7.23384 11.6167 6.60337 10.585 6.60337H8.78153C8.90782 6.59811 8.91315 2.42157 8.91315 1.53492V1.37091C8.9126 0.61519 8.09334 0 7.0874 0H1.82557C0.819391 0 0 0.615203 0 1.37091V16H8.91563L8.92179 7.50094H10.6046C10.9905 7.50094 11.3051 7.73791 11.3051 8.02812V14.396C11.3051 15.2511 12.3658 15.9999 13.5767 15.9999C14.7198 15.9999 16 15.3157 16 14.396C15.9801 14.184 15.0655 10.3807 15.0655 10.3807L15.0656 10.3804Z" fill="white" fill-opacity="0.8"/>
</svg>
