<svg width="32" height="32" viewBox="0 0 32 32" fill="none" xmlns="http://www.w3.org/2000/svg">
<path fill-rule="evenodd" clip-rule="evenodd" d="M8.44337 9.61641C10.9664 10.2488 13.5361 8.76521 14.25 6.26397C14.7524 4.50348 17.2473 4.50348 17.7498 6.26397C18.4636 8.76522 21.0333 10.2488 23.5564 9.61641C25.3322 9.17127 26.5797 11.332 25.3063 12.6473C23.497 14.5161 23.497 17.4834 25.3063 19.3522C26.5797 20.6676 25.3322 22.8282 23.5564 22.3831C21.0333 21.7507 18.4636 23.2343 17.7498 25.7355C17.2473 27.496 14.7524 27.496 14.25 25.7355C13.5361 23.2343 10.9664 21.7507 8.44337 22.3831C6.66753 22.8282 5.42006 20.6676 6.69347 19.3522C8.5027 17.4834 8.5027 14.5161 6.69347 12.6473C5.42006 11.332 6.66753 9.17127 8.44337 9.61641ZM12.8076 5.85232C13.7241 2.6407 18.2756 2.6407 19.1922 5.85233C19.6838 7.57514 21.4538 8.59703 23.1916 8.16142C26.4313 7.34937 28.707 11.2911 26.384 13.6907C25.1378 14.9779 25.1378 17.0217 26.384 18.3089C28.707 20.7084 26.4313 24.6501 23.1916 23.8381C21.4538 23.4025 19.6838 24.4244 19.1922 26.1472C18.2756 29.3588 13.7241 29.3588 12.8076 26.1472C12.3159 24.4244 10.5459 23.4025 8.80808 23.8381C5.56845 24.6501 3.2927 20.7084 5.61577 18.3089C6.86194 17.0217 6.86194 14.9779 5.61577 13.6907C3.2927 11.2911 5.56845 7.34937 8.80808 8.16142C10.5459 8.59703 12.3159 7.57514 12.8076 5.85232ZM13.0816 15.9998C13.0816 14.3881 14.3881 13.0816 15.9998 13.0816C17.6114 13.0816 18.918 14.3881 18.918 15.9998C18.918 17.6115 17.6114 18.918 15.9998 18.918C14.3881 18.918 13.0816 17.6115 13.0816 15.9998ZM15.9998 11.5816C13.5597 11.5816 11.5816 13.5597 11.5816 15.9998C11.5816 18.4399 13.5597 20.418 15.9998 20.418C18.4399 20.418 20.418 18.4399 20.418 15.9998C20.418 13.5597 18.4399 11.5816 15.9998 11.5816Z" fill="#00060F"/>
</svg>
