<svg width="16" height="16" viewBox="0 0 16 16" fill="none" xmlns="http://www.w3.org/2000/svg">
<path fill-rule="evenodd" clip-rule="evenodd" d="M8.00001 15C11.866 15 15 11.866 15 8.00001C15 4.13401 11.866 1 8.00001 1C4.13401 1 1 4.13401 1 8.00001C1 11.866 4.13401 15 8.00001 15ZM7.99983 12.0127C8.5245 12.0127 8.94983 11.5874 8.94983 11.0627V8.0627C8.94983 7.53802 8.5245 7.1127 7.99983 7.1127C7.47516 7.1127 7.04983 7.53802 7.04983 8.0627V11.0627C7.04983 11.5874 7.47516 12.0127 7.99983 12.0127ZM6.98767 5.12501C6.98767 5.64968 7.413 6.07501 7.93767 6.07501C8.53141 6.07501 9.01272 5.5937 9.01272 4.99996C9.01272 4.47529 8.58739 4.04996 8.06272 4.04996C7.76855 4.04996 7.5056 4.18367 7.33134 4.39363C7.12138 4.56789 6.98767 4.83084 6.98767 5.12501Z" fill="#787887"/>
</svg>
