<svg width="32" height="32" viewBox="0 0 32 32" fill="none" xmlns="http://www.w3.org/2000/svg">
<path fill-rule="evenodd" clip-rule="evenodd" d="M7.2154 7.73984C7.95744 6.36574 9.39331 5.50928 10.955 5.50928H15.999V4.00928H10.955C8.84214 4.00928 6.89949 5.16802 5.89555 7.0271L1.24388 15.641L1.15381 15.8078V15.9974V21.8545C1.15381 25.0302 3.72817 27.6045 6.90381 27.6045H15.999V26.1045H6.90381C4.5566 26.1045 2.65381 24.2017 2.65381 21.8545V16.7474H8.14708C9.36702 16.7474 10.5024 17.3707 11.1573 18.4C12.0875 19.862 13.7002 20.7474 15.433 20.7474H15.999V19.2474H15.433C14.2131 19.2474 13.0777 18.624 12.4228 17.5948C11.4926 16.1328 9.87992 15.2474 8.14708 15.2474H3.16119L7.2154 7.73984ZM24.7828 7.73984C24.0408 6.36574 22.6049 5.50928 21.0433 5.50928H15.9992V4.00928H21.0433C23.1561 4.00928 25.0987 5.16802 26.1027 7.0271L30.7544 15.641L30.8444 15.8078V15.9974V21.8545C30.8444 25.0302 28.2701 27.6045 25.0944 27.6045H15.9992V26.1045H25.0944C27.4416 26.1045 29.3444 24.2017 29.3444 21.8545V16.7474H23.8512C22.6312 16.7474 21.4958 17.3707 20.841 18.4C19.9108 19.862 18.2981 20.7474 16.5652 20.7474H15.9992V19.2474H16.5652C17.7852 19.2474 18.9205 18.624 19.5754 17.5948C20.5056 16.1328 22.1183 15.2474 23.8512 15.2474H28.837L24.7828 7.73984Z" fill="#001D47"/>
</svg>
