<svg width="17" height="21" viewBox="0 0 17 21" fill="none" xmlns="http://www.w3.org/2000/svg">
<g id="Group">
<path id="Vector" d="M16.1798 2.76946L8.5893 0.439031C8.45613 0.40574 8.32297 0.40574 8.1898 0.439031L0.466086 2.76946C0.199751 2.83605 0 3.10238 0 3.40201V11.9913C0 16.6522 7.72371 20.1811 8.05663 20.3475C8.15651 20.3808 8.22309 20.4141 8.32297 20.4141C8.42284 20.4141 8.52272 20.3808 8.5893 20.3475C8.92222 20.2143 16.6459 16.6522 16.6459 11.9913V3.40201C16.6459 3.10238 16.4462 2.83605 16.1798 2.76946ZM15.3143 11.9914C15.3143 15.0209 10.5202 17.9506 8.32297 18.9827C6.1257 17.9174 1.33167 14.9877 1.33167 11.9914V3.90156L8.38955 1.77088L15.3143 3.90156V11.9914Z" fill="black"/>
<path id="Vector_2" d="M5.72567 10.1609C5.45934 9.89453 5.05984 9.89453 4.7935 10.1609C4.52717 10.4272 4.52717 10.8267 4.7935 11.093L6.69123 12.9908C6.82439 13.1239 6.99085 13.1905 7.15731 13.1905C7.32377 13.1905 7.49023 13.1239 7.6234 12.9908L11.8514 8.76278C12.1177 8.49645 12.1177 8.09695 11.8514 7.83061C11.585 7.56428 11.1855 7.56428 10.9192 7.83061L7.15713 11.5593L5.72567 10.1609Z" fill="black"/>
</g>
</svg>
