<svg width="18" height="18" viewBox="0 0 18 18" fill="none" xmlns="http://www.w3.org/2000/svg">
<path fill-rule="evenodd" clip-rule="evenodd" d="M8.46967 2.27826C8.76256 1.98537 9.23744 1.98537 9.53033 2.27826L12.4835 5.23139C12.7763 5.52428 12.7763 5.99916 12.4835 6.29205C12.1906 6.58494 11.7157 6.58494 11.4228 6.29205L9 3.86925L6.57721 6.29205C6.28431 6.58494 5.80944 6.58494 5.51654 6.29205C5.22365 5.99916 5.22365 5.52428 5.51654 5.23139L8.46967 2.27826Z" fill="#4D5157"/>
<path fill-rule="evenodd" clip-rule="evenodd" d="M9 2.0625C9.41421 2.0625 9.75 2.39829 9.75 2.8125V10.6875C9.75 11.1017 9.41421 11.4375 9 11.4375C8.58579 11.4375 8.25 11.1017 8.25 10.6875V2.8125C8.25 2.39829 8.58579 2.0625 9 2.0625Z" fill="#4D5157"/>
<path fill-rule="evenodd" clip-rule="evenodd" d="M2.25 8.8125C2.66421 8.8125 3 9.14829 3 9.5625V14.4375H15V9.5625C15 9.14829 15.3358 8.8125 15.75 8.8125C16.1642 8.8125 16.5 9.14829 16.5 9.5625V14.625C16.5 14.9731 16.3617 15.3069 16.1156 15.5531C15.8694 15.7992 15.5356 15.9375 15.1875 15.9375H2.8125C2.4644 15.9375 2.13056 15.7992 1.88442 15.5531C1.63828 15.3069 1.5 14.9731 1.5 14.625V9.5625C1.5 9.14829 1.83579 8.8125 2.25 8.8125Z" fill="#4D5157"/>
</svg>
