<svg width="18" height="18" viewBox="0 0 18 18" fill="none" xmlns="http://www.w3.org/2000/svg">
<path fill-rule="evenodd" clip-rule="evenodd" d="M6.1875 4.6875C4.58242 4.6875 3.28125 5.98867 3.28125 7.59375C3.28125 9.19883 4.58242 10.5 6.1875 10.5C7.79258 10.5 9.09375 9.19883 9.09375 7.59375C9.09375 5.98867 7.79258 4.6875 6.1875 4.6875ZM1.78125 7.59375C1.78125 5.16025 3.754 3.1875 6.1875 3.1875C8.621 3.1875 10.5938 5.16025 10.5938 7.59375C10.5938 10.0273 8.621 12 6.1875 12C3.754 12 1.78125 10.0273 1.78125 7.59375Z" fill="#7F7F7F"/>
<path fill-rule="evenodd" clip-rule="evenodd" d="M12.3603 4.72118C11.9498 4.65814 11.5306 4.6838 11.1308 4.79643C10.7321 4.90876 10.3179 4.67662 10.2055 4.27793C10.0932 3.87923 10.3254 3.46497 10.724 3.35264C11.3301 3.18189 11.9657 3.14299 12.588 3.23856C13.2103 3.33414 13.805 3.56196 14.3318 3.9067C14.8587 4.25143 15.3056 4.70507 15.6424 5.23705C15.9792 5.76904 16.198 6.36701 16.2842 6.99071C16.3705 7.61441 16.322 8.24934 16.1422 8.85275C15.9624 9.45615 15.6553 10.014 15.2418 10.4888C14.8282 10.9635 14.3177 11.3441 13.7446 11.6049C13.1715 11.8658 12.5492 12.0008 11.9196 12.0008C11.5054 12.0009 11.1696 11.6651 11.1695 11.2509C11.1695 10.8367 11.5052 10.5009 11.9194 10.5008C12.3347 10.5008 12.7452 10.4117 13.1232 10.2397C13.5012 10.0677 13.8379 9.8166 14.1107 9.50346C14.3835 9.19031 14.5861 8.82234 14.7047 8.42433C14.8233 8.02633 14.8553 7.60752 14.7984 7.19612C14.7415 6.78473 14.5971 6.3903 14.375 6.0394C14.1528 5.6885 13.8581 5.38928 13.5106 5.16189C13.163 4.9345 12.7708 4.78422 12.3603 4.72118Z" fill="#7F7F7F"/>
<path fill-rule="evenodd" clip-rule="evenodd" d="M6.18716 12C5.3146 12 4.45485 12.21 3.68051 12.6122C2.90616 13.0144 2.23995 13.597 1.73813 14.3108C1.4999 14.6497 1.03209 14.7312 0.693234 14.493C0.354379 14.2548 0.272801 13.787 0.511024 13.4481C1.15126 12.5374 2.00121 11.7942 2.98912 11.281C3.97703 10.7679 5.07389 10.5 6.1871 10.5C7.30032 10.5 8.3972 10.7678 9.38515 11.2808C10.3731 11.7938 11.2231 12.537 11.8634 13.4477C12.1017 13.7865 12.0201 14.2543 11.6813 14.4926C11.3424 14.7308 10.8746 14.6493 10.6364 14.3105C10.1345 13.5967 9.46824 13.0141 8.69386 12.612C7.91949 12.2099 7.05972 12 6.18716 12Z" fill="#7F7F7F"/>
<path fill-rule="evenodd" clip-rule="evenodd" d="M14.4265 12.6111C13.6522 12.209 12.7925 11.9994 11.92 12C11.5058 12.0003 11.1697 11.6648 11.1694 11.2505C11.1691 10.8363 11.5047 10.5003 11.9189 10.5C13.0324 10.4992 14.1297 10.7667 15.1178 11.2799C16.106 11.7931 16.956 12.5368 17.5958 13.4481C17.8338 13.7871 17.7519 14.2549 17.4129 14.4929C17.0739 14.7309 16.6061 14.649 16.3681 14.31C15.8668 13.5959 15.2008 13.0132 14.4265 12.6111Z" fill="#7F7F7F"/>
</svg>
