<svg width="32" height="32" viewBox="0 0 32 32" fill="none" xmlns="http://www.w3.org/2000/svg">
<path d="M21.6122 26H8.8505V24.2358H21.6122V26ZM17.5756 18.2433H8.79297V16.4216H17.5756V18.2433ZM12.7528 12.1261L13.0501 20.9855C13.0884 21.8484 12.9957 22.6218 12.772 23.3058C12.5483 23.9897 12.1424 24.4819 11.5543 24.7824L9.67507 24.2358C10.0778 24.2358 10.391 24.0569 10.6147 23.6989C10.8384 23.3346 10.9886 22.8999 11.0653 22.3949C11.1484 21.89 11.1836 21.4201 11.1708 20.9855L10.9023 12.1261C10.8576 10.8093 11.0973 9.70352 11.6214 8.80864C12.152 7.91375 12.8551 7.23939 13.7308 6.78556C14.6129 6.32533 15.5526 6.09521 16.5497 6.09521C17.4254 6.09521 18.2212 6.25182 18.9371 6.56503C19.6594 6.87824 20.2667 7.30011 20.7589 7.83065C21.2511 8.36119 21.5962 8.96205 21.7944 9.63321C21.9989 10.298 22.0149 10.9851 21.8423 11.6946L19.9918 11.1865C20.0941 10.5089 19.995 9.92085 19.6946 9.42227C19.4006 8.9173 18.9787 8.53058 18.429 8.26212C17.8793 7.98726 17.2848 7.85303 16.6456 7.85942C15.9616 7.85942 15.3224 8.01922 14.728 8.33882C14.1335 8.65203 13.6541 9.12505 13.2898 9.75786C12.9254 10.3907 12.7464 11.1801 12.7528 12.1261Z" fill="black"/>
</svg>
