<svg width="32" height="32" viewBox="0 0 32 32" fill="none" xmlns="http://www.w3.org/2000/svg">
<path d="M14.8622 28.4545V3.90906H16.2045V28.4545H14.8622ZM20.2219 11.2727C20.1132 10.2116 19.637 9.37745 18.7933 8.77021C17.9495 8.15657 16.8948 7.84975 15.6292 7.84975C14.7279 7.84975 13.9353 8.00316 13.2514 8.30998C12.5738 8.61041 12.0433 9.02909 11.6598 9.56602C11.2762 10.0966 11.0845 10.7038 11.0845 11.3878C11.0845 11.9055 11.1995 12.3561 11.4296 12.7397C11.6661 13.1232 11.9762 13.4524 12.3597 13.7272C12.7432 13.9957 13.1619 14.2226 13.6157 14.408C14.0696 14.5934 14.5202 14.7468 14.9676 14.8682L17.0099 15.4435C17.598 15.6033 18.2052 15.8142 18.8316 16.0763C19.4644 16.332 20.0493 16.6644 20.5862 17.0735C21.1232 17.4762 21.5578 17.978 21.8902 18.5788C22.229 19.1797 22.3984 19.902 22.3984 20.7457C22.3984 21.8004 22.1235 22.7496 21.5738 23.5934C21.0305 24.4371 20.2443 25.1051 19.2152 25.5973C18.186 26.0895 16.9492 26.3356 15.5046 26.3356C14.1431 26.3356 12.9637 26.115 11.9666 25.674C10.9758 25.2265 10.196 24.6065 9.62709 23.8139C9.05819 23.0149 8.7354 22.0912 8.65869 21.0429H10.6818C10.7457 21.81 10.9982 22.4556 11.4392 22.9797C11.8867 23.4975 12.462 23.8874 13.1651 24.1495C13.8746 24.4115 14.6544 24.5426 15.5046 24.5426C16.4634 24.5426 17.3167 24.3828 18.0646 24.0632C18.8188 23.7436 19.4101 23.2993 19.8384 22.7304C20.273 22.1552 20.4904 21.484 20.4904 20.7169C20.4904 20.0522 20.3146 19.5025 19.963 19.0678C19.6115 18.6267 19.1321 18.2624 18.5248 17.9748C17.9176 17.6807 17.224 17.4218 16.4442 17.1981L14.076 16.5078C12.5419 16.0603 11.3402 15.4307 10.4708 14.6189C9.60791 13.8007 9.17645 12.7525 9.17645 11.474C9.17645 10.4066 9.46409 9.47014 10.0394 8.66474C10.6147 7.85295 11.3945 7.22014 12.3789 6.7663C13.3632 6.31247 14.4659 6.08555 15.6867 6.08555C16.9204 6.08555 18.0135 6.31247 18.9659 6.7663C19.9183 7.21375 20.6725 7.82738 21.2286 8.60721C21.7911 9.38704 22.0916 10.2755 22.1299 11.2727H20.2219Z" fill="black"/>
</svg>
