<svg width="32" height="32" viewBox="0 0 32 32" fill="none" xmlns="http://www.w3.org/2000/svg">
<path d="M15.3719 0.815314C15.7005 0.620854 16.1089 0.620855 16.4375 0.815314L28.7068 8.07607C29.025 8.26438 29.2201 8.60667 29.2201 8.97643V23.5431C29.2201 23.9128 29.025 24.2551 28.7068 24.4435L16.4375 31.7042C16.1089 31.8987 15.7005 31.8987 15.3719 31.7042L3.10259 24.4435C2.78438 24.2551 2.58921 23.9128 2.58921 23.5431V8.97643C2.58921 8.60667 2.78438 8.26438 3.10259 8.07607L15.3719 0.815314Z" fill="#E7E8E9"/>
<mask id="mask0_4225_51915" style="mask-type:alpha" maskUnits="userSpaceOnUse" x="2" y="0" width="28" height="32">
<path d="M15.3699 0.815314C15.6985 0.620854 16.1069 0.620855 16.4355 0.815314L28.7048 8.07607C29.023 8.26438 29.2182 8.60667 29.2182 8.97643V23.5431C29.2182 23.9128 29.023 24.2551 28.7048 24.4435L16.4355 31.7042C16.1069 31.8987 15.6985 31.8987 15.3699 31.7042L3.10064 24.4435C2.78243 24.2551 2.58725 23.9128 2.58725 23.5431V8.97643C2.58725 8.60667 2.78243 8.26438 3.10064 8.07607L15.3699 0.815314Z" fill="#E7E8E9"/>
</mask>
<g mask="url(#mask0_4225_51915)">
<path fill-rule="evenodd" clip-rule="evenodd" d="M13.1928 8.11489L14.2512 9.84173L12.1105 10.0153L12.1609 9.6628L13.1928 8.11489ZM13.3019 7.95123L14.4163 9.76946L15.7807 8.22715L15.7474 8.18977L13.3137 7.93359L13.3019 7.95123ZM15.9329 8.398L15.2184 11.3152L18.8969 11.7517L18.9141 11.7537L18.8855 11.7122L15.9329 8.398ZM18.9874 11.8599L18.954 11.8986L17.4694 13.6207L20.1093 13.8007L20.0971 13.9788L17.3903 13.7942L17.8128 16.5707L21.5328 17.4534L21.5649 17.461L20.1664 13.5695L18.9874 11.8599ZM21.6043 17.5706L21.5794 17.5991L20.7609 18.5344L24.6241 20.3414L24.7379 20.3946L24.6503 20.4846L17.4107 27.9147L18.9018 29.4058L26.1983 25.3452L29.5846 22.1506L29.7071 22.2805L26.3127 25.4827L26.3046 25.4903L26.2949 25.4958L18.9298 29.5946L18.9268 29.5963L18.9268 29.5962L14.94 31.6203L16.0676 32.2705L29.8371 24.329V21.8953L24.8417 20.2301L21.6395 17.6684L21.6043 17.5706ZM13.3031 30.6764L8.06893 26.7508L7.4661 27.3105L13.3031 30.6764ZM7.30423 27.2172L8.00209 26.5692L8.78056 25.8463L2.33224 24.1102L7.29348 27.211L7.30423 27.2172ZM2.28026 24.0777L2.32204 23.9226L8.85712 25.682L8.16618 19.0866L8.15094 18.9412L8.28726 18.9941L12.2144 20.5181L8.91671 16.9849L8.19011 18.8852L2.16992 24.0088L2.28026 24.0777ZM8.98248 16.8128L13.4209 17.4046L9.29879 14.4436L9.02268 16.7077L8.98248 16.8128ZM9.32344 14.2415L13.543 17.2725L11.44 12.6458L11.4214 12.605L9.34291 14.0819L9.32344 14.2415ZM11.5739 12.4967L14.8551 11.3834L12.0802 10.2273L11.7766 12.3527L11.5739 12.4967ZM11.7988 12.6089L14.9951 11.5245L14.6527 13.5792L11.7988 12.6089ZM13.7382 17.2705L14.6169 13.7557L11.6879 12.7598L13.7382 17.2705ZM9.19494 17.0213L13.6393 17.6139L12.5134 20.5768L9.19494 17.0213ZM12.7942 23.0176L12.638 20.7793L13.8352 19.6862L12.7942 23.0176ZM15.3131 17.9182L14.0822 19.2026L13.8681 17.6506L15.3131 17.9182ZM12.7625 20.4239L13.7221 17.8987L13.9241 19.3633L12.7625 20.4239ZM15.3806 17.7491L13.8724 17.4698L14.7103 14.1182L15.3806 17.7491ZM15.5575 17.7234L14.8624 13.9585L17.5847 16.6229L15.5575 17.7234ZM15.5468 17.9323L17.7288 16.7478L20.3667 18.5064L14.2577 19.2774L15.5468 17.9323ZM14.0871 19.4789L20.2248 18.7043L12.8953 23.2927L14.0871 19.4789ZM17.0805 27.841L12.8011 23.6821L12.1381 28.2026L17.0805 27.841ZM12.6422 23.5351L12.0305 27.7053L11.4173 23.8028L11.3928 23.6468L11.2718 23.7482L9.21047 25.4752L10.7864 22.0983L12.6422 23.5351ZM10.6473 21.9741L9.0147 25.4725L8.37332 19.3502L10.6473 21.9741ZM12.355 20.7642L8.55802 19.2907L10.7682 21.8409L12.355 20.7642ZM12.6352 23.3038L10.9047 21.9641L12.4677 20.9035L12.6352 23.3038ZM8.20189 26.6273L8.96336 25.9202L11.97 28.3631L14.2037 31.1287L8.20189 26.6273ZM14.7196 31.4832L12.3052 28.4939L15.9268 29.8161L14.7196 31.4832ZM12.4547 28.3584L16.0325 29.6646L17.1115 28.0177L12.4547 28.3584ZM16.1431 29.8217L17.2997 28.0562L18.7362 29.4927L15.0124 31.3832L16.1407 29.8251L16.1408 29.8252L16.1431 29.8217ZM20.4453 18.7769L17.2478 27.7546L12.8819 23.5117L20.4453 18.7769ZM17.5064 27.5606L20.6667 18.6875L24.4347 20.4499L17.5064 27.5606ZM21.3475 17.5929L20.5999 18.4473L18.1971 16.8454L21.3475 17.5929ZM17.2085 13.7869L17.6051 16.393L14.9423 13.7869H17.2085ZM17.0781 13.6083H14.8288L15.1662 11.584L17.0781 13.6083ZM15.7035 8.58381L15.0458 11.2695L12.4078 10.1703L14.4105 10.008L14.4463 10.0051L14.4701 9.97812L15.7035 8.58381ZM18.7091 11.9092L15.3416 11.5096L17.2822 13.5644L18.7091 11.9092ZM11.2654 23.9865L11.9093 28.0837L9.09973 25.801L11.2654 23.9865Z" fill="url(#paint0_linear_4225_51915)"/>
</g>
<defs>
<linearGradient id="paint0_linear_4225_51915" x1="9" y1="15.5" x2="29.5" y2="23" gradientUnits="userSpaceOnUse">
<stop stop-color="#38414D"/>
<stop offset="0.192708" stop-color="#38414D"/>
<stop offset="0.307292"/>
<stop offset="1"/>
</linearGradient>
</defs>
</svg>
