<svg width="32" height="32" viewBox="0 0 32 32" fill="none" xmlns="http://www.w3.org/2000/svg">
<rect x="28.7471" y="3.26367" width="25.4619" height="13" rx="6.5" transform="rotate(90 28.7471 3.26367)" fill="#FDA022"/>
<rect x="16.1904" y="3.28418" width="25.4431" height="13" rx="6.5" transform="rotate(90 16.1904 3.28418)" fill="#007EFC"/>
<circle cx="22.2588" cy="9.75" r="6.5" transform="rotate(45 22.2588 9.75)" fill="#FFB900"/>
<path fill-rule="evenodd" clip-rule="evenodd" d="M24.9742 15.8073C22.5612 16.8177 19.602 16.2837 17.5584 14.2401C15.5148 12.1965 14.9808 9.23731 15.9912 6.82422L24.9742 15.8073Z" fill="#FF3983"/>
<circle cx="9.72363" cy="22.2842" r="6.5" transform="rotate(45 9.72363 22.2842)" fill="#00B2F6"/>
<path fill-rule="evenodd" clip-rule="evenodd" d="M15.7846 25.0024C16.7958 22.5891 16.262 19.6292 14.218 17.5852C12.174 15.5412 9.21412 15.0074 6.80078 16.0186L15.7846 25.0024Z" fill="#04D7E8"/>
<path fill-rule="evenodd" clip-rule="evenodd" d="M14.3198 5.15381L16.3046 7.13858C15.2611 9.5192 15.7138 12.3975 17.6626 14.3463C19.6114 16.2951 22.4897 16.7478 24.8703 15.7043L26.8549 17.6889C29.3933 20.2273 29.3933 24.3429 26.8549 26.8813C24.3165 29.4197 20.2009 29.4197 17.6625 26.8813L15.6782 24.897C16.7213 22.5164 16.2686 19.6384 14.3199 17.6898C12.3713 15.7411 9.49327 15.2884 7.11275 16.3315L5.12744 14.3462C2.58903 11.8078 2.58903 7.69222 5.12744 5.15381C7.66585 2.6154 11.7814 2.6154 14.3198 5.15381Z" fill="url(#paint0_linear_4226_51937)"/>
<defs>
<linearGradient id="paint0_linear_4226_51937" x1="5.12744" y1="5.15381" x2="26.8549" y2="26.8813" gradientUnits="userSpaceOnUse">
<stop stop-color="#612ECA"/>
<stop offset="1" stop-color="#DD0DF0"/>
</linearGradient>
</defs>
</svg>
