<svg width="32" height="33" viewBox="0 0 32 33" fill="none" xmlns="http://www.w3.org/2000/svg">
<path d="M18.7089 18.5073C18.6698 18.4993 18.6299 18.4962 18.59 18.498C18.5212 18.5018 18.4538 18.5198 18.3919 18.551C18.2717 18.6108 18.1785 18.716 18.1318 18.8448C18.0851 18.9736 18.0884 19.116 18.1411 19.2423L18.1375 19.2476L19.3235 22.1995C20.4582 21.4535 21.3192 20.3393 21.7704 19.0328L18.7142 18.5007L18.7089 18.5073ZM13.9536 18.9257C13.9279 18.8093 13.865 18.7052 13.775 18.63C13.6851 18.5548 13.5732 18.5129 13.4574 18.511C13.4232 18.5106 13.389 18.5137 13.3554 18.5204L13.3503 18.5139L10.3207 19.0437C10.7756 20.3399 11.633 21.4451 12.7599 22.188L13.934 19.2652L13.9248 19.2538C13.9681 19.1504 13.9782 19.0354 13.9536 18.9257ZM16.4909 20.0719C16.4467 19.9869 16.3809 19.9159 16.3005 19.8664C16.2201 19.8169 16.1283 19.7909 16.0346 19.791C15.941 19.7911 15.8492 19.8174 15.769 19.8671C15.6887 19.9167 15.6231 19.9879 15.579 20.073H15.5765L14.0867 22.8485C15.1534 23.2227 16.3002 23.2834 17.3986 23.024C17.6023 22.9762 17.8013 22.9189 17.9955 22.8521L16.5022 20.0717L16.4909 20.0719ZM21.2073 13.6246L18.915 15.7383L18.9163 15.745C18.8459 15.8084 18.7934 15.8903 18.7645 15.982C18.7357 16.0736 18.7314 16.1717 18.7522 16.2656C18.773 16.3596 18.8182 16.4459 18.8828 16.5156C18.9474 16.5853 19.0292 16.6356 19.1193 16.6612L19.1221 16.674L22.0913 17.5551C22.2196 16.1809 21.9093 14.801 21.2073 13.6249V13.6246ZM16.9486 13.8614C16.9529 13.9577 16.9824 14.0509 17.0341 14.1313C17.0857 14.2117 17.1575 14.2762 17.2418 14.3179C17.3261 14.3596 17.4198 14.377 17.513 14.3683C17.6062 14.3596 17.6953 14.325 17.7709 14.2683L17.78 14.2722L20.2882 12.44C19.3334 11.4766 18.0979 10.8629 16.7716 10.6935L16.9458 13.8605L16.9486 13.8614ZM14.2924 14.2799C14.368 14.3366 14.4572 14.371 14.5504 14.3797C14.6435 14.3883 14.7372 14.3707 14.8215 14.3288C14.9057 14.2869 14.9773 14.2223 15.0288 14.1417C15.0802 14.0612 15.1094 13.9679 15.1134 13.8716L15.1262 13.8654L15.3005 10.6934C15.0901 10.7194 14.8812 10.7565 14.6745 10.8045C13.575 11.0591 12.5665 11.6253 11.7628 12.4391L14.2875 14.2829L14.2924 14.2799ZM12.9464 16.6767C13.0368 16.6513 13.1188 16.6011 13.1836 16.5315C13.2485 16.4618 13.2938 16.3754 13.3146 16.2813C13.3355 16.1872 13.3312 16.0891 13.3022 15.9973C13.2731 15.9056 13.2204 15.8237 13.1498 15.7603L13.1523 15.7477L10.8473 13.6239C10.1441 14.8029 9.84232 16.1898 9.98954 17.5653L12.9441 16.687L12.9464 16.6767ZM15.1852 17.6097L16.0355 18.0309L16.8832 17.6106L17.0938 16.6677L16.507 15.9118H15.5628L14.9744 16.6665L15.1852 17.6097Z" fill="#326CE5"/>
<path d="M30.0916 19.4674L27.6687 8.62525C27.6036 8.34476 27.4788 8.08266 27.3034 7.85787C27.128 7.63308 26.9064 7.45119 26.6545 7.32534L16.8472 2.50134C16.593 2.37638 16.3149 2.31152 16.0332 2.31152C15.7516 2.31152 15.4735 2.37638 15.2193 2.50134L5.41393 7.32792C5.16198 7.45369 4.94028 7.63553 4.76484 7.8603C4.58939 8.08508 4.46458 8.34718 4.39942 8.62769L1.98043 19.4696C1.92077 19.7436 1.92058 20.0279 1.97988 20.302C1.99734 20.3855 2.02015 20.4677 2.04816 20.5481C2.0955 20.6853 2.15818 20.8164 2.23493 20.9387C2.26817 20.991 2.30322 21.0419 2.34132 21.0911L9.12849 29.7847C9.15811 29.8225 9.19079 29.857 9.2232 29.8921C9.32969 30.0089 9.44995 30.1116 9.58116 30.1977C9.74712 30.3053 9.92798 30.3863 10.1176 30.438C10.273 30.4819 10.4334 30.5047 10.5946 30.5057H10.7001L21.4786 30.5032C21.5441 30.5029 21.6096 30.4989 21.6747 30.4913C21.7681 30.4804 21.8605 30.4623 21.9513 30.4371C22.0163 30.4195 22.0805 30.3983 22.1434 30.3738C22.1924 30.3544 22.2414 30.3351 22.2887 30.3118C22.3595 30.2768 22.4282 30.2375 22.4944 30.194C22.6651 30.0834 22.8172 29.9447 22.9445 29.7835L23.1515 29.5185L29.7293 21.0883C29.8554 20.9254 29.9545 20.7422 30.0225 20.546C30.0509 20.4653 30.0741 20.3828 30.092 20.299C30.1515 20.0249 30.1513 19.7406 30.0915 19.4666L30.0916 19.4674ZM19.9191 23.6842C19.9466 23.7676 19.9793 23.8491 20.0168 23.9282C19.9568 24.0364 19.9405 24.1645 19.9714 24.285C20.1141 24.6217 20.2884 24.9432 20.4918 25.2449C20.6056 25.3992 20.7107 25.5601 20.8065 25.7269C20.8301 25.772 20.861 25.8419 20.8834 25.8896C20.9256 25.9624 20.9526 26.0434 20.9627 26.1276C20.9727 26.2117 20.9655 26.2971 20.9416 26.3782C20.9177 26.4593 20.8775 26.5343 20.8238 26.5985C20.77 26.6627 20.7038 26.7145 20.6294 26.7508C20.555 26.787 20.4741 26.8068 20.3918 26.8088C20.3096 26.8109 20.2278 26.7952 20.1518 26.7628C20.0758 26.7304 20.0072 26.6819 19.9504 26.6205C19.8937 26.5592 19.85 26.4862 19.8223 26.4064C19.7999 26.3591 19.7687 26.2961 19.7497 26.2514C19.6826 26.0702 19.6257 25.8852 19.5793 25.6972C19.4775 25.3456 19.3427 25.005 19.1766 24.6804C19.1043 24.58 18.9968 24.5128 18.877 24.4932C18.8582 24.4598 18.7887 24.3284 18.7514 24.2606C17.0056 24.9418 15.0774 24.9367 13.3349 24.2463L13.2021 24.4942C13.1073 24.5093 13.0192 24.5536 12.9492 24.6212C12.749 24.9596 12.596 25.3253 12.4947 25.7075C12.4487 25.8955 12.3921 26.0805 12.3253 26.2617C12.3065 26.3061 12.2751 26.3683 12.2527 26.4154V26.4167L12.2517 26.4179C12.224 26.4978 12.1804 26.5708 12.1236 26.6323C12.0668 26.6938 11.9981 26.7423 11.922 26.7747C11.8459 26.8072 11.7641 26.8228 11.6817 26.8207C11.5994 26.8185 11.5184 26.7986 11.444 26.7622C11.3696 26.7258 11.3034 26.6738 11.2497 26.6094C11.196 26.5451 11.156 26.4699 11.1323 26.3886C11.1086 26.3073 11.1016 26.2219 11.1119 26.1377C11.1222 26.0535 11.1496 25.9724 11.1921 25.8998C11.2143 25.8518 11.2439 25.7823 11.2672 25.7372C11.363 25.57 11.468 25.4086 11.5818 25.2539C11.7889 24.9442 11.9668 24.6148 12.1131 24.2702C12.1286 24.1534 12.1104 24.0345 12.0608 23.9282L12.1676 23.6646C10.5612 22.6879 9.35727 21.1393 8.7829 19.311L8.52715 19.3558C8.42793 19.2833 8.31095 19.2408 8.18949 19.2333C7.83954 19.3023 7.49693 19.4062 7.16649 19.5435C6.99491 19.623 6.81908 19.6924 6.63983 19.7513C6.59742 19.7633 6.53623 19.7753 6.48783 19.7862C6.48394 19.7876 6.4806 19.7894 6.47671 19.7904C6.47371 19.7908 6.47069 19.7911 6.46767 19.7912C6.38976 19.8176 6.30736 19.827 6.22575 19.8187C6.14414 19.8104 6.0651 19.7846 5.99371 19.743C5.92231 19.7015 5.86013 19.645 5.81115 19.5772C5.76216 19.5095 5.72744 19.4319 5.70922 19.3495C5.691 19.2672 5.68968 19.1818 5.70533 19.0988C5.72099 19.0159 5.75328 18.9373 5.80014 18.8679C5.84701 18.7986 5.9074 18.7401 5.97747 18.6962C6.04754 18.6523 6.12573 18.6239 6.20705 18.6129L6.21553 18.6108L6.22068 18.6094C6.26977 18.5975 6.33263 18.5807 6.37741 18.5718C6.56413 18.5451 6.75218 18.5295 6.94064 18.5251C7.29607 18.5012 7.64838 18.4416 7.99257 18.3472C8.09457 18.2802 8.18077 18.1907 8.24484 18.085L8.49058 18.0111C8.22392 16.1029 8.65046 14.1604 9.68839 12.5562L9.50022 12.3834C9.49336 12.258 9.45251 12.1371 9.38229 12.0344C9.11197 11.795 8.8196 11.5834 8.50935 11.4026C8.34183 11.3146 8.17936 11.2167 8.02275 11.1095C7.98714 11.0821 7.93986 11.041 7.9012 11.0086L7.89244 11.0023C7.75893 10.9035 7.66881 10.7543 7.64176 10.5872C7.61471 10.4202 7.65294 10.2489 7.74808 10.1108C7.8043 10.04 7.87594 9.98371 7.9572 9.94667C8.03845 9.90963 8.12704 9.89284 8.21578 9.89766C8.36515 9.90426 8.50854 9.96 8.62492 10.0567C8.66483 10.0889 8.71949 10.1321 8.75495 10.1634C8.89158 10.2966 9.02067 10.4377 9.14156 10.5861C9.38144 10.8576 9.64647 11.1043 9.93287 11.3228C10.0402 11.3809 10.1654 11.3934 10.2815 11.3576C10.3514 11.4101 10.422 11.4618 10.4932 11.5126C11.5246 10.3832 12.8601 9.59711 14.3283 9.25537C14.6778 9.17384 15.0323 9.11768 15.3894 9.08731L15.4033 8.83171C15.4945 8.74825 15.5606 8.63968 15.5939 8.5188C15.6067 8.15195 15.5848 7.78468 15.5285 7.42219C15.4912 7.23222 15.4644 7.04021 15.4484 6.84709C15.4469 6.80311 15.4492 6.74236 15.4498 6.69221C15.4498 6.68648 15.4484 6.68075 15.4484 6.67531C15.4401 6.59078 15.449 6.50538 15.4747 6.42464C15.5004 6.3439 15.5422 6.2696 15.5975 6.20655C15.6528 6.14349 15.7203 6.09308 15.7956 6.05856C15.871 6.02404 15.9525 6.00619 16.035 6.00615C16.1175 6.00611 16.1991 6.02388 16.2745 6.05833C16.3498 6.09277 16.4174 6.14312 16.4727 6.20612C16.5281 6.26912 16.57 6.34338 16.5957 6.4241C16.6215 6.50481 16.6305 6.5902 16.6223 6.67474C16.6223 6.72775 16.6253 6.79795 16.6235 6.84666C16.6075 7.03975 16.5806 7.23172 16.543 7.42162C16.4864 7.78417 16.4641 8.15153 16.4765 8.51852C16.4997 8.6412 16.5686 8.74968 16.6683 8.82082C16.6704 8.86452 16.6773 9.01037 16.6825 9.09075C18.538 9.26459 20.2691 10.1263 21.5544 11.5159L21.7777 11.3516C21.8977 11.3728 22.021 11.359 22.1338 11.3118C22.4201 11.0929 22.6851 10.8459 22.9251 10.5742C23.0462 10.4257 23.1756 10.2846 23.3127 10.1515C23.3487 10.1197 23.403 10.077 23.4428 10.0447C23.5017 9.98483 23.5722 9.93843 23.6496 9.90847C23.727 9.87851 23.8097 9.86566 23.8923 9.87075C23.9748 9.87585 24.0554 9.89877 24.1288 9.93803C24.2023 9.97729 24.2668 10.032 24.3184 10.0987C24.3699 10.1653 24.4073 10.2424 24.4281 10.3248C24.4488 10.4073 24.4525 10.4934 24.4389 10.5774C24.4253 10.6615 24.3947 10.7416 24.3491 10.8127C24.3034 10.8838 24.2438 10.9442 24.1741 10.99C24.1347 11.0228 24.0827 11.0685 24.0449 11.0974C23.8879 11.2048 23.7251 11.3026 23.5571 11.3906C23.2469 11.5715 22.9546 11.7831 22.6842 12.0224C22.6055 12.1173 22.566 12.2402 22.5741 12.3648C22.5414 12.3958 22.4266 12.5005 22.3659 12.5572C23.4067 14.1557 23.8418 16.0921 23.5886 17.9992L23.8255 18.0702C23.8848 18.18 23.9724 18.2708 24.0786 18.3324C24.423 18.427 24.7755 18.4868 25.1311 18.5109C25.3194 18.5154 25.5073 18.5309 25.6938 18.5574C25.7432 18.5667 25.8145 18.587 25.8649 18.5989C25.9462 18.6099 26.0244 18.6383 26.0944 18.6822C26.1645 18.7262 26.2249 18.7847 26.2717 18.8541C26.3185 18.9234 26.3508 19.0021 26.3664 19.085C26.382 19.168 26.3807 19.2534 26.3624 19.3358C26.3441 19.4181 26.3094 19.4957 26.2604 19.5634C26.2113 19.6312 26.1491 19.6876 26.0777 19.7291C26.0063 19.7707 25.9272 19.7964 25.8456 19.8046C25.764 19.8129 25.6816 19.8035 25.6037 19.777L25.5952 19.7759C25.5913 19.7749 25.5877 19.7727 25.5837 19.7716C25.5353 19.7609 25.4745 19.75 25.4321 19.7385C25.2529 19.6792 25.0771 19.6092 24.9057 19.529C24.575 19.3916 24.232 19.2877 23.8817 19.2189C23.7605 19.2149 23.6426 19.26 23.5532 19.3445C23.4698 19.3282 23.3862 19.3131 23.3024 19.2992C22.7349 21.1389 21.5307 22.6996 19.9191 23.6842Z" fill="#326CE5"/>
<path d="M31.3707 19.7449L28.7274 7.91626C28.6563 7.61019 28.5202 7.32418 28.3288 7.07889C28.1374 6.8336 27.8956 6.63515 27.6207 6.49786L16.9213 1.23545C16.644 1.09909 16.3406 1.02832 16.0333 1.02832C15.726 1.02832 15.4226 1.09909 15.1453 1.23545L4.44691 6.50101C4.17203 6.63818 3.93013 6.8365 3.73868 7.08166C3.54722 7.32682 3.41097 7.61271 3.33977 7.9187L0.701061 19.748C0.641541 20.0207 0.635421 20.3029 0.683061 20.5781C0.730701 20.8532 0.831142 21.1159 0.978506 21.3505C1.0148 21.4078 1.05333 21.4634 1.09505 21.517L8.49997 31.0024C8.69404 31.2465 8.93797 31.4435 9.21438 31.5794C9.49078 31.7152 9.79287 31.7867 10.0991 31.7885L21.9739 31.7857C22.2801 31.7839 22.5821 31.7126 22.8586 31.5769C23.135 31.4412 23.379 31.2444 23.5732 31.0005L30.9755 21.5143C31.1651 21.2684 31.2989 20.9819 31.3673 20.6758C31.4357 20.3698 31.4368 20.0519 31.3707 19.7453V19.7449ZM30.0917 20.2988C30.0739 20.3825 30.0507 20.465 30.0224 20.5456C29.9543 20.7419 29.8552 20.9252 29.729 21.0881L23.1511 29.5179L22.9445 29.7833C22.817 29.9445 22.6648 30.0832 22.4939 30.1938C22.4279 30.2372 22.3595 30.2766 22.2889 30.3115C22.2413 30.3342 22.1929 30.3547 22.1436 30.3731C22.0806 30.3978 22.0164 30.4191 21.9512 30.4369C21.8605 30.4621 21.768 30.4803 21.6746 30.4912C21.6095 30.4988 21.5441 30.5027 21.4785 30.5029L10.7001 30.5055H10.5944C10.4332 30.5045 10.2729 30.4818 10.1175 30.4379C9.92799 30.3861 9.74723 30.305 9.58137 30.1973C9.45007 30.1113 9.32972 30.0087 9.22313 29.8919C9.19073 29.8566 9.15804 29.8221 9.12856 29.7844L2.34125 21.0908C2.30343 21.0417 2.26796 20.9908 2.23486 20.938C2.15811 20.8158 2.09543 20.6847 2.04809 20.5475C2.02008 20.467 1.99727 20.3848 1.97981 20.3012C1.92054 20.0271 1.92073 19.7429 1.98037 19.4689L4.39935 8.62675C4.46455 8.3463 4.58938 8.08425 4.76482 7.85953C4.94026 7.6348 5.16194 7.45301 5.41386 7.32727L15.2194 2.50112C15.4736 2.37616 15.7517 2.3113 16.0333 2.3113C16.315 2.3113 16.593 2.37616 16.8472 2.50112L26.6543 7.32512C26.9062 7.45097 27.1278 7.63286 27.3032 7.85765C27.4786 8.08244 27.6034 8.34454 27.6685 8.62503L30.0914 19.4671C30.1511 19.741 30.1512 20.0251 30.0917 20.2991V20.2988Z" fill="white"/>
<path d="M25.8642 18.5986C25.8141 18.5867 25.7426 18.5664 25.6936 18.5571C25.507 18.5305 25.3191 18.5149 25.1309 18.5104C24.7752 18.4864 24.4226 18.4268 24.0781 18.3324C23.9718 18.2707 23.8842 18.1799 23.825 18.0699L23.588 17.9989C23.8414 16.0919 23.4064 14.1554 22.3656 12.5569C22.4262 12.5002 22.5411 12.3955 22.5735 12.3647C22.5654 12.2401 22.605 12.1172 22.6837 12.0223C22.9541 11.783 23.2464 11.5713 23.5566 11.3904C23.7245 11.3025 23.8874 11.2046 24.0443 11.0973C24.0822 11.0683 24.1339 11.0225 24.1735 10.9898C24.2433 10.944 24.3029 10.8837 24.3485 10.8126C24.3941 10.7416 24.4247 10.6614 24.4384 10.5774C24.452 10.4934 24.4483 10.4073 24.4276 10.3248C24.4068 10.2424 24.3695 10.1653 24.318 10.0987C24.2664 10.032 24.2019 9.9773 24.1285 9.93801C24.0552 9.89873 23.9746 9.87577 23.892 9.87064C23.8095 9.8655 23.7268 9.8783 23.6494 9.90821C23.572 9.93811 23.5015 9.98446 23.4426 10.0442C23.4025 10.0768 23.348 10.1194 23.3124 10.1513C23.1753 10.2843 23.0458 10.4254 22.9245 10.5739C22.6846 10.8456 22.4196 11.0926 22.1332 11.3115C22.0205 11.3587 21.8972 11.3725 21.7772 11.3513L21.5539 11.5156C20.2686 10.1261 18.5374 9.2643 16.682 9.09046C16.6765 9.01008 16.6699 8.86452 16.6678 8.82053C16.5681 8.74934 16.4994 8.64086 16.4763 8.51823C16.4639 8.15124 16.4861 7.78388 16.5428 7.42133C16.5801 7.23147 16.6068 7.03955 16.6227 6.84652C16.6245 6.79781 16.6217 6.72703 16.6217 6.67445C16.63 6.58991 16.621 6.50452 16.5952 6.42381C16.5694 6.34309 16.5275 6.26884 16.4722 6.20583C16.4169 6.14283 16.3493 6.09248 16.2739 6.05804C16.1985 6.0236 16.117 6.00582 16.0345 6.00586C15.952 6.0059 15.8705 6.02376 15.7951 6.05827C15.7197 6.09279 15.6522 6.14321 15.597 6.20626C15.5417 6.26932 15.4999 6.34361 15.4742 6.42436C15.4485 6.5051 15.4395 6.59049 15.4479 6.67502C15.4479 6.68075 15.4491 6.6862 15.4492 6.69193C15.4487 6.74207 15.4463 6.80282 15.4479 6.84666C15.4639 7.03983 15.4906 7.23189 15.528 7.4219C15.5842 7.78439 15.6061 8.15166 15.5933 8.51851C15.56 8.63929 15.4939 8.74775 15.4028 8.83114L15.3889 9.08702C15.0318 9.11739 14.6772 9.17355 14.3278 9.25508C12.8597 9.59687 11.5244 10.3829 10.4931 11.5122C10.4217 11.4615 10.3509 11.4098 10.2808 11.3572C10.1647 11.393 10.0396 11.3805 9.93234 11.3224C9.64594 11.1039 9.38092 10.8573 9.14103 10.5858C9.02027 10.4374 8.89132 10.2963 8.75483 10.1631C8.71909 10.1316 8.66444 10.0886 8.62439 10.0557C8.50801 9.95899 8.36462 9.90326 8.21524 9.89666C8.12649 9.89187 8.03788 9.9087 7.95662 9.94579C7.87537 9.98288 7.80374 10.0392 7.74755 10.1101C7.65241 10.2482 7.61418 10.4195 7.64123 10.5865C7.66828 10.7536 7.7584 10.9028 7.8919 11.0016L7.90094 11.0082C7.93933 11.0405 7.98661 11.082 8.02221 11.1087C8.17882 11.2161 8.34129 11.3141 8.50882 11.4022C8.81904 11.5831 9.11136 11.7948 9.38162 12.0343C9.45182 12.1369 9.49273 12.2577 9.49969 12.383L9.68758 12.5561C8.64975 14.1603 8.22331 16.1027 8.49004 18.0109L8.24431 18.0846C8.18018 18.1901 8.09399 18.2795 7.99203 18.3463C7.64782 18.441 7.29546 18.5008 6.93997 18.525C6.75156 18.5294 6.56355 18.545 6.37688 18.5717C6.33182 18.5803 6.26924 18.5966 6.22014 18.6092L6.215 18.6104L6.20665 18.6129C6.12536 18.624 6.04719 18.6523 5.97714 18.6963C5.9071 18.7402 5.84673 18.7987 5.7999 18.868C5.75306 18.9374 5.72079 19.016 5.70515 19.0989C5.68951 19.1818 5.69085 19.2672 5.70907 19.3496C5.7273 19.4319 5.76202 19.5095 5.811 19.5772C5.85998 19.645 5.92215 19.7014 5.99353 19.743C6.06491 19.7846 6.14393 19.8103 6.22553 19.8186C6.30713 19.8269 6.38952 19.8176 6.46741 19.7912L6.47617 19.7898C6.48007 19.7889 6.4834 19.7869 6.4873 19.7862C6.53569 19.7747 6.59661 19.7629 6.63916 19.751C6.81836 19.692 6.99415 19.6226 7.16568 19.5431C7.49621 19.4058 7.83891 19.3019 8.18896 19.2329C8.31035 19.2405 8.42722 19.2831 8.52634 19.3557L8.78223 19.3105C9.35666 21.1389 10.5607 22.6875 12.1672 23.6642L12.0602 23.9278C12.11 24.034 12.1282 24.153 12.1127 24.2698C11.9664 24.6143 11.7885 24.9436 11.5814 25.2532C11.4676 25.4079 11.3625 25.5692 11.2667 25.7363C11.2434 25.7819 11.2137 25.8517 11.1913 25.8994C11.149 25.972 11.1218 26.053 11.1117 26.1371C11.1015 26.2212 11.1086 26.3066 11.1324 26.3877C11.1561 26.4688 11.1962 26.5439 11.2498 26.6081C11.3035 26.6724 11.3696 26.7243 11.4439 26.7607C11.5182 26.797 11.5991 26.8169 11.6813 26.8191C11.7636 26.8213 11.8453 26.8057 11.9214 26.7734C11.9974 26.741 12.066 26.6927 12.1228 26.6314C12.1796 26.5701 12.2234 26.4972 12.2512 26.4175L12.2522 26.4163V26.4149C12.2744 26.3676 12.306 26.3056 12.3248 26.2613C12.3916 26.0801 12.4482 25.8951 12.4941 25.7071C12.5955 25.3249 12.7485 24.9592 12.9486 24.6208C13.0186 24.5532 13.1068 24.5088 13.2016 24.4936L13.3347 24.2457C15.0771 24.936 17.0051 24.941 18.7509 24.2599C18.7882 24.3284 18.8577 24.4593 18.8761 24.4924C18.996 24.5122 19.1036 24.5796 19.1758 24.6801C19.3419 25.0047 19.4769 25.3452 19.5788 25.6968C19.6252 25.8847 19.6821 26.0698 19.7492 26.251C19.7682 26.2957 19.7992 26.3584 19.8217 26.406C19.8495 26.4858 19.8931 26.5587 19.9499 26.6201C20.0066 26.6815 20.0752 26.73 20.1513 26.7624C20.2273 26.7948 20.309 26.8105 20.3913 26.8084C20.4736 26.8063 20.5545 26.7866 20.6289 26.7503C20.7033 26.7141 20.7695 26.6622 20.8232 26.5981C20.877 26.5339 20.9171 26.4588 20.941 26.3777C20.965 26.2966 20.9721 26.2113 20.9621 26.1271C20.9521 26.043 20.9251 25.9619 20.8828 25.8892C20.8605 25.8415 20.8296 25.7717 20.8064 25.7264C20.7106 25.5597 20.6055 25.3987 20.4916 25.2445C20.2883 24.9427 20.114 24.6212 19.9712 24.2845C19.9403 24.1641 19.9564 24.036 20.0163 23.9278C19.9787 23.8487 19.9461 23.7672 19.9185 23.6838C21.5302 22.6992 22.7343 21.1386 23.3018 19.2989C23.3778 19.3114 23.51 19.3352 23.553 19.3442C23.6423 19.2598 23.7601 19.2147 23.8812 19.2186C24.2313 19.2875 24.5742 19.3914 24.9048 19.5288C25.0763 19.609 25.2522 19.6789 25.4315 19.7382C25.474 19.7497 25.5345 19.7606 25.5831 19.7716C25.5872 19.7727 25.5908 19.7745 25.5947 19.7756L25.603 19.7769C25.6809 19.8032 25.7632 19.8125 25.8448 19.8042C25.9263 19.7959 26.0053 19.7701 26.0767 19.7286C26.148 19.687 26.2101 19.6306 26.2591 19.5629C26.3081 19.4952 26.3428 19.4177 26.361 19.3354C26.3793 19.2531 26.3806 19.1677 26.3651 19.0848C26.3495 19.0019 26.3173 18.9233 26.2705 18.854C26.2238 18.7846 26.1635 18.7261 26.0935 18.6821C26.0235 18.6382 25.9454 18.6097 25.8642 18.5986ZM20.2875 12.4398L17.7791 14.2718L17.7703 14.2675C17.6947 14.3243 17.6056 14.3589 17.5124 14.3677C17.4193 14.3765 17.3255 14.3591 17.2412 14.3174C17.1568 14.2757 17.085 14.2112 17.0334 14.1308C16.9818 14.0505 16.9523 13.9572 16.948 13.8609L16.9452 13.8594L16.771 10.6927C18.0973 10.8623 19.3327 11.4762 20.2874 12.4398H20.2875ZM15.5622 15.911H16.5062L17.0931 16.6669L16.8826 17.6096L16.0349 18.03L15.1846 17.6087L14.9738 16.6656L15.5622 15.911ZM14.6741 10.8036C14.8808 10.7556 15.0899 10.7186 15.3003 10.6927L15.1258 13.8643L15.113 13.8706C15.109 13.9669 15.0798 14.0603 15.0284 14.1409C14.977 14.2214 14.9054 14.2861 14.8211 14.328C14.7369 14.37 14.6432 14.3876 14.55 14.379C14.4568 14.3704 14.3676 14.3359 14.2919 14.2792L14.287 14.2821L11.7624 12.4379C12.5661 11.6242 13.5746 11.0581 14.6741 10.8036ZM10.8469 13.6232L13.1518 15.7471L13.1493 15.76C13.22 15.8233 13.2726 15.9052 13.3016 15.9969C13.3306 16.0886 13.3349 16.1868 13.314 16.2808C13.2932 16.3749 13.2479 16.4613 13.1831 16.5309C13.1183 16.6006 13.0363 16.6508 12.946 16.6762L12.9436 16.6865L9.98908 17.5648C9.84187 16.1893 10.1437 14.8023 10.8469 13.6232ZM13.933 19.2653L12.7591 22.1876C11.6323 21.4446 10.7751 20.3392 10.3203 19.0431L13.3497 18.5129L13.3549 18.52C13.3883 18.5134 13.4223 18.5102 13.4564 18.5107C13.5413 18.512 13.6247 18.5348 13.699 18.5771C13.7734 18.6195 13.8365 18.6801 13.8827 18.7535C13.9289 18.8269 13.9569 18.9109 13.9642 18.9982C13.9714 19.0854 13.9577 19.1731 13.9242 19.2535L13.933 19.2653ZM17.398 23.0233C16.2997 23.2828 15.1529 23.2222 14.0861 22.8481L15.5759 20.0726H15.5784C15.6227 19.9878 15.6885 19.9169 15.7687 19.8675C15.8489 19.8181 15.9407 19.7919 16.0341 19.7918C16.1276 19.7918 16.2194 19.8177 16.2997 19.867C16.38 19.9163 16.4459 19.987 16.4903 20.0718H16.5014L17.9951 22.8518C17.8012 22.9185 17.6022 22.9758 17.398 23.0236V23.0233ZM19.3229 22.1994L18.1369 19.2472L18.1405 19.2419C18.0879 19.1156 18.0846 18.9733 18.1314 18.8446C18.1781 18.7159 18.2712 18.6107 18.3913 18.5509C18.4532 18.5197 18.5206 18.5017 18.5894 18.4979C18.6293 18.496 18.6692 18.499 18.7083 18.5069L18.7135 18.5003L21.7698 19.0325C21.3187 20.3391 20.4576 21.4533 19.3229 22.1994ZM22.0908 17.5544L19.1214 16.6733L19.1186 16.6604C19.0284 16.6348 18.9467 16.5844 18.8821 16.5148C18.8174 16.4451 18.7723 16.3587 18.7515 16.2648C18.7307 16.1708 18.7349 16.0728 18.7638 15.9812C18.7927 15.8895 18.8451 15.8076 18.9156 15.7442L18.9145 15.738L21.2066 13.6246C21.9085 14.8006 22.2189 16.1804 22.0907 17.5546L22.0908 17.5544Z" fill="white"/>
</svg>
