<?xml version="1.0" encoding="UTF-8"?>
<svg id="logosandtypes_com" data-name="logosandtypes com" xmlns="http://www.w3.org/2000/svg" viewBox="0 0 150 150">
  <defs>
    <style>
      .cls-1 {
        fill: none;
      }
    </style>
  </defs>
  <path class="cls-1" d="M0,0H150V150H0V0Z"/>
  <path d="M128.87,75.5h-13.04c-3.89,0-7.05,3.25-7.05,7.27v19.51c0,4.01-3.16,7.27-7.05,7.27H49.87c-3.89,0-7.05,3.25-7.05,7.27v13.44c0,4.01,3.16,7.27,7.05,7.27h54.87c3.89,0,7-3.25,7-7.27v-10.78c0-4.01,3.16-6.86,7.05-6.86h10.08c3.89,0,7.05-3.25,7.05-7.27v-22.65c0-4.01-3.16-7.18-7.05-7.18h0Z"/>
  <path d="M42.82,48.8c0-4.01,3.16-7.27,7.05-7.27h51.83c3.89,0,7.05-3.25,7.05-7.27v-13.44c0-4.01-3.15-7.27-7.05-7.27H46.86c-3.89,0-7.05,3.25-7.05,7.27v10.35c0,4.01-3.15,7.27-7.05,7.27h-10.03c-3.89,0-7.05,3.25-7.05,7.27v22.68c0,4.01,3.17,7.1,7.06,7.1h13.04c3.89,0,7.05-3.25,7.05-7.27v-19.43s-.01,0-.01,0Z"/>
  <path d="M69.67,61.37h12.52c4.08,0,7.39,3.42,7.39,7.62v12.91c0,4.21-3.31,7.62-7.39,7.62h-12.52c-4.08,0-7.39-3.42-7.39-7.62v-12.91c0-4.21,3.31-7.62,7.39-7.62Z"/>
</svg>