<svg width="48" height="44" viewBox="0 0 48 44" fill="none" xmlns="http://www.w3.org/2000/svg">
<path d="M44.411 1.00012L26.7092 14.1293L29.9968 6.38338L44.411 1.00012Z" fill="#E17726" stroke="#E17726" stroke-width="0.712817" stroke-linecap="round" stroke-linejoin="round"/>
<path d="M3.58911 1.00049L21.1299 14.2539L18.0034 6.38375L3.58911 1.00049Z" fill="#E27625" stroke="#E27625" stroke-width="0.712817" stroke-linecap="round" stroke-linejoin="round"/>
<path d="M38.0474 31.4347L33.3384 38.6485L43.4147 41.4189L46.2944 31.594L38.0474 31.4347Z" fill="#E27625" stroke="#E27625" stroke-width="0.712817" stroke-linecap="round" stroke-linejoin="round"/>
<path d="M1.72266 31.5935L4.58485 41.4184L14.6612 38.6481L9.96962 31.4342L1.72266 31.5935Z" fill="#E27625" stroke="#E27625" stroke-width="0.712817" stroke-linecap="round" stroke-linejoin="round"/>
<path d="M14.1093 19.2456L11.3015 23.4928L21.2898 23.9373L20.9519 13.1871L14.1093 19.2456Z" fill="#E27625" stroke="#E27625" stroke-width="0.712817" stroke-linecap="round" stroke-linejoin="round"/>
<path d="M33.8897 19.2457L26.9403 13.0629L26.7092 23.9374L36.6975 23.4929L33.8897 19.2457Z" fill="#E27625" stroke="#E27625" stroke-width="0.712817" stroke-linecap="round" stroke-linejoin="round"/>
<path d="M14.6606 38.6488L20.6868 35.7153L15.4958 31.6652L14.6606 38.6488Z" fill="#E27625" stroke="#E27625" stroke-width="0.712817" stroke-linecap="round" stroke-linejoin="round"/>
<path d="M27.3132 35.7153L33.3393 38.6488L32.5042 31.6652L27.3132 35.7153Z" fill="#E27625" stroke="#E27625" stroke-width="0.712817" stroke-linecap="round" stroke-linejoin="round"/>
<path d="M33.3396 38.6482L27.3135 35.7148L27.7932 39.6424L27.7407 41.2946L33.3396 38.6482Z" fill="#D5BFB2" stroke="#D5BFB2" stroke-width="0.712817" stroke-linecap="round" stroke-linejoin="round"/>
<path d="M14.6606 38.6481L20.2596 41.2945L20.2246 39.6423L20.6868 35.7147L14.6606 38.6481Z" fill="#D5BFB2" stroke="#D5BFB2" stroke-width="0.712817" stroke-linecap="round" stroke-linejoin="round"/>
<path d="M20.3664 29.0715L15.354 27.5974L18.8905 25.9797L20.3664 29.0715Z" fill="#233447" stroke="#233447" stroke-width="0.712817" stroke-linecap="round" stroke-linejoin="round"/>
<path d="M27.6335 29.0711L29.1094 25.9793L32.6635 27.597L27.6335 29.0711Z" fill="#233447" stroke="#233447" stroke-width="0.712817" stroke-linecap="round" stroke-linejoin="round"/>
<path d="M14.6615 38.6488L15.5316 31.4342L9.96948 31.5935L14.6615 38.6488Z" fill="#CC6228" stroke="#CC6228" stroke-width="0.712817" stroke-linecap="round" stroke-linejoin="round"/>
<path d="M32.4685 31.4342L33.3386 38.6488L38.0482 31.5935L32.4685 31.4342Z" fill="#CC6228" stroke="#CC6228" stroke-width="0.712817" stroke-linecap="round" stroke-linejoin="round"/>
<path d="M36.6977 23.493L26.7095 23.9375L27.6337 29.0702L29.1094 25.9797L32.6629 27.5967L36.6977 23.493Z" fill="#CC6228" stroke="#CC6228" stroke-width="0.712817" stroke-linecap="round" stroke-linejoin="round"/>
<path d="M15.3539 27.5966L18.8899 25.9796L20.3655 29.0701L21.2898 23.9374L11.3015 23.4929L15.3539 27.5966Z" fill="#CC6228" stroke="#CC6228" stroke-width="0.712817" stroke-linecap="round" stroke-linejoin="round"/>
<path d="M11.3015 23.4929L15.4957 31.6653L15.3539 27.5966L11.3015 23.4929Z" fill="#E27525" stroke="#E27525" stroke-width="0.712817" stroke-linecap="round" stroke-linejoin="round"/>
<path d="M32.6627 27.5965L32.5034 31.6652L36.6976 23.4927L32.6627 27.5965Z" fill="#E27525" stroke="#E27525" stroke-width="0.712817" stroke-linecap="round" stroke-linejoin="round"/>
<path d="M21.29 23.9373L20.3657 29.0701L21.5385 35.1285L21.7871 27.1521L21.29 23.9373Z" fill="#E27525" stroke="#E27525" stroke-width="0.712817" stroke-linecap="round" stroke-linejoin="round"/>
<path d="M26.7094 23.9371L26.2297 27.1343L26.4608 35.1283L27.6336 29.0698L26.7094 23.9371Z" fill="#E27525" stroke="#E27525" stroke-width="0.712817" stroke-linecap="round" stroke-linejoin="round"/>
<path d="M27.6335 29.0701L26.4607 35.1285L27.3132 35.7148L32.5034 31.6653L32.6627 27.5966L27.6335 29.0701Z" fill="#F5841F" stroke="#F5841F" stroke-width="0.712817" stroke-linecap="round" stroke-linejoin="round"/>
<path d="M15.354 27.5967L15.4958 31.6654L20.686 35.7149L21.5385 35.1287L20.3656 29.0702L15.354 27.5967Z" fill="#F5841F" stroke="#F5841F" stroke-width="0.712817" stroke-linecap="round" stroke-linejoin="round"/>
<path d="M27.7409 41.2936L27.7935 39.6416L27.3506 39.2513H20.6494L20.224 39.6416L20.259 41.2936L14.6606 38.6475L16.616 40.2454L20.5968 43H27.4031L31.3839 40.2454L33.3393 38.6475L27.7409 41.2936Z" fill="#C0AC9D" stroke="#C0AC9D" stroke-width="0.712817" stroke-linecap="round" stroke-linejoin="round"/>
<path d="M27.3133 35.7149L26.4609 35.1286H21.5385L20.686 35.7149L20.2239 39.6418L20.6492 39.2516H27.3501L27.793 39.6418L27.3133 35.7149Z" fill="#161616" stroke="#161616" stroke-width="0.712817" stroke-linecap="round" stroke-linejoin="round"/>
<path d="M45.1569 14.9831L46.6501 7.73421L44.4111 0.999878L27.3132 13.6862L33.8901 19.2463L43.1839 21.9659L45.2286 19.5665L44.3393 18.9278L45.7608 17.6292L44.6772 16.7769L46.0987 15.6936L45.1569 14.9831Z" fill="#763E1A" stroke="#763E1A" stroke-width="0.712817" stroke-linecap="round" stroke-linejoin="round"/>
<path d="M1.3501 7.73457L2.86084 14.9834L1.90153 15.694L3.323 16.7773L2.23939 17.6296L3.66086 18.9281L2.77157 19.5669L4.81624 21.9663L14.11 19.2466L20.687 13.6866L3.58908 1.00024L1.3501 7.73457Z" fill="#763E1A" stroke="#763E1A" stroke-width="0.712817" stroke-linecap="round" stroke-linejoin="round"/>
<path d="M43.1837 21.9654L33.8899 19.2457L36.6978 23.4932L32.5034 31.6661L38.0475 31.5943H46.2944L43.1837 21.9654Z" fill="#F5841F" stroke="#F5841F" stroke-width="0.712817" stroke-linecap="round" stroke-linejoin="round"/>
<path d="M14.11 19.2458L4.81617 21.9655L1.7229 31.5944H9.96986L15.4964 31.6662L11.302 23.4933L14.11 19.2458Z" fill="#F5841F" stroke="#F5841F" stroke-width="0.712817" stroke-linecap="round" stroke-linejoin="round"/>
<path d="M26.7091 23.9373L27.313 13.6858L29.9965 6.38312H18.0022L20.6857 13.6858L21.2896 23.9373L21.5207 27.1695L21.5382 35.1285H26.4605L26.478 27.1695L26.7091 23.9373Z" fill="#F5841F" stroke="#F5841F" stroke-width="0.712817" stroke-linecap="round" stroke-linejoin="round"/>
</svg>
