<svg width="48" height="48" viewBox="0 0 48 48" fill="none" xmlns="http://www.w3.org/2000/svg">
<g filter="url(#filter0_ii_3647_37950)">
<path d="M1.16861 14.5165C1.00385 11.3727 3.39385 8.68157 6.53585 8.48549C11.1678 8.19642 17.74 7.79666 22.7078 7.5363C27.6756 7.27595 34.2536 6.98654 38.8904 6.78986C42.0357 6.65644 44.6939 9.08297 44.8587 12.2268L45.5567 25.5469C45.7144 28.5559 43.5234 31.1742 40.5293 31.5118C35.8955 32.0342 29.1338 32.7345 24.0424 33.0014C18.9509 33.2682 12.1531 33.2785 7.49008 33.2433C4.47708 33.2205 2.02438 30.8456 1.86669 27.8366L1.16861 14.5165Z" fill="url(#paint0_linear_3647_37950)"/>
<path d="M1.16861 14.5165C1.00385 11.3727 3.39385 8.68157 6.53585 8.48549C11.1678 8.19642 17.74 7.79666 22.7078 7.5363C27.6756 7.27595 34.2536 6.98654 38.8904 6.78986C42.0357 6.65644 44.6939 9.08297 44.8587 12.2268L45.5567 25.5469C45.7144 28.5559 43.5234 31.1742 40.5293 31.5118C35.8955 32.0342 29.1338 32.7345 24.0424 33.0014C18.9509 33.2682 12.1531 33.2785 7.49008 33.2433C4.47708 33.2205 2.02438 30.8456 1.86669 27.8366L1.16861 14.5165Z" fill="black" fill-opacity="0.2"/>
</g>
<g filter="url(#filter1_ii_3647_37950)">
<path d="M1.5 13.6478C1.5 11.1294 3.56451 9.10057 6.08253 9.1403C10.7334 9.21368 17.9953 9.3125 23.375 9.3125C28.7547 9.3125 36.0166 9.21368 40.6675 9.1403C43.1855 9.10057 45.25 11.1294 45.25 13.6478V34.6462C45.25 37.0985 43.291 39.0987 40.8389 39.1376C36.1966 39.2112 28.8213 39.3125 23.375 39.3125C17.9287 39.3125 10.5534 39.2112 5.91105 39.1376C3.459 39.0987 1.5 37.0985 1.5 34.6462V13.6478Z" fill="url(#paint1_linear_3647_37950)"/>
</g>
<g filter="url(#filter2_ii_3647_37950)">
<path d="M35.25 23.4375C35.25 21.0213 37.2088 19.0625 39.625 19.0625H45.4773C46.0421 19.0625 46.5 19.5204 46.5 20.0852V26.7898C46.5 27.3546 46.0421 27.8125 45.4773 27.8125H39.625C37.2088 27.8125 35.25 25.8537 35.25 23.4375Z" fill="url(#paint2_linear_3647_37950)"/>
</g>
<g filter="url(#filter3_di_3647_37950)">
<rect x="39" y="21.5625" width="3.75" height="3.75" rx="1.875" fill="url(#paint3_linear_3647_37950)"/>
</g>
<defs>
<filter id="filter0_ii_3647_37950" x="1.16064" y="6.78467" width="44.4041" height="31.4731" filterUnits="userSpaceOnUse" color-interpolation-filters="sRGB">
<feFlood flood-opacity="0" result="BackgroundImageFix"/>
<feBlend mode="normal" in="SourceGraphic" in2="BackgroundImageFix" result="shape"/>
<feColorMatrix in="SourceAlpha" type="matrix" values="0 0 0 0 0 0 0 0 0 0 0 0 0 0 0 0 0 0 127 0" result="hardAlpha"/>
<feOffset dy="5"/>
<feGaussianBlur stdDeviation="2.5"/>
<feComposite in2="hardAlpha" operator="arithmetic" k2="-1" k3="1"/>
<feColorMatrix type="matrix" values="0 0 0 0 0 0 0 0 0 0 0 0 0 0 0 0 0 0 0.25 0"/>
<feBlend mode="normal" in2="shape" result="effect1_innerShadow_3647_37950"/>
<feColorMatrix in="SourceAlpha" type="matrix" values="0 0 0 0 0 0 0 0 0 0 0 0 0 0 0 0 0 0 127 0" result="hardAlpha"/>
<feOffset dy="1.25"/>
<feGaussianBlur stdDeviation="0.625"/>
<feComposite in2="hardAlpha" operator="arithmetic" k2="-1" k3="1"/>
<feColorMatrix type="matrix" values="0 0 0 0 1 0 0 0 0 1 0 0 0 0 1 0 0 0 0.25 0"/>
<feBlend mode="normal" in2="effect1_innerShadow_3647_37950" result="effect2_innerShadow_3647_37950"/>
</filter>
<filter id="filter1_ii_3647_37950" x="1.5" y="7.88965" width="43.75" height="32.6729" filterUnits="userSpaceOnUse" color-interpolation-filters="sRGB">
<feFlood flood-opacity="0" result="BackgroundImageFix"/>
<feBlend mode="normal" in="SourceGraphic" in2="BackgroundImageFix" result="shape"/>
<feColorMatrix in="SourceAlpha" type="matrix" values="0 0 0 0 0 0 0 0 0 0 0 0 0 0 0 0 0 0 127 0" result="hardAlpha"/>
<feOffset dy="1.25"/>
<feGaussianBlur stdDeviation="0.625"/>
<feComposite in2="hardAlpha" operator="arithmetic" k2="-1" k3="1"/>
<feColorMatrix type="matrix" values="0 0 0 0 1 0 0 0 0 1 0 0 0 0 1 0 0 0 0.25 0"/>
<feBlend mode="normal" in2="shape" result="effect1_innerShadow_3647_37950"/>
<feColorMatrix in="SourceAlpha" type="matrix" values="0 0 0 0 0 0 0 0 0 0 0 0 0 0 0 0 0 0 127 0" result="hardAlpha"/>
<feOffset dy="-1.25"/>
<feGaussianBlur stdDeviation="0.625"/>
<feComposite in2="hardAlpha" operator="arithmetic" k2="-1" k3="1"/>
<feColorMatrix type="matrix" values="0 0 0 0 0 0 0 0 0 0 0 0 0 0 0 0 0 0 0.25 0"/>
<feBlend mode="normal" in2="effect1_innerShadow_3647_37950" result="effect2_innerShadow_3647_37950"/>
</filter>
<filter id="filter2_ii_3647_37950" x="35.25" y="17.8125" width="11.25" height="11.25" filterUnits="userSpaceOnUse" color-interpolation-filters="sRGB">
<feFlood flood-opacity="0" result="BackgroundImageFix"/>
<feBlend mode="normal" in="SourceGraphic" in2="BackgroundImageFix" result="shape"/>
<feColorMatrix in="SourceAlpha" type="matrix" values="0 0 0 0 0 0 0 0 0 0 0 0 0 0 0 0 0 0 127 0" result="hardAlpha"/>
<feOffset dy="1.25"/>
<feGaussianBlur stdDeviation="0.625"/>
<feComposite in2="hardAlpha" operator="arithmetic" k2="-1" k3="1"/>
<feColorMatrix type="matrix" values="0 0 0 0 1 0 0 0 0 1 0 0 0 0 1 0 0 0 0.25 0"/>
<feBlend mode="normal" in2="shape" result="effect1_innerShadow_3647_37950"/>
<feColorMatrix in="SourceAlpha" type="matrix" values="0 0 0 0 0 0 0 0 0 0 0 0 0 0 0 0 0 0 127 0" result="hardAlpha"/>
<feOffset dy="-1.25"/>
<feGaussianBlur stdDeviation="0.625"/>
<feComposite in2="hardAlpha" operator="arithmetic" k2="-1" k3="1"/>
<feColorMatrix type="matrix" values="0 0 0 0 0 0 0 0 0 0 0 0 0 0 0 0 0 0 0.25 0"/>
<feBlend mode="normal" in2="effect1_innerShadow_3647_37950" result="effect2_innerShadow_3647_37950"/>
</filter>
<filter id="filter3_di_3647_37950" x="37.75" y="20.3125" width="6.25" height="7.5" filterUnits="userSpaceOnUse" color-interpolation-filters="sRGB">
<feFlood flood-opacity="0" result="BackgroundImageFix"/>
<feColorMatrix in="SourceAlpha" type="matrix" values="0 0 0 0 0 0 0 0 0 0 0 0 0 0 0 0 0 0 127 0" result="hardAlpha"/>
<feOffset dy="1.25"/>
<feGaussianBlur stdDeviation="0.625"/>
<feComposite in2="hardAlpha" operator="out"/>
<feColorMatrix type="matrix" values="0 0 0 0 0 0 0 0 0 0 0 0 0 0 0 0 0 0 0.25 0"/>
<feBlend mode="normal" in2="BackgroundImageFix" result="effect1_dropShadow_3647_37950"/>
<feBlend mode="normal" in="SourceGraphic" in2="effect1_dropShadow_3647_37950" result="shape"/>
<feColorMatrix in="SourceAlpha" type="matrix" values="0 0 0 0 0 0 0 0 0 0 0 0 0 0 0 0 0 0 127 0" result="hardAlpha"/>
<feOffset dy="-1.25"/>
<feGaussianBlur stdDeviation="0.625"/>
<feComposite in2="hardAlpha" operator="arithmetic" k2="-1" k3="1"/>
<feColorMatrix type="matrix" values="0 0 0 0 0 0 0 0 0 0 0 0 0 0 0 0 0 0 0.25 0"/>
<feBlend mode="normal" in2="shape" result="effect2_innerShadow_3647_37950"/>
</filter>
<linearGradient id="paint0_linear_3647_37950" x1="22.7184" y1="7.73841" x2="24.0424" y2="33.0014" gradientUnits="userSpaceOnUse">
<stop stop-color="#AD6D5C"/>
<stop offset="1" stop-color="#713438"/>
</linearGradient>
<linearGradient id="paint1_linear_3647_37950" x1="23.375" y1="7.8125" x2="23.375" y2="40.3125" gradientUnits="userSpaceOnUse">
<stop stop-color="#AD6D5C"/>
<stop offset="1" stop-color="#713438"/>
</linearGradient>
<linearGradient id="paint2_linear_3647_37950" x1="40.875" y1="19.0625" x2="40.875" y2="27.8125" gradientUnits="userSpaceOnUse">
<stop stop-color="#AD6D5C"/>
<stop offset="1" stop-color="#74373A"/>
</linearGradient>
<linearGradient id="paint3_linear_3647_37950" x1="40.875" y1="21.5625" x2="40.875" y2="25.3125" gradientUnits="userSpaceOnUse">
<stop stop-color="white"/>
<stop offset="1" stop-color="#D9D9D9"/>
</linearGradient>
</defs>
</svg>
