<svg id="svg" version="1.1" xmlns="http://www.w3.org/2000/svg" xmlns:xlink="http://www.w3.org/1999/xlink" width="400" height="400" viewBox="0, 0, 400,400"><g id="svgg"><path id="path0" d="M89.000 87.881 C 88.560 87.988,87.615 88.634,86.900 89.317 L 85.600 90.557 85.602 125.178 L 85.604 159.800 86.822 161.100 L 88.041 162.400 122.945 162.400 L 157.850 162.400 159.025 161.174 L 160.200 159.947 160.200 125.243 L 160.200 90.538 158.831 89.169 L 157.462 87.800 123.631 87.743 C 105.024 87.712,89.440 87.774,89.000 87.881 M241.738 87.877 C 241.264 87.970,240.364 88.800,239.738 89.723 L 238.600 91.400 238.493 124.764 C 238.376 161.363,238.297 160.039,240.706 161.900 C 242.004 162.903,310.042 162.596,311.332 161.582 C 313.167 160.138,313.196 159.587,313.196 125.200 C 313.196 90.364,313.194 90.339,311.158 88.626 L 309.939 87.600 276.269 87.654 C 257.751 87.684,242.212 87.785,241.738 87.877 M164.186 163.906 C 163.959 164.068,163.374 164.719,162.886 165.354 L 162.000 166.508 162.000 200.844 L 162.000 235.181 163.433 236.490 C 165.521 238.400,163.926 238.317,199.474 238.360 C 233.425 238.401,233.282 238.408,235.400 236.664 L 236.600 235.676 236.600 201.338 C 236.600 164.410,236.632 164.999,234.554 164.052 C 233.424 163.537,164.906 163.395,164.186 163.906 M88.525 239.637 C 85.386 240.556,85.600 237.855,85.600 276.507 L 85.600 310.906 87.003 312.229 C 88.978 314.092,88.075 314.051,124.229 313.919 L 156.659 313.800 158.273 312.732 C 160.505 311.255,160.400 313.055,160.400 276.210 C 160.400 241.338,160.405 241.440,158.470 240.126 C 157.258 239.304,91.241 238.841,88.525 239.637 M241.303 239.647 C 238.278 240.520,238.400 238.969,238.401 276.484 C 238.403 313.840,238.204 311.317,241.296 313.202 C 243.359 314.460,307.688 314.447,310.534 313.188 C 313.299 311.965,313.199 313.374,313.167 276.200 C 313.136 239.663,313.200 240.634,310.773 239.757 C 309.081 239.145,243.400 239.041,241.303 239.647 " stroke="none" fill="#fbfbfb" fill-rule="evenodd"></path><path id="path1" d="M86.378 88.622 L 85.000 90.044 84.894 124.829 C 84.776 163.075,84.668 161.291,87.187 162.593 C 88.685 163.368,156.155 163.523,158.352 162.757 C 161.117 161.793,160.987 163.497,161.120 126.600 C 161.251 90.020,161.274 90.568,159.532 88.583 L 158.317 87.200 123.037 87.200 L 87.757 87.200 86.378 88.622 M238.948 89.089 L 237.400 90.979 237.400 125.189 L 237.400 159.400 238.737 161.063 C 240.565 163.336,238.011 163.188,275.650 163.195 C 313.600 163.201,311.654 163.312,313.130 161.044 L 314.200 159.400 314.307 125.700 L 314.413 92.000 313.407 90.014 C 311.886 87.012,314.405 87.200,275.674 87.200 L 240.496 87.200 238.948 89.089 M158.831 89.169 L 160.200 90.538 160.200 125.243 L 160.200 159.947 159.025 161.174 L 157.850 162.400 122.945 162.400 L 88.041 162.400 86.822 161.100 L 85.604 159.800 85.602 125.178 L 85.600 90.557 86.900 89.317 C 88.718 87.582,86.423 87.680,123.631 87.743 L 157.462 87.800 158.831 89.169 M311.158 88.626 C 313.194 90.339,313.196 90.364,313.196 125.200 C 313.196 159.587,313.167 160.138,311.332 161.582 C 310.042 162.596,242.004 162.903,240.706 161.900 C 238.297 160.039,238.376 161.363,238.493 124.764 L 238.600 91.400 239.738 89.723 C 241.224 87.532,237.974 87.716,276.269 87.654 L 309.939 87.600 311.158 88.626 M164.800 163.012 C 163.568 163.401,162.716 164.002,162.100 164.915 L 161.200 166.250 161.200 200.891 L 161.200 235.533 162.816 237.266 L 164.433 239.000 199.390 239.000 L 234.347 239.000 235.576 237.823 C 237.602 235.882,237.597 235.962,237.567 200.600 C 237.535 163.604,237.612 164.713,234.995 163.400 C 232.879 162.339,168.069 161.981,164.800 163.012 M234.554 164.052 C 236.632 164.999,236.600 164.410,236.600 201.338 L 236.600 235.676 235.400 236.664 C 233.282 238.408,233.425 238.401,199.474 238.360 C 163.926 238.317,165.521 238.400,163.433 236.490 L 162.000 235.181 162.000 200.844 L 162.000 166.508 162.886 165.354 C 163.374 164.719,163.959 164.068,164.186 163.906 C 164.906 163.395,233.424 163.537,234.554 164.052 M89.506 237.994 C 84.458 239.535,84.736 237.164,84.878 277.471 L 85.000 311.943 86.600 313.355 L 88.200 314.767 122.800 314.771 L 157.400 314.776 159.200 313.221 L 161.000 311.665 161.109 277.491 C 161.230 239.255,161.353 241.044,158.466 239.017 L 156.731 237.800 123.666 237.730 C 105.480 237.691,90.108 237.810,89.506 237.994 M241.360 238.553 C 240.217 239.088,238.899 240.099,238.360 240.854 L 237.400 242.200 237.400 276.471 C 237.400 315.053,237.130 311.677,240.396 313.900 L 241.718 314.800 275.912 314.800 C 309.954 314.800,310.112 314.796,311.465 313.960 C 314.564 312.044,314.400 314.141,314.400 276.466 L 314.400 242.901 313.410 241.129 C 311.429 237.585,313.898 237.814,276.400 237.699 L 243.400 237.598 241.360 238.553 M158.470 240.126 C 160.405 241.440,160.400 241.338,160.400 276.210 C 160.400 313.055,160.505 311.255,158.273 312.732 L 156.659 313.800 124.229 313.919 C 88.075 314.051,88.978 314.092,87.003 312.229 L 85.600 310.906 85.600 276.507 C 85.600 237.855,85.386 240.556,88.525 239.637 C 91.241 238.841,157.258 239.304,158.470 240.126 M310.773 239.757 C 313.200 240.634,313.136 239.663,313.167 276.200 C 313.199 313.374,313.299 311.965,310.534 313.188 C 307.688 314.447,243.359 314.460,241.296 313.202 C 238.204 311.317,238.403 313.840,238.401 276.484 C 238.400 238.969,238.278 240.520,241.303 239.647 C 243.400 239.041,309.081 239.145,310.773 239.757 " stroke="none" fill="#a4a4a4" fill-rule="evenodd"></path><path id="path2" d="M85.569 87.569 C 84.926 88.212,84.411 89.067,84.425 89.469 C 84.447 90.098,84.498 90.082,84.792 89.355 C 84.980 88.891,85.623 88.126,86.221 87.655 L 87.308 86.800 122.965 86.800 C 162.415 86.800,159.840 86.627,161.025 89.351 C 161.371 90.147,161.574 90.336,161.584 89.874 C 161.662 86.272,163.101 86.400,122.589 86.400 L 86.738 86.400 85.569 87.569 M238.333 88.065 L 236.600 89.729 236.488 124.365 C 236.364 162.680,236.242 160.032,238.218 162.100 C 240.314 164.295,240.623 163.935,238.561 161.700 L 236.809 159.800 236.804 125.091 L 236.800 90.382 238.451 88.591 L 240.102 86.800 275.818 86.800 C 315.807 86.800,312.379 86.568,313.994 89.389 L 315.200 91.497 315.192 125.249 L 315.185 159.000 313.981 160.917 C 313.319 161.972,312.377 162.995,311.889 163.192 L 311.000 163.549 311.895 163.575 C 312.515 163.592,313.093 163.120,313.779 162.034 C 314.323 161.172,314.955 160.351,315.184 160.210 C 315.467 160.035,315.600 148.915,315.600 125.445 L 315.600 90.937 314.356 89.059 C 312.484 86.233,314.903 86.400,275.859 86.400 L 240.065 86.400 238.333 88.065 M84.191 125.200 C 84.191 144.450,84.240 152.325,84.300 142.700 C 84.360 133.075,84.360 117.325,84.300 107.700 C 84.240 98.075,84.191 105.950,84.191 125.200 M161.922 123.514 C 162.060 160.691,161.961 162.157,159.242 163.154 C 158.206 163.535,158.208 163.537,159.505 163.568 C 160.801 163.600,160.808 163.610,160.605 165.300 C 160.433 166.730,160.460 166.821,160.773 165.874 C 161.329 164.191,161.951 163.611,164.334 162.558 L 166.500 161.600 199.179 161.600 C 238.284 161.600,236.228 161.339,237.977 166.519 C 238.780 168.898,238.800 169.716,238.800 201.040 L 238.800 233.125 237.628 235.738 C 235.738 239.950,239.218 239.600,199.227 239.600 L 164.414 239.600 162.645 237.900 C 161.672 236.965,160.794 235.750,160.693 235.200 C 160.512 234.218,160.508 234.220,160.454 235.300 C 160.415 236.102,160.860 236.860,162.100 238.100 L 163.800 239.800 198.733 239.906 C 235.322 240.018,236.676 239.962,237.104 238.322 C 237.223 237.870,237.742 236.667,238.258 235.650 L 239.197 233.800 239.198 200.689 L 239.200 167.577 238.028 165.256 C 236.974 163.167,236.619 162.828,234.478 161.867 L 232.100 160.800 199.350 160.801 C 167.659 160.803,166.559 160.828,165.329 161.578 C 163.912 162.442,161.197 163.079,161.206 162.545 C 161.210 162.355,161.473 161.120,161.792 159.800 C 162.407 157.251,162.671 93.025,162.072 91.514 C 161.922 91.137,161.855 105.537,161.922 123.514 M84.425 161.030 C 84.387 162.284,85.954 163.461,88.320 163.956 C 90.607 164.435,154.773 164.525,156.980 164.053 C 157.630 163.914,143.077 163.851,124.642 163.913 C 86.190 164.043,86.018 164.030,84.778 161.000 C 84.456 160.213,84.450 160.214,84.425 161.030 M241.823 164.053 C 243.437 164.399,307.416 164.422,309.359 164.077 C 310.216 163.925,295.107 163.800,275.782 163.800 C 256.457 163.800,241.176 163.914,241.823 164.053 M88.953 236.774 C 86.961 237.258,84.390 239.541,84.454 240.767 C 84.504 241.713,84.524 241.724,84.683 240.897 C 84.971 239.397,88.134 237.289,90.524 237.003 C 91.666 236.867,107.090 236.810,124.800 236.878 L 157.000 237.000 158.893 238.372 C 161.959 240.595,161.800 238.498,161.800 276.600 C 161.800 311.276,161.723 313.200,160.332 313.200 C 160.129 313.200,159.503 313.695,158.942 314.300 L 157.923 315.400 123.028 315.400 L 88.133 315.400 86.567 314.034 C 85.705 313.283,84.878 312.383,84.728 312.034 C 84.534 311.582,84.448 311.557,84.428 311.947 C 84.413 312.248,85.165 313.238,86.100 314.147 L 87.800 315.800 122.804 315.800 L 157.808 315.800 159.671 314.243 C 162.497 311.881,162.401 313.205,162.394 276.723 C 162.387 242.418,162.270 239.992,160.576 239.000 C 160.200 238.780,159.343 238.150,158.670 237.600 L 157.447 236.600 123.824 236.535 C 105.331 236.500,89.639 236.607,88.953 236.774 M242.200 236.735 C 239.659 237.576,237.174 239.444,236.796 240.800 C 236.223 242.848,236.265 310.324,236.839 311.840 C 237.081 312.478,238.008 313.630,238.899 314.400 L 240.518 315.800 274.877 315.911 C 313.515 316.035,311.615 316.169,314.004 313.148 L 315.600 311.128 315.600 276.686 L 315.600 242.243 314.582 240.774 C 314.022 239.966,312.807 238.696,311.882 237.952 L 310.200 236.600 276.600 236.535 C 258.120 236.500,242.640 236.590,242.200 236.735 M311.328 238.081 C 312.168 238.675,313.379 239.935,314.020 240.881 L 315.185 242.600 315.193 276.455 L 315.200 310.310 313.900 312.255 C 311.484 315.871,314.429 315.622,275.359 315.504 L 240.918 315.400 239.310 314.000 C 236.653 311.688,236.800 313.901,236.800 276.306 L 236.800 241.850 237.693 240.546 C 238.674 239.115,241.127 237.543,243.000 237.145 C 243.660 237.005,258.960 236.915,277.000 236.945 L 309.800 237.000 311.328 238.081 M84.191 276.400 C 84.191 295.430,84.240 303.215,84.300 293.700 C 84.360 284.185,84.360 268.615,84.300 259.100 C 84.240 249.585,84.191 257.370,84.191 276.400 " stroke="none" fill="#343434" fill-rule="evenodd"></path><path id="path3" d="M85.906 87.967 L 84.600 89.134 84.600 125.158 L 84.600 161.182 85.605 162.187 C 86.266 162.848,87.383 163.335,88.867 163.609 C 92.421 164.266,157.420 163.954,159.062 163.272 C 161.908 162.091,161.979 161.160,161.990 125.120 C 162.001 90.746,161.955 89.893,159.980 87.919 L 158.862 86.800 123.037 86.800 L 87.213 86.800 85.906 87.967 M238.451 88.591 L 236.800 90.382 236.804 125.091 L 236.809 159.800 238.523 161.658 C 240.819 164.148,239.647 164.081,278.400 163.928 C 314.194 163.786,312.067 163.966,313.983 160.913 L 315.185 159.000 315.192 125.249 L 315.200 91.497 313.994 89.389 C 312.379 86.568,315.807 86.800,275.818 86.800 L 240.102 86.800 238.451 88.591 M159.532 88.583 C 161.274 90.568,161.251 90.020,161.120 126.600 C 160.987 163.497,161.117 161.793,158.352 162.757 C 156.155 163.523,88.685 163.368,87.187 162.593 C 84.668 161.291,84.776 163.075,84.894 124.829 L 85.000 90.044 86.378 88.622 L 87.757 87.200 123.037 87.200 L 158.317 87.200 159.532 88.583 M311.627 87.614 C 312.053 87.842,312.854 88.922,313.407 90.014 L 314.413 92.000 314.307 125.700 L 314.200 159.400 313.130 161.044 C 311.654 163.312,313.600 163.201,275.650 163.195 C 238.011 163.188,240.565 163.336,238.737 161.063 L 237.400 159.400 237.400 125.189 L 237.400 90.979 238.948 89.089 L 240.496 87.200 275.674 87.200 C 299.174 87.200,311.110 87.338,311.627 87.614 M164.120 162.616 C 160.286 164.368,160.600 160.962,160.600 200.855 L 160.600 235.946 162.507 237.773 L 164.414 239.600 199.227 239.600 C 239.218 239.600,235.738 239.950,237.628 235.738 L 238.800 233.125 238.800 201.040 C 238.800 169.716,238.780 168.898,237.977 166.519 C 236.226 161.332,238.307 161.594,199.029 161.633 L 166.200 161.666 164.120 162.616 M234.995 163.400 C 237.612 164.713,237.535 163.604,237.567 200.600 C 237.597 235.962,237.602 235.882,235.576 237.823 L 234.347 239.000 199.390 239.000 L 164.433 239.000 162.816 237.266 L 161.200 235.533 161.200 200.891 L 161.200 166.250 162.100 164.915 C 163.808 162.382,162.961 162.436,200.000 162.522 C 232.520 162.598,233.442 162.621,234.995 163.400 M89.329 237.179 C 87.393 237.648,84.945 239.775,84.651 241.243 C 84.311 242.945,84.385 311.234,84.728 312.034 C 84.878 312.383,85.705 313.283,86.567 314.034 L 88.133 315.400 123.028 315.400 L 157.923 315.400 158.942 314.300 C 159.503 313.695,160.129 313.200,160.332 313.200 C 161.723 313.200,161.800 311.276,161.800 276.600 C 161.800 238.498,161.959 240.595,158.893 238.372 L 157.000 237.000 123.800 236.935 C 105.540 236.900,90.028 237.009,89.329 237.179 M243.000 237.145 C 241.127 237.543,238.674 239.115,237.693 240.546 L 236.800 241.850 236.800 276.306 C 236.800 313.901,236.653 311.688,239.310 314.000 L 240.918 315.400 275.359 315.504 C 314.429 315.622,311.484 315.871,313.900 312.255 L 315.200 310.310 315.193 276.455 L 315.185 242.600 314.020 240.881 C 313.379 239.935,312.168 238.675,311.328 238.081 L 309.800 237.000 277.000 236.945 C 258.960 236.915,243.660 237.005,243.000 237.145 M158.466 239.017 C 161.353 241.044,161.230 239.255,161.109 277.491 L 161.000 311.665 159.200 313.221 L 157.400 314.776 122.800 314.771 L 88.200 314.767 86.600 313.355 L 85.000 311.943 84.878 277.471 C 84.746 239.859,84.703 240.619,87.013 239.192 C 89.459 237.680,90.011 237.658,123.666 237.730 L 156.731 237.800 158.466 239.017 M310.910 238.579 C 311.855 239.066,312.790 240.020,313.410 241.129 L 314.400 242.901 314.400 276.466 C 314.400 314.141,314.564 312.044,311.465 313.960 C 310.112 314.796,309.954 314.800,275.912 314.800 L 241.718 314.800 240.396 313.900 C 237.130 311.677,237.400 315.053,237.400 276.471 L 237.400 242.200 238.360 240.854 C 238.899 240.099,240.217 239.088,241.360 238.553 L 243.400 237.598 276.400 237.699 C 308.210 237.796,309.454 237.828,310.910 238.579 " stroke="none" fill="#6c6c6c" fill-rule="evenodd"></path><path id="path4" d="M104.900 86.300 C 114.745 86.359,130.855 86.359,140.700 86.300 C 150.545 86.240,142.490 86.192,122.800 86.192 C 103.110 86.192,95.055 86.240,104.900 86.300 M258.100 86.300 C 267.945 86.359,284.055 86.359,293.900 86.300 C 303.745 86.240,295.690 86.192,276.000 86.192 C 256.310 86.192,248.255 86.240,258.100 86.300 M85.210 87.190 C 84.369 88.031,83.739 89.873,84.152 90.285 C 84.288 90.422,84.400 90.129,84.400 89.636 C 84.400 89.142,84.926 88.212,85.569 87.569 C 86.212 86.926,86.572 86.400,86.369 86.400 C 86.166 86.400,85.645 86.755,85.210 87.190 M159.856 87.169 C 160.546 87.590,161.207 88.174,161.324 88.467 C 161.469 88.831,161.547 88.846,161.568 88.516 C 161.611 87.857,159.996 86.400,159.225 86.401 C 158.877 86.402,159.157 86.742,159.856 87.169 M237.865 88.008 C 237.020 88.877,236.421 89.816,236.533 90.094 C 236.691 90.485,236.744 90.479,236.768 90.069 C 236.786 89.776,237.535 88.831,238.433 87.969 C 239.331 87.106,239.916 86.406,239.733 86.413 C 239.550 86.421,238.709 87.138,237.865 88.008 M312.434 86.795 C 312.782 86.999,313.592 87.923,314.234 88.848 L 315.400 90.531 315.604 125.166 L 315.809 159.800 315.898 125.400 C 315.968 98.679,315.878 90.816,315.494 90.175 C 313.777 87.310,313.045 86.401,312.460 86.412 C 311.866 86.423,311.863 86.461,312.434 86.795 M162.200 125.254 C 162.200 152.134,162.301 159.019,162.682 158.128 C 163.381 156.492,163.385 93.383,162.686 92.126 C 162.302 91.436,162.200 98.369,162.200 125.254 M236.191 125.400 C 236.191 144.320,236.240 152.001,236.300 142.470 C 236.360 132.938,236.360 117.458,236.300 108.070 C 236.240 98.681,236.191 106.480,236.191 125.400 M236.405 160.257 C 236.415 160.958,239.594 163.999,240.284 163.968 C 240.806 163.945,240.728 163.831,240.000 163.546 C 239.450 163.331,238.415 162.426,237.700 161.535 C 236.985 160.643,236.402 160.068,236.405 160.257 M314.725 160.698 C 313.568 162.045,313.500 162.592,314.625 161.512 C 315.248 160.914,315.661 160.328,315.543 160.210 C 315.425 160.092,315.057 160.311,314.725 160.698 M165.154 161.140 C 164.629 161.547,163.930 161.983,163.600 162.109 C 163.252 162.241,163.206 162.350,163.490 162.368 C 163.760 162.386,164.570 162.041,165.290 161.601 C 167.313 160.368,231.200 160.364,233.916 161.596 C 234.860 162.025,235.538 162.223,235.422 162.036 C 234.424 160.421,233.956 160.400,199.293 160.400 C 167.611 160.400,166.065 160.434,165.154 161.140 M161.200 162.151 C 161.200 162.550,161.534 162.800,162.067 162.800 C 162.543 162.800,162.858 162.749,162.767 162.687 C 162.675 162.625,162.285 162.333,161.900 162.038 C 161.301 161.579,161.200 161.596,161.200 162.151 M84.400 162.289 C 84.400 162.792,85.543 163.790,85.812 163.521 C 85.918 163.415,85.644 163.002,85.202 162.602 C 84.761 162.203,84.400 162.062,84.400 162.289 M236.313 162.669 C 236.596 162.783,237.361 163.933,238.013 165.226 L 239.200 167.577 239.200 200.909 C 239.200 223.315,239.065 234.375,238.787 234.653 C 238.559 234.881,238.040 235.952,237.633 237.033 C 237.035 238.620,236.632 239.092,235.546 239.477 C 234.233 239.943,234.227 239.955,235.300 239.977 C 236.156 239.995,236.408 240.199,236.436 240.900 C 236.466 241.642,236.534 241.589,236.825 240.600 C 237.162 239.454,239.900 237.488,242.200 236.740 C 242.975 236.488,242.973 236.478,242.156 236.440 C 241.692 236.418,240.649 236.850,239.838 237.400 C 237.415 239.044,236.953 238.176,238.834 235.516 C 240.011 233.851,240.033 167.400,238.857 165.684 C 238.449 165.088,237.815 164.105,237.448 163.500 C 237.082 162.895,236.561 162.414,236.291 162.432 C 235.927 162.455,235.932 162.516,236.313 162.669 M159.000 163.882 L 160.200 164.036 160.188 200.318 C 160.182 220.273,160.226 232.910,160.287 228.400 C 160.348 223.890,160.443 207.465,160.499 191.900 L 160.600 163.600 159.200 163.664 C 157.867 163.725,157.858 163.735,159.000 163.882 M89.115 164.472 C 89.492 164.621,104.650 164.744,122.800 164.744 C 140.950 164.744,156.108 164.621,156.485 164.472 C 156.862 164.322,141.704 164.200,122.800 164.200 C 103.896 164.200,88.738 164.322,89.115 164.472 M241.915 164.472 C 242.292 164.621,257.360 164.744,275.400 164.744 C 293.440 164.744,308.508 164.621,308.885 164.472 C 309.262 164.322,294.193 164.200,275.400 164.200 C 256.606 164.200,241.538 164.322,241.915 164.472 M86.266 237.854 C 85.240 238.653,84.400 239.395,84.400 239.502 C 84.400 239.717,85.318 239.060,86.674 237.874 C 87.154 237.454,88.144 236.968,88.874 236.796 C 90.039 236.520,90.074 236.477,89.166 236.441 C 88.539 236.416,87.395 236.974,86.266 237.854 M156.806 236.747 C 157.831 237.005,159.468 238.041,160.838 239.300 C 161.257 239.685,161.600 239.824,161.600 239.609 C 161.600 239.394,161.108 238.899,160.507 238.509 C 159.905 238.119,159.095 237.485,158.707 237.100 C 158.318 236.715,157.505 236.421,156.900 236.447 L 155.800 236.495 156.806 236.747 M309.790 236.693 C 310.224 236.803,311.353 237.527,312.298 238.302 C 313.244 239.077,313.907 239.423,313.772 239.071 C 313.637 238.718,313.206 238.329,312.816 238.205 C 312.425 238.081,311.784 237.624,311.391 237.190 C 310.998 236.755,310.299 236.421,309.838 236.446 C 309.043 236.490,309.041 236.503,309.790 236.693 M161.962 238.408 C 162.851 239.324,163.808 239.982,164.089 239.869 C 164.426 239.733,164.377 239.652,163.946 239.632 C 163.586 239.614,163.001 239.156,162.646 238.614 C 162.291 238.072,161.628 237.429,161.173 237.185 C 160.717 236.942,161.072 237.492,161.962 238.408 M314.800 240.922 C 315.319 241.581,315.428 246.352,315.604 276.342 L 315.809 311.000 315.904 276.522 L 316.000 242.045 315.100 241.103 C 314.605 240.585,314.470 240.503,314.800 240.922 M162.200 276.532 C 162.200 299.787,162.331 310.923,162.600 310.472 C 163.248 309.384,163.351 245.857,162.709 243.661 C 162.288 242.221,162.200 247.884,162.200 276.532 M236.191 276.200 C 236.191 295.120,236.240 302.801,236.300 293.270 C 236.360 283.738,236.360 268.258,236.300 258.870 C 236.240 249.481,236.191 257.280,236.191 276.200 M84.054 311.684 C 84.025 312.281,84.291 313.001,84.646 313.284 C 85.002 313.568,85.762 314.295,86.335 314.900 C 86.909 315.505,87.743 315.979,88.189 315.954 C 88.914 315.912,88.922 315.887,88.263 315.717 C 87.129 315.425,84.500 312.688,84.293 311.585 C 84.113 310.622,84.108 310.625,84.054 311.684 M236.425 311.760 C 236.387 312.923,239.859 316.010,241.142 315.953 L 242.200 315.905 241.158 315.653 C 239.875 315.342,237.303 313.122,236.813 311.901 C 236.501 311.126,236.447 311.106,236.425 311.760 M313.904 313.242 C 312.950 314.474,311.934 315.312,311.104 315.552 C 310.387 315.759,310.127 315.944,310.526 315.964 C 311.880 316.031,314.050 314.293,315.337 312.111 C 316.108 310.803,315.296 311.444,313.904 313.242 M159.772 314.138 C 158.907 314.874,157.930 315.580,157.600 315.707 C 157.076 315.907,157.079 315.941,157.616 315.968 C 157.955 315.986,159.028 315.280,160.000 314.400 C 162.141 312.463,161.970 312.267,159.772 314.138 " stroke="none" fill="#2c2c2c" fill-rule="evenodd"></path><path id="path5" d="M0.000 200.000 L 0.000 400.000 200.000 400.000 L 400.000 400.000 400.000 200.000 L 400.000 0.000 200.000 0.000 L 0.000 0.000 0.000 200.000 M160.954 86.918 C 161.458 87.422,161.989 88.569,162.132 89.466 C 162.276 90.362,162.664 91.322,162.996 91.597 C 164.073 92.491,163.884 157.363,162.800 159.000 C 161.077 161.602,161.958 162.692,164.410 160.993 L 165.862 159.987 199.899 160.093 L 233.936 160.200 234.894 161.100 C 236.114 162.247,236.999 162.320,236.414 161.226 C 236.138 160.710,236.000 148.647,236.000 124.915 L 236.000 89.378 237.100 88.335 C 237.705 87.762,238.433 87.001,238.718 86.644 C 239.189 86.053,242.530 86.005,276.306 86.098 L 313.376 86.200 313.812 87.074 C 314.052 87.555,314.687 88.304,315.224 88.739 L 316.200 89.529 316.318 123.865 C 316.383 142.749,316.337 158.749,316.215 159.419 C 315.840 161.485,313.271 163.936,311.043 164.352 C 309.991 164.549,308.930 164.910,308.685 165.155 C 308.366 165.474,299.100 165.600,275.851 165.600 L 243.463 165.600 240.893 164.572 C 237.932 163.387,237.552 163.475,238.978 165.014 L 240.000 166.117 240.000 200.485 C 240.000 220.132,239.846 235.141,239.639 235.526 C 239.302 236.156,241.612 236.193,274.958 236.088 L 310.637 235.976 312.519 237.441 C 313.553 238.247,314.400 239.131,314.400 239.405 C 314.400 239.678,314.805 240.171,315.300 240.500 L 316.200 241.097 316.318 275.049 C 316.454 313.854,316.570 311.720,314.176 314.291 L 312.398 316.200 276.069 316.200 L 239.740 316.200 237.877 314.400 L 236.013 312.600 236.007 276.500 L 236.000 240.400 199.680 240.400 C 172.249 240.400,163.244 240.284,162.887 239.927 C 161.950 238.990,161.874 240.050,162.728 242.113 C 163.600 244.214,163.600 244.232,163.600 276.871 L 163.600 309.526 162.504 311.663 C 161.901 312.838,161.257 313.865,161.073 313.944 C 160.889 314.023,160.206 314.608,159.555 315.244 L 158.372 316.400 122.947 316.400 L 87.521 316.400 86.460 315.275 C 85.877 314.657,85.098 314.037,84.728 313.899 C 83.605 313.477,83.555 311.578,83.680 274.643 C 83.797 239.967,83.819 239.076,84.574 238.643 C 85.000 238.400,85.782 237.750,86.313 237.200 L 87.277 236.200 122.600 236.094 L 157.924 235.987 159.241 237.094 C 160.309 237.990,160.487 238.048,160.180 237.400 C 159.951 236.918,159.763 222.203,159.706 200.400 L 159.612 164.200 158.506 164.326 C 157.898 164.395,157.001 164.710,156.514 165.026 C 155.168 165.898,90.585 165.885,89.340 165.013 C 88.879 164.690,87.783 164.311,86.906 164.171 C 84.721 163.821,84.397 163.554,83.981 161.759 C 83.460 159.516,83.496 90.592,84.018 88.712 C 84.824 85.809,82.071 86.000,123.107 86.000 L 160.036 86.000 160.954 86.918 " stroke="none" fill="#040404" fill-rule="evenodd"></path><path id="path6" d="" stroke="none" fill="#143818" fill-rule="evenodd"></path><path id="path7" d="M84.982 86.982 C 84.442 87.522,84.006 88.197,84.014 88.482 C 84.022 88.767,84.277 88.551,84.580 88.003 C 84.884 87.454,85.643 86.787,86.266 86.521 C 87.024 86.197,87.162 86.030,86.682 86.018 C 86.287 86.008,85.522 86.442,84.982 86.982 M159.000 86.340 C 160.426 86.803,161.146 87.386,161.552 88.403 C 161.842 89.132,161.956 89.207,161.975 88.682 C 162.011 87.661,160.207 85.993,159.118 86.040 C 158.272 86.077,158.263 86.100,159.000 86.340 M238.960 86.306 C 238.718 86.468,238.297 87.050,238.024 87.600 L 237.529 88.600 238.464 87.540 C 238.979 86.957,239.670 86.386,240.000 86.271 C 240.533 86.086,240.533 86.060,240.000 86.038 C 239.670 86.024,239.202 86.144,238.960 86.306 M312.200 86.280 C 312.640 86.383,313.225 86.757,313.500 87.110 C 313.775 87.464,314.000 87.575,314.000 87.356 C 314.000 86.677,313.077 85.998,312.220 86.046 C 311.418 86.092,311.417 86.097,312.200 86.280 M314.649 88.818 C 315.116 89.358,315.606 90.070,315.739 90.400 C 315.875 90.740,315.940 90.587,315.890 90.046 C 315.840 89.521,315.350 88.809,314.800 88.464 L 313.800 87.837 314.649 88.818 M236.480 88.880 C 236.216 89.144,236.025 89.819,236.054 90.380 L 236.109 91.400 236.293 90.400 C 236.394 89.850,236.661 89.175,236.887 88.900 C 237.411 88.262,237.113 88.247,236.480 88.880 M83.792 125.200 C 83.792 144.890,83.840 152.945,83.900 143.100 C 83.959 133.255,83.959 117.145,83.900 107.300 C 83.840 97.455,83.792 105.510,83.792 125.200 M162.040 90.400 C 162.033 90.730,162.286 91.450,162.600 92.000 C 163.479 93.537,163.479 156.158,162.600 158.262 C 161.788 160.206,161.850 160.435,162.800 159.000 C 163.729 157.597,164.090 92.350,163.172 91.783 C 162.937 91.637,162.588 91.132,162.397 90.659 C 162.197 90.163,162.046 90.054,162.040 90.400 M316.098 125.074 C 315.994 161.275,316.062 160.139,313.848 162.500 C 313.074 163.325,312.556 164.000,312.696 164.000 C 313.339 164.000,316.017 160.510,316.211 159.419 C 316.330 158.749,316.375 143.080,316.312 124.600 L 316.195 91.000 316.098 125.074 M236.025 159.926 C 236.011 160.216,236.186 160.801,236.414 161.226 C 236.999 162.320,236.114 162.247,234.894 161.100 L 233.936 160.200 199.899 160.093 L 165.862 159.987 164.410 160.993 C 162.842 162.080,162.183 162.234,161.863 161.590 C 161.751 161.365,161.711 161.410,161.774 161.690 C 161.941 162.443,163.857 162.171,165.061 161.224 C 166.524 160.073,231.698 159.915,233.800 161.057 C 234.460 161.416,235.499 161.970,236.109 162.288 C 236.719 162.607,237.572 163.560,238.003 164.407 C 238.435 165.253,238.971 166.059,239.194 166.196 C 240.069 166.737,239.718 234.266,238.834 235.516 C 236.953 238.176,237.415 239.044,239.838 237.400 L 241.312 236.400 275.898 236.400 L 310.485 236.400 311.742 237.404 C 313.400 238.727,313.424 238.751,314.807 240.555 L 316.000 242.110 315.982 276.355 C 315.968 302.187,315.846 310.858,315.482 311.650 C 314.877 312.968,313.206 314.928,312.180 315.523 C 311.629 315.843,311.574 315.979,311.992 315.988 C 313.153 316.012,315.936 312.504,316.195 310.691 C 316.328 309.761,316.384 293.722,316.318 275.049 L 316.200 241.097 315.300 240.500 C 314.805 240.171,314.400 239.678,314.400 239.405 C 314.400 239.131,313.553 238.247,312.519 237.441 L 310.637 235.976 274.958 236.088 C 241.612 236.193,239.302 236.156,239.639 235.526 C 239.846 235.141,240.000 220.132,240.000 200.485 L 240.000 166.117 239.000 165.038 C 237.781 163.722,237.747 163.466,238.839 163.813 C 239.637 164.066,239.632 164.032,238.739 163.139 C 238.223 162.623,237.652 162.249,237.470 162.310 C 237.289 162.370,237.247 162.248,237.377 162.038 C 237.507 161.827,237.417 161.534,237.178 161.387 C 236.939 161.239,236.588 160.732,236.397 160.259 C 236.207 159.787,236.039 159.637,236.025 159.926 M84.025 162.071 C 83.993 162.936,85.064 164.007,85.929 163.975 C 86.404 163.957,86.335 163.843,85.691 163.584 C 85.190 163.383,84.617 162.810,84.416 162.309 C 84.157 161.665,84.043 161.596,84.025 162.071 M156.447 164.432 C 155.862 164.666,142.622 164.772,122.140 164.707 C 95.378 164.621,88.920 164.699,89.469 165.100 C 90.339 165.736,155.804 165.840,156.196 165.206 C 156.330 164.990,157.016 164.646,157.720 164.442 C 158.478 164.223,158.674 164.068,158.200 164.061 C 157.760 164.056,156.971 164.222,156.447 164.432 M241.544 164.773 C 243.623 165.759,307.730 166.110,308.700 165.140 C 308.952 164.888,309.843 164.533,310.680 164.354 C 311.928 164.085,311.877 164.075,310.400 164.300 C 307.822 164.691,242.440 164.665,241.000 164.273 C 240.191 164.052,240.369 164.215,241.544 164.773 M159.794 201.000 C 159.797 222.621,159.949 236.914,160.180 237.400 C 160.487 238.048,160.309 237.990,159.241 237.094 L 157.924 235.987 122.539 236.094 L 87.154 236.200 86.477 237.053 C 86.105 237.522,85.395 238.114,84.900 238.367 C 84.405 238.621,84.000 239.126,84.000 239.491 C 84.000 240.104,84.037 240.104,84.500 239.497 C 84.775 239.136,85.700 238.291,86.555 237.620 L 88.110 236.400 123.055 236.400 C 155.800 236.400,158.044 236.444,158.707 237.100 C 159.095 237.485,159.905 238.119,160.507 238.509 C 161.108 238.899,161.603 239.529,161.606 239.909 C 161.611 240.497,161.668 240.511,161.989 240.003 C 162.290 239.528,162.468 239.508,162.863 239.903 C 163.252 240.292,171.282 240.400,199.652 240.400 L 235.944 240.400 236.118 241.300 C 236.266 242.072,236.299 242.043,236.346 241.100 L 236.400 240.000 199.953 240.000 L 163.506 240.000 161.853 238.300 L 160.200 236.600 159.994 201.000 L 159.787 165.400 159.794 201.000 M83.792 276.400 C 83.792 296.090,83.840 304.145,83.900 294.300 C 83.959 284.455,83.959 268.345,83.900 258.500 C 83.840 248.655,83.792 256.710,83.792 276.400 M162.013 241.000 C 162.011 241.220,162.277 242.284,162.604 243.364 C 163.111 245.032,163.197 249.986,163.183 276.364 C 163.167 304.927,163.051 309.094,162.208 311.400 C 162.047 311.840,162.293 311.660,162.755 311.000 C 164.037 309.168,164.087 245.160,162.809 242.344 C 162.374 241.385,162.016 240.780,162.013 241.000 M236.067 311.400 C 236.017 312.505,238.861 316.000,239.809 316.000 C 239.960 316.000,239.271 315.232,238.278 314.294 C 237.136 313.215,236.407 312.148,236.296 311.394 L 236.120 310.200 236.067 311.400 M160.200 314.176 L 158.600 315.800 123.000 316.004 L 87.400 316.209 122.886 316.304 L 158.372 316.400 159.600 315.200 C 160.275 314.540,160.982 314.000,161.171 314.000 C 161.491 314.000,162.151 312.766,161.909 312.619 C 161.849 312.582,161.080 313.283,160.200 314.176 M258.130 316.300 C 267.992 316.360,284.012 316.359,293.730 316.300 C 303.449 316.240,295.380 316.191,275.800 316.192 C 256.220 316.192,248.269 316.240,258.130 316.300 " stroke="none" fill="#14041c" fill-rule="evenodd"></path><path id="path8" d="" stroke="none" fill="#180404" fill-rule="evenodd"></path></g></svg>
