<svg xmlns="http://www.w3.org/2000/svg" fill="none" viewBox="0 0 48 48">
  <path fill="#133444" d="m10.7 27.08.99-.43 12.2-5.3 13.2 5.73-4.96 10.25L20 39.04 10.9 29.2l-.2-2.12Z"/>
  <path fill="#C42370" d="M34.34 20.78A13.55 13.55 0 0 0 25.7 16l-.22-.02a13.8 13.8 0 0 0-3.17 0l-.23.02a13.55 13.55 0 0 0-8.64 4.78l-.55.91-.92 1.53-.67 1.12c0 .04-.02.06-.04.08v.02l1.47.87 9.35 5.53 1.81 1.06V18.68l-1.8.81v-1.97l1.8-.81 1.81.81 9.2 4.17-.55-.91Z"/>
  <path fill="#1C4D6B" d="M37.5 30.37a14.5 14.5 0 0 1-5.33 11.17 13.88 13.88 0 0 1-4.3 2.38c-1.27.43-2.61.65-3.96.65-7.52 0-13.6-6.7-13.6-14.2 0-1.11.14-2.21.4-3.29l13.2 7.81 13.2-7.81c.25 1.08.39 2.18.39 3.3Z"/>
  <path fill="#000" d="m22.3 15.96 1.6.73-1.82.81v-1.63l.23.09ZM22.08 19.5l1.81-.84v13.22l-1.8-1.06V19.5Z"/>
  <path fill="#1D4259" d="M23.9 18.66v13.22l12.64-7.46-12.65-5.76Z"/>
  <path fill="#4B6B9A" d="M23.9 3.43v15.23l12.64 5.76-12.65-21Z"/>
  <path fill="#343535" d="M23.9 18.66v13.22l-1.82-1.06-10.82-6.4c0-.04.02-.06.04-.09l1.59-2.62 9.2-4.17v2l1.8-.88Z"/>
  <path fill="#3E5578" d="M23.9 18.66v13.22l-1.82-1.06-10.82-6.4h-.02l.02-.02 10.82-4.9 1.81-.84Z"/>
  <path fill="#6DB2D8" d="M23.9 3.43v15.23l-12.66 5.76 12.65-21Z"/>
  <path fill="#335F8A" d="m18.77 43.5.57.24-.57-.25ZM19.33 43.72c.19.08.4.14.6.2-.2-.06-.4-.12-.6-.2ZM20.44 44.08l.44.12-.44-.12Z"/>
  <path fill="#6DB2D8" d="m10.7 27.08 13.2 7.81a14.8 14.8 0 0 1-.96 3.46c-1.06 2.56-3.2 5.24-7.33 3.19a14.55 14.55 0 0 1-5.32-11.19c0-1.1.14-2.2.4-3.27Z"/>
  <path fill="#529BBA" d="m32.13 41.56-.27.22-.12.09-.18.12-.23.16-.26.18c-.08.04-.14.08-.22.15l-.15.1a.62.62 0 0 0-.14.1s-.06.06-.08.06c.08-.06-.1.04-.18.1-.1.04-.19.08-.27.14l-.28.15-.12.06c-.09.04-.05 0-.13.06s-.18.08-.28.14c-.1.06 0 0-.35.16l-.18.08c.18-.08-.33.13-.55.2l-.61.2c-.08.01-.18.05-.26.07l-.45.12c-.06.02-.12.02-.16.05l-.1.02-.25.06-.22.04-.2.04-.23.04c-.04 0-.08 0-.1.02l-.16.02h-.09l-.18.02-.24.02H22.8l-.24-.02c-.06 0-.12 0-.18-.02h-.09l-.16-.02c-.04 0-.08 0-.1-.02-.08 0-.14-.02-.22-.04a.72.72 0 0 1-.2-.04l-.23-.04-.25-.06-.1-.02a13.34 13.34 0 0 1-.61-.16l-.26-.09c-.08-.02-.16-.04-.25-.08-.2-.06-.38-.14-.59-.2-.2-.06-.38-.17-.56-.25l-.29-.12c-.1-.04-.2-.08-.28-.14a1.1 1.1 0 0 1-.27-.14l-.26-.15-.2-.12-.21-.12-.12-.08-.23-.14-.08-.05-.2-.14-.24-.16-.27-.18-.22-.19-.08-.06c-.09-.04-.15-.1-.2-.16 4.12 2.05 6.24-.67 7.3-3.21.44-1.12.77-2.28.95-3.46.18 1.2.49 2.38.96 3.5 1.1 2.52 3.17 5.22 7.3 3.19Z"/>
  <path fill="#335F8A" d="m26.9 44.2.45-.12-.45.12ZM27.86 43.92ZM28.4 43.74c.19-.08.43-.17.62-.27-.2.1-.43.19-.61.27Z"/>
  <path fill="#4B6B9A" d="M37.5 30.37a14.5 14.5 0 0 1-5.33 11.17c-4.13 2.05-6.27-.65-7.32-3.2a15.87 15.87 0 0 1-.96-3.45l13.2-7.81c.26 1.08.4 2.18.4 3.3Z"/>
</svg>
