<svg xmlns="http://www.w3.org/2000/svg" width="24" height="24" fill="none">
  <linearGradient id="a" x1="7.49" x2="22.7" y1="11.2" y2="15.5" gradientUnits="userSpaceOnUse">
    <stop offset="0" stop-color="#8697ff"/>
    <stop offset="1" stop-color="#abb7ff"/>
  </linearGradient>
  <linearGradient id="b" x1="20.13" x2="9.12" y1="10.91" y2="-.08" gradientUnits="userSpaceOnUse">
    <stop offset="0" stop-color="#8697ff"/>
    <stop offset="1" stop-color="#5156d8" stop-opacity="0"/>
  </linearGradient>
  <linearGradient id="c" x1="14.46" x2="3.91" y1="17.08" y2="11.04" gradientUnits="userSpaceOnUse">
    <stop offset="0" stop-color="#465eed"/>
    <stop offset="1" stop-color="#8697ff" stop-opacity="0"/>
  </linearGradient>
  <linearGradient id="d" x1="8.39" x2="15.55" y1="11.09" y2="20.15" gradientUnits="userSpaceOnUse">
    <stop offset="0" stop-color="#8898ff"/>
    <stop offset=".98" stop-color="#6277f1"/>
  </linearGradient>
  <g opacity=".6">
    <path fill="url(#a)" d="M22.87 12.92c.87-1.94-3.4-7.35-7.48-9.6-2.57-1.74-5.25-1.5-5.8-.74-1.18 1.68 3.95 3.1 7.38 4.77-.73.32-1.43.9-1.84 1.64-1.28-1.4-4.09-2.61-7.38-1.64a6.84 6.84 0 0 0-4.78 4.54 1.4 1.4 0 1 0-.57 2.69c.14 0 .59-.1.59-.1l7.15.05c-2.86 4.55-5.12 5.21-5.12 6s2.16.58 2.97.28c3.9-1.4 8.07-5.79 8.78-7.05 3.01.37 5.54.42 6.1-.84z"/>
    <path fill="url(#b)" fill-rule="evenodd" d="M16.97 7.35c.16-.06.14-.3.1-.48-.1-.43-1.84-2.14-3.47-2.91-2.21-1.05-3.85-1-4.09-.51.45.93 2.55 1.8 4.73 2.7.94.4 1.89.8 2.73 1.2z" clip-rule="evenodd"/>
    <path fill="url(#c)" fill-rule="evenodd" d="M14.16 16.7c-.45-.17-.96-.33-1.53-.47.61-1.1.74-2.74.16-3.77-.81-1.45-1.83-2.22-4.2-2.22-1.31 0-4.83.44-4.9 3.39 0 .3 0 .59.03.85l6.42.05a22.05 22.05 0 0 1-2.39 3.17l2.2.57 1.76.46c.89-.65 1.72-1.35 2.45-2.03z" clip-rule="evenodd"/>
    <path fill="url(#d)" d="M2.88 14.18c.26 2.24 1.53 3.11 4.12 3.37 2.59.26 4.07.09 6.05.27 1.65.15 3.12 1 3.67.7.5-.26.22-1.21-.44-1.82-.86-.79-2.04-1.34-4.12-1.53.42-1.14.3-2.74-.34-3.6C10.89 10.3 9.17 9.74 7 9.99c-2.27.26-4.45 1.38-4.12 4.19z"/>
  </g>
</svg>
