<svg width="144" height="144" viewBox="0 0 144 144" fill="none" xmlns="http://www.w3.org/2000/svg">
<g clip-path="url(#clip0_1563_11516)">
<mask id="mask0_1563_11516" style="mask-type:alpha" maskUnits="userSpaceOnUse" x="0" y="0" width="144" height="144">
<path d="M0 56.1917C0 36.3155 0 26.3774 3.92946 18.8129C7.24078 12.4384 12.4384 7.24078 18.8129 3.92946C26.3774 0 36.3155 0 56.1917 0H87.8083C107.684 0 117.623 0 125.187 3.92946C131.562 7.24078 136.759 12.4384 140.071 18.8129C144 26.3774 144 36.3155 144 56.1917V87.8083C144 107.684 144 117.623 140.071 125.187C136.759 131.562 131.562 136.759 125.187 140.071C117.623 144 107.684 144 87.8083 144H56.1917C36.3155 144 26.3774 144 18.8129 140.071C12.4384 136.759 7.24078 131.562 3.92946 125.187C0 117.623 0 107.684 0 87.8083V56.1917Z" fill="#C4C4C4"/>
</mask>
<g mask="url(#mask0_1563_11516)">
<rect width="144" height="144" fill="#0F0E0E"/>
<path d="M99.7895 80.4345H71.2302L89.0934 57.1959C90.4151 55.4723 89.1888 52.9788 87.0155 52.9788H52.1134L44.5034 62.8778L70.2355 62.8642C72.3079 62.8642 71.3323 64.5401 70.6715 65.3986L56.5621 83.7523C54.5183 86.4093 56.4122 90.2586 59.7642 90.2586H92.3159L99.7895 80.4413V80.4345Z" fill="#EA9C2F"/>
<path d="M98.7678 43.0389C102.12 43.0389 104.981 44.8374 106.432 47.8555C107.883 50.8736 107.093 54.2323 105.002 56.8553L93.6173 71.6119H106.507L113.122 63.0004C117.564 57.4412 118.409 49.9948 115.316 43.5839C112.237 37.173 105.894 33.1875 98.7747 33.1875H67.5446L59.9756 43.0389H98.7815H98.7678Z" fill="#EA9C2F"/>
<path d="M45.1236 100.954C41.7717 100.954 38.9103 99.1559 37.4592 96.1378C36.008 93.1197 36.7983 89.761 38.8899 87.138L50.8668 71.6184H37.9769L30.7758 80.9997C26.3338 86.5589 25.489 94.0054 28.5821 100.416C31.6614 106.827 38.0042 110.813 45.1236 110.813H76.34L83.909 100.961H45.1236V100.954Z" fill="#EA9C2F"/>
</g>
</g>
<rect x="0.305085" y="0.305085" width="143.39" height="143.39" rx="31.4237" stroke="black" stroke-opacity="0.06" stroke-width="0.610169"/>
<defs>
<clipPath id="clip0_1563_11516">
<rect width="144" height="144" rx="31.7288" fill="white"/>
</clipPath>
</defs>
</svg>
