<svg width="48" height="48" viewBox="0 0 48 48" fill="none" xmlns="http://www.w3.org/2000/svg">
<rect width="48" height="48" rx="24" fill="url(#paint0_linear_3507_38528)"/>
<path fill-rule="evenodd" clip-rule="evenodd" d="M21.7905 9.15869C21.2195 9.15869 20.7645 9.63594 20.7916 10.2063L21.6356 27.9295C21.661 28.4627 22.1007 28.8819 22.6345 28.8819H24.9538C25.4876 28.8819 25.9273 28.4627 25.9527 27.9295L26.7967 10.2063C26.8238 9.63594 26.3688 9.15869 25.7978 9.15869H21.7905ZM23.7942 31.9343C21.7193 31.9343 20.0374 33.6163 20.0374 35.6911C20.0374 37.7659 21.7193 39.4479 23.7942 39.4479C25.869 39.4479 27.551 37.7659 27.551 35.6911C27.551 33.6163 25.869 31.9343 23.7942 31.9343Z" fill="#EEEEEE"/>
<defs>
<linearGradient id="paint0_linear_3507_38528" x1="0.0793949" y1="-0.0795096" x2="47.9786" y2="47.8197" gradientUnits="userSpaceOnUse">
<stop stop-color="#F37F81"/>
<stop offset="1" stop-color="#D5181C"/>
</linearGradient>
</defs>
</svg>
