<svg width="48" height="48" viewBox="0 0 48 48" fill="none" xmlns="http://www.w3.org/2000/svg">
<rect width="48" height="48" rx="24" fill="url(#paint0_linear_3507_38540)"/>
<path fill-rule="evenodd" clip-rule="evenodd" d="M21.7905 19.7247C21.2195 19.7247 20.7645 20.2019 20.7916 20.7722L21.6356 38.4954C21.661 39.0286 22.1007 39.4479 22.6345 39.4479H24.9538C25.4876 39.4479 25.9273 39.0286 25.9527 38.4954L26.7967 20.7722C26.8238 20.2019 26.3688 19.7247 25.7978 19.7247H21.7905ZM23.7942 16.6722C21.7193 16.6722 20.0374 14.9902 20.0374 12.9154C20.0374 10.8406 21.7193 9.15858 23.7942 9.15858C25.869 9.15858 27.551 10.8406 27.551 12.9154C27.551 14.9902 25.869 16.6722 23.7942 16.6722Z" fill="#EEEEEE"/>
<defs>
<linearGradient id="paint0_linear_3507_38540" x1="0.0793949" y1="-0.0795096" x2="47.9786" y2="47.8197" gradientUnits="userSpaceOnUse">
<stop stop-color="#88BAEC"/>
<stop offset="1" stop-color="#2F5FBD"/>
</linearGradient>
</defs>
</svg>
