<svg width="48" height="48" viewBox="0 0 48 48" fill="none" xmlns="http://www.w3.org/2000/svg">
<rect width="48" height="48" rx="24" fill="url(#paint0_linear_3507_38534)"/>
<path fill-rule="evenodd" clip-rule="evenodd" d="M34.5004 12.6137C34.0427 12.2811 33.4005 12.3942 33.0839 12.863L21.1133 30.5886L14.338 23.2154C13.9484 22.7915 13.2822 22.7832 12.8823 23.1974L10.1164 26.0616C9.71642 26.4757 9.74792 27.1412 10.1852 27.5157L18.867 34.9518C18.9341 35.0627 19.0239 35.1623 19.1351 35.2432L19.6105 35.5886L20.6215 36.4544C20.7775 36.5881 20.9635 36.6655 21.1541 36.688C21.5686 36.8829 22.0752 36.7717 22.3671 36.3977L37.9653 16.4096C38.3134 15.9636 38.2224 15.3179 37.7647 14.9853L34.5004 12.6137Z" fill="#EEEEEE"/>
<defs>
<linearGradient id="paint0_linear_3507_38534" x1="0.0793949" y1="-0.0795096" x2="47.9786" y2="47.8197" gradientUnits="userSpaceOnUse">
<stop stop-color="#ACD090"/>
<stop offset="1" stop-color="#518C21"/>
</linearGradient>
</defs>
</svg>
