<svg width="34" height="33" viewBox="0 0 34 33" fill="none" xmlns="http://www.w3.org/2000/svg">
<rect y="1.48047" width="32" height="24.32" rx="2.56" fill="#CAF1FC"/>
<path d="M0 21.96H32V23.24C32 24.6538 30.8538 25.8 29.44 25.8H2.56C1.14615 25.8 0 24.6538 0 23.24V21.96Z" fill="#A4EBFC"/>
<path opacity="0.5" fill-rule="evenodd" clip-rule="evenodd" d="M8.47988 19.7188C15.991 19.7188 22.0799 13.9164 22.0799 6.75883C22.0799 4.87829 21.6596 3.0913 20.9036 1.47852H2.56C1.14615 1.47852 0 2.62467 0 4.03851V16.8917C2.32521 18.6611 5.27292 19.7188 8.47988 19.7188Z" fill="white"/>
<path d="M13.7601 25.7998H18.2401L18.8801 30.2798H13.1201L13.7601 25.7998Z" fill="#6AE0FC"/>
<rect x="10.8799" y="30.2803" width="10.24" height="0.96" rx="0.48" fill="#585966"/>
<path fill-rule="evenodd" clip-rule="evenodd" d="M24.9886 14.5986C24.5468 14.5986 24.1886 14.9568 24.1886 15.3986V17.3986C24.1886 17.8405 24.5468 18.1987 24.9886 18.1987H26.5886C27.0305 18.1987 27.3886 17.8405 27.3886 17.3986V15.3986C27.3886 14.9568 27.0305 14.5986 26.5886 14.5986H24.9886ZM24.9885 26.999C24.5467 26.999 24.1885 27.3572 24.1885 27.799V29.799C24.1885 30.2409 24.5467 30.599 24.9885 30.599H26.5885C27.0304 30.599 27.3885 30.2409 27.3885 29.799V27.799C27.3885 27.3572 27.0304 26.999 26.5885 26.999H24.9885ZM18.7537 20.3846C18.371 20.1637 18.2399 19.6744 18.4608 19.2918L19.2608 17.9061C19.4818 17.5235 19.971 17.3924 20.3537 17.6133L22.0858 18.6133C22.4684 18.8342 22.5995 19.3235 22.3786 19.7061L21.5786 21.0918C21.3577 21.4744 20.8684 21.6055 20.4857 21.3846L18.7537 20.3846ZM29.1993 25.4916C28.9784 25.8742 29.1095 26.3635 29.4921 26.5844L31.2242 27.5844C31.6068 27.8053 32.0961 27.6742 32.317 27.2916L33.117 25.9059C33.338 25.5233 33.2068 25.034 32.8242 24.8131L31.0921 23.8131C30.7095 23.5922 30.2202 23.7233 29.9993 24.1059L29.1993 25.4916ZM18.7537 24.8128C18.371 25.0337 18.2399 25.5229 18.4608 25.9056L19.2608 27.2912C19.4818 27.6739 19.971 27.805 20.3537 27.5841L22.0858 26.584C22.4684 26.3631 22.5995 25.8739 22.3786 25.4912L21.5786 24.1056C21.3577 23.7229 20.8684 23.5918 20.4857 23.8127L18.7537 24.8128ZM29.1993 19.7055C28.9784 19.3229 29.1095 18.8336 29.4921 18.6127L31.2242 17.6127C31.6068 17.3918 32.0961 17.5229 32.317 17.9055L33.117 19.2912C33.338 19.6738 33.2068 20.1631 32.8242 20.384L31.0921 21.384C30.7095 21.6049 30.2202 21.4738 29.9993 21.0912L29.1993 19.7055Z" fill="#D10028"/>
<g filter="url(#filter0_i_3970_52766)">
<path fill-rule="evenodd" clip-rule="evenodd" d="M25.7892 16.5977C22.4754 16.5977 19.7891 19.284 19.7891 22.5977C19.7891 25.9114 22.4754 28.5977 25.7892 28.5977C29.1029 28.5977 31.7893 25.9114 31.7893 22.5977C31.7893 19.284 29.1029 16.5977 25.7892 16.5977ZM25.7892 20.1973C24.4637 20.1973 23.3892 21.2718 23.3892 22.5973C23.3892 23.9228 24.4637 24.9973 25.7892 24.9973C27.1147 24.9973 28.1892 23.9228 28.1892 22.5973C28.1892 21.2718 27.1147 20.1973 25.7892 20.1973Z" fill="#E63950"/>
</g>
<defs>
<filter id="filter0_i_3970_52766" x="19.3891" y="16.1977" width="12.4" height="12.4" filterUnits="userSpaceOnUse" color-interpolation-filters="sRGB">
<feFlood flood-opacity="0" result="BackgroundImageFix"/>
<feBlend mode="normal" in="SourceGraphic" in2="BackgroundImageFix" result="shape"/>
<feColorMatrix in="SourceAlpha" type="matrix" values="0 0 0 0 0 0 0 0 0 0 0 0 0 0 0 0 0 0 127 0" result="hardAlpha"/>
<feOffset dx="-0.400005" dy="-0.400005"/>
<feGaussianBlur stdDeviation="0.200002"/>
<feComposite in2="hardAlpha" operator="arithmetic" k2="-1" k3="1"/>
<feColorMatrix type="matrix" values="0 0 0 0 0.0375 0 0 0 0 0.0375 0 0 0 0 0.0375 0 0 0 0.25 0"/>
<feBlend mode="normal" in2="shape" result="effect1_innerShadow_3970_52766"/>
</filter>
</defs>
</svg>
